<mxfile host="app.diagrams.net" modified="2024-05-26T18:45:05.293Z" agent="Mozilla/5.0 (Macintosh; Intel Mac OS X 10_15_7) AppleWebKit/605.1.15 (KHTML, like Gecko) Version/17.4.1 Safari/605.1.15" etag="2Qb9SCpFtgE2uSpe_CJQ" version="24.4.4" type="google">
  <diagram name="Page-1" id="kjMqG90KLM3wEapnIY43">
    <mxGraphModel grid="0" page="0" gridSize="10" guides="1" tooltips="1" connect="1" arrows="1" fold="1" pageScale="1" pageWidth="850" pageHeight="1100" math="0" shadow="0">
      <root>
        <mxCell id="0" />
        <mxCell id="1" parent="0" />
        <mxCell id="8gRQs5-1PO1u6uqCk4zV-2" value="" style="shape=trapezoid;perimeter=trapezoidPerimeter;whiteSpace=wrap;html=1;fixedSize=1;rotation=90;" vertex="1" parent="1">
          <mxGeometry x="120" y="48" width="120" height="60" as="geometry" />
        </mxCell>
        <mxCell id="8gRQs5-1PO1u6uqCk4zV-23" style="edgeStyle=orthogonalEdgeStyle;rounded=0;orthogonalLoop=1;jettySize=auto;html=1;entryX=0;entryY=0.5;entryDx=0;entryDy=0;endArrow=none;endFill=0;" edge="1" parent="1" source="8gRQs5-1PO1u6uqCk4zV-3" target="8gRQs5-1PO1u6uqCk4zV-14">
          <mxGeometry relative="1" as="geometry" />
        </mxCell>
        <mxCell id="8gRQs5-1PO1u6uqCk4zV-3" value="Mux" style="text;html=1;align=center;verticalAlign=middle;whiteSpace=wrap;rounded=0;" vertex="1" parent="1">
          <mxGeometry x="150" y="63" width="60" height="30" as="geometry" />
        </mxCell>
        <mxCell id="8gRQs5-1PO1u6uqCk4zV-5" value="" style="endArrow=none;html=1;rounded=0;" edge="1" parent="1">
          <mxGeometry width="50" height="50" relative="1" as="geometry">
            <mxPoint x="138" y="86.88" as="sourcePoint" />
            <mxPoint x="150" y="86.88" as="targetPoint" />
          </mxGeometry>
        </mxCell>
        <mxCell id="8gRQs5-1PO1u6uqCk4zV-6" value="" style="endArrow=none;html=1;rounded=0;" edge="1" parent="1">
          <mxGeometry width="50" height="50" relative="1" as="geometry">
            <mxPoint x="138" y="38.879999999999995" as="sourcePoint" />
            <mxPoint x="150" y="38.879999999999995" as="targetPoint" />
          </mxGeometry>
        </mxCell>
        <mxCell id="8gRQs5-1PO1u6uqCk4zV-7" value="" style="endArrow=none;html=1;rounded=0;" edge="1" parent="1">
          <mxGeometry width="50" height="50" relative="1" as="geometry">
            <mxPoint x="138" y="131.88" as="sourcePoint" />
            <mxPoint x="150" y="131.88" as="targetPoint" />
          </mxGeometry>
        </mxCell>
        <mxCell id="8gRQs5-1PO1u6uqCk4zV-8" value="" style="endArrow=none;html=1;rounded=0;" edge="1" parent="1">
          <mxGeometry width="50" height="50" relative="1" as="geometry">
            <mxPoint x="138" y="116.88" as="sourcePoint" />
            <mxPoint x="150" y="116.88" as="targetPoint" />
          </mxGeometry>
        </mxCell>
        <mxCell id="8gRQs5-1PO1u6uqCk4zV-9" value="" style="endArrow=none;html=1;rounded=0;" edge="1" parent="1">
          <mxGeometry width="50" height="50" relative="1" as="geometry">
            <mxPoint x="138" y="101.88" as="sourcePoint" />
            <mxPoint x="150" y="101.88" as="targetPoint" />
          </mxGeometry>
        </mxCell>
        <mxCell id="8gRQs5-1PO1u6uqCk4zV-10" value="" style="endArrow=none;html=1;rounded=0;" edge="1" parent="1">
          <mxGeometry width="50" height="50" relative="1" as="geometry">
            <mxPoint x="138" y="70.88" as="sourcePoint" />
            <mxPoint x="150" y="70.88" as="targetPoint" />
          </mxGeometry>
        </mxCell>
        <mxCell id="8gRQs5-1PO1u6uqCk4zV-11" value="" style="endArrow=none;html=1;rounded=0;" edge="1" parent="1">
          <mxGeometry width="50" height="50" relative="1" as="geometry">
            <mxPoint x="138" y="54.88" as="sourcePoint" />
            <mxPoint x="150" y="54.88" as="targetPoint" />
          </mxGeometry>
        </mxCell>
        <mxCell id="8gRQs5-1PO1u6uqCk4zV-12" value="" style="endArrow=none;html=1;rounded=0;" edge="1" parent="1">
          <mxGeometry width="50" height="50" relative="1" as="geometry">
            <mxPoint x="138" y="23.88" as="sourcePoint" />
            <mxPoint x="150" y="23.88" as="targetPoint" />
          </mxGeometry>
        </mxCell>
        <mxCell id="8gRQs5-1PO1u6uqCk4zV-13" value="" style="shape=trapezoid;perimeter=trapezoidPerimeter;whiteSpace=wrap;html=1;fixedSize=1;rotation=-90;" vertex="1" parent="1">
          <mxGeometry x="390" y="51" width="120" height="60" as="geometry" />
        </mxCell>
        <mxCell id="8gRQs5-1PO1u6uqCk4zV-14" value="Demux" style="text;html=1;align=center;verticalAlign=middle;whiteSpace=wrap;rounded=0;" vertex="1" parent="1">
          <mxGeometry x="420" y="63" width="60" height="30" as="geometry" />
        </mxCell>
        <mxCell id="8gRQs5-1PO1u6uqCk4zV-15" value="" style="endArrow=none;html=1;rounded=0;" edge="1" parent="1">
          <mxGeometry width="50" height="50" relative="1" as="geometry">
            <mxPoint x="480" y="90.00000000000001" as="sourcePoint" />
            <mxPoint x="492" y="90.00000000000001" as="targetPoint" />
          </mxGeometry>
        </mxCell>
        <mxCell id="8gRQs5-1PO1u6uqCk4zV-16" value="" style="endArrow=none;html=1;rounded=0;" edge="1" parent="1">
          <mxGeometry width="50" height="50" relative="1" as="geometry">
            <mxPoint x="480" y="42" as="sourcePoint" />
            <mxPoint x="492" y="42" as="targetPoint" />
          </mxGeometry>
        </mxCell>
        <mxCell id="8gRQs5-1PO1u6uqCk4zV-17" value="" style="endArrow=none;html=1;rounded=0;" edge="1" parent="1">
          <mxGeometry width="50" height="50" relative="1" as="geometry">
            <mxPoint x="480" y="135" as="sourcePoint" />
            <mxPoint x="492" y="135" as="targetPoint" />
          </mxGeometry>
        </mxCell>
        <mxCell id="8gRQs5-1PO1u6uqCk4zV-18" value="" style="endArrow=none;html=1;rounded=0;" edge="1" parent="1">
          <mxGeometry width="50" height="50" relative="1" as="geometry">
            <mxPoint x="480" y="120.00000000000001" as="sourcePoint" />
            <mxPoint x="492" y="120.00000000000001" as="targetPoint" />
          </mxGeometry>
        </mxCell>
        <mxCell id="8gRQs5-1PO1u6uqCk4zV-19" value="" style="endArrow=none;html=1;rounded=0;" edge="1" parent="1">
          <mxGeometry width="50" height="50" relative="1" as="geometry">
            <mxPoint x="480" y="105.00000000000001" as="sourcePoint" />
            <mxPoint x="492" y="105.00000000000001" as="targetPoint" />
          </mxGeometry>
        </mxCell>
        <mxCell id="8gRQs5-1PO1u6uqCk4zV-20" value="" style="endArrow=none;html=1;rounded=0;" edge="1" parent="1">
          <mxGeometry width="50" height="50" relative="1" as="geometry">
            <mxPoint x="480" y="74.00000000000001" as="sourcePoint" />
            <mxPoint x="492" y="74.00000000000001" as="targetPoint" />
          </mxGeometry>
        </mxCell>
        <mxCell id="8gRQs5-1PO1u6uqCk4zV-21" value="" style="endArrow=none;html=1;rounded=0;" edge="1" parent="1">
          <mxGeometry width="50" height="50" relative="1" as="geometry">
            <mxPoint x="480" y="58" as="sourcePoint" />
            <mxPoint x="492" y="58" as="targetPoint" />
          </mxGeometry>
        </mxCell>
        <mxCell id="8gRQs5-1PO1u6uqCk4zV-22" value="" style="endArrow=none;html=1;rounded=0;" edge="1" parent="1">
          <mxGeometry width="50" height="50" relative="1" as="geometry">
            <mxPoint x="480" y="27" as="sourcePoint" />
            <mxPoint x="492" y="27" as="targetPoint" />
          </mxGeometry>
        </mxCell>
        <mxCell id="8gRQs5-1PO1u6uqCk4zV-25" value="" style="shape=flexArrow;endArrow=classic;html=1;rounded=0;width=6.4;endSize=6.904000000000001;endWidth=11.040000000000001;" edge="1" parent="1">
          <mxGeometry width="50" height="50" relative="1" as="geometry">
            <mxPoint x="278" y="54" as="sourcePoint" />
            <mxPoint x="350" y="54" as="targetPoint" />
          </mxGeometry>
        </mxCell>
        <mxCell id="8gRQs5-1PO1u6uqCk4zV-26" value="1" style="rounded=0;whiteSpace=wrap;html=1;" vertex="1" parent="1">
          <mxGeometry x="194" y="188" width="29" height="29" as="geometry" />
        </mxCell>
        <mxCell id="8gRQs5-1PO1u6uqCk4zV-27" value="2" style="rounded=0;whiteSpace=wrap;html=1;" vertex="1" parent="1">
          <mxGeometry x="223" y="188" width="29" height="29" as="geometry" />
        </mxCell>
        <mxCell id="8gRQs5-1PO1u6uqCk4zV-28" value="3" style="rounded=0;whiteSpace=wrap;html=1;" vertex="1" parent="1">
          <mxGeometry x="252" y="188" width="29" height="29" as="geometry" />
        </mxCell>
        <mxCell id="8gRQs5-1PO1u6uqCk4zV-29" value="4" style="rounded=0;whiteSpace=wrap;html=1;" vertex="1" parent="1">
          <mxGeometry x="281" y="188" width="29" height="29" as="geometry" />
        </mxCell>
        <mxCell id="8gRQs5-1PO1u6uqCk4zV-30" value="5" style="rounded=0;whiteSpace=wrap;html=1;" vertex="1" parent="1">
          <mxGeometry x="310" y="188" width="28" height="29" as="geometry" />
        </mxCell>
        <mxCell id="8gRQs5-1PO1u6uqCk4zV-31" value="6" style="rounded=0;whiteSpace=wrap;html=1;" vertex="1" parent="1">
          <mxGeometry x="338" y="188" width="29" height="29" as="geometry" />
        </mxCell>
        <mxCell id="8gRQs5-1PO1u6uqCk4zV-32" value="7" style="rounded=0;whiteSpace=wrap;html=1;" vertex="1" parent="1">
          <mxGeometry x="367" y="188" width="29" height="29" as="geometry" />
        </mxCell>
        <mxCell id="8gRQs5-1PO1u6uqCk4zV-33" value="8" style="rounded=0;whiteSpace=wrap;html=1;" vertex="1" parent="1">
          <mxGeometry x="396" y="188" width="29" height="29" as="geometry" />
        </mxCell>
        <mxCell id="8gRQs5-1PO1u6uqCk4zV-34" value="" style="endArrow=none;html=1;rounded=0;" edge="1" parent="1">
          <mxGeometry width="50" height="50" relative="1" as="geometry">
            <mxPoint x="194" y="179" as="sourcePoint" />
            <mxPoint x="425" y="179" as="targetPoint" />
          </mxGeometry>
        </mxCell>
        <mxCell id="8gRQs5-1PO1u6uqCk4zV-35" value="" style="endArrow=none;html=1;rounded=0;" edge="1" parent="1">
          <mxGeometry width="50" height="50" relative="1" as="geometry">
            <mxPoint x="194" y="182" as="sourcePoint" />
            <mxPoint x="194" y="176" as="targetPoint" />
          </mxGeometry>
        </mxCell>
        <mxCell id="8gRQs5-1PO1u6uqCk4zV-36" value="" style="endArrow=none;html=1;rounded=0;" edge="1" parent="1">
          <mxGeometry width="50" height="50" relative="1" as="geometry">
            <mxPoint x="425" y="182" as="sourcePoint" />
            <mxPoint x="425" y="176" as="targetPoint" />
          </mxGeometry>
        </mxCell>
        <mxCell id="8gRQs5-1PO1u6uqCk4zV-37" value="" style="endArrow=none;html=1;rounded=0;" edge="1" parent="1">
          <mxGeometry width="50" height="50" relative="1" as="geometry">
            <mxPoint x="194.13422818791946" y="225" as="sourcePoint" />
            <mxPoint x="222.95" y="225" as="targetPoint" />
          </mxGeometry>
        </mxCell>
        <mxCell id="8gRQs5-1PO1u6uqCk4zV-38" value="" style="endArrow=none;html=1;rounded=0;" edge="1" parent="1">
          <mxGeometry width="50" height="50" relative="1" as="geometry">
            <mxPoint x="194.05" y="228" as="sourcePoint" />
            <mxPoint x="194" y="222" as="targetPoint" />
          </mxGeometry>
        </mxCell>
        <mxCell id="8gRQs5-1PO1u6uqCk4zV-39" value="" style="endArrow=none;html=1;rounded=0;" edge="1" parent="1">
          <mxGeometry width="50" height="50" relative="1" as="geometry">
            <mxPoint x="222.95" y="228" as="sourcePoint" />
            <mxPoint x="222.95" y="222" as="targetPoint" />
          </mxGeometry>
        </mxCell>
        <mxCell id="8gRQs5-1PO1u6uqCk4zV-40" value="&lt;font style=&quot;font-size: 6px;&quot;&gt;62.5 x 10&lt;/font&gt;&lt;font style=&quot;font-size: 6px;&quot;&gt;ˆ&lt;/font&gt;&lt;font style=&quot;font-size: 6px;&quot;&gt;(-6)&amp;nbsp;&lt;/font&gt;&lt;font&gt;&lt;span style=&quot;font-size: 6px;&quot;&gt;seg&lt;/span&gt;&lt;/font&gt;" style="text;html=1;align=center;verticalAlign=middle;whiteSpace=wrap;rounded=0;" vertex="1" parent="1">
          <mxGeometry x="283" y="163" width="55" height="11" as="geometry" />
        </mxCell>
        <mxCell id="8gRQs5-1PO1u6uqCk4zV-41" value="&lt;font style=&quot;font-size: 6px;&quot;&gt;&amp;nbsp;7.8 x 10&lt;/font&gt;&lt;font style=&quot;font-size: 6px;&quot;&gt;ˆ&lt;/font&gt;&lt;font style=&quot;font-size: 6px;&quot;&gt;(-6)&amp;nbsp;&lt;/font&gt;&lt;font&gt;&lt;span style=&quot;font-size: 6px;&quot;&gt;seg&lt;/span&gt;&lt;/font&gt;" style="text;html=1;align=center;verticalAlign=middle;whiteSpace=wrap;rounded=0;" vertex="1" parent="1">
          <mxGeometry x="181" y="227" width="55" height="11" as="geometry" />
        </mxCell>
        <mxCell id="8gRQs5-1PO1u6uqCk4zV-42" value="&lt;span style=&quot;font-size: 6px;&quot;&gt;16 Kbps&lt;/span&gt;" style="text;html=1;align=center;verticalAlign=middle;whiteSpace=wrap;rounded=0;" vertex="1" parent="1">
          <mxGeometry x="105" y="17" width="32" height="6" as="geometry" />
        </mxCell>
        <mxCell id="8gRQs5-1PO1u6uqCk4zV-43" value="&lt;span style=&quot;font-size: 6px;&quot;&gt;16 Kbps&lt;/span&gt;" style="text;html=1;align=center;verticalAlign=middle;whiteSpace=wrap;rounded=0;" vertex="1" parent="1">
          <mxGeometry x="105" y="33" width="32" height="6" as="geometry" />
        </mxCell>
        <mxCell id="8gRQs5-1PO1u6uqCk4zV-44" value="&lt;span style=&quot;font-size: 6px;&quot;&gt;16 Kbps&lt;/span&gt;" style="text;html=1;align=center;verticalAlign=middle;whiteSpace=wrap;rounded=0;" vertex="1" parent="1">
          <mxGeometry x="105" y="48" width="32" height="6" as="geometry" />
        </mxCell>
        <mxCell id="8gRQs5-1PO1u6uqCk4zV-45" value="&lt;span style=&quot;font-size: 6px;&quot;&gt;16 Kbps&lt;/span&gt;" style="text;html=1;align=center;verticalAlign=middle;whiteSpace=wrap;rounded=0;" vertex="1" parent="1">
          <mxGeometry x="105" y="65" width="32" height="6" as="geometry" />
        </mxCell>
        <mxCell id="8gRQs5-1PO1u6uqCk4zV-46" value="&lt;span style=&quot;font-size: 6px;&quot;&gt;16 Kbps&lt;/span&gt;" style="text;html=1;align=center;verticalAlign=middle;whiteSpace=wrap;rounded=0;" vertex="1" parent="1">
          <mxGeometry x="105" y="81" width="32" height="6" as="geometry" />
        </mxCell>
        <mxCell id="8gRQs5-1PO1u6uqCk4zV-47" value="&lt;span style=&quot;font-size: 6px;&quot;&gt;16 Kbps&lt;/span&gt;" style="text;html=1;align=center;verticalAlign=middle;whiteSpace=wrap;rounded=0;" vertex="1" parent="1">
          <mxGeometry x="105" y="96" width="32" height="6" as="geometry" />
        </mxCell>
        <mxCell id="8gRQs5-1PO1u6uqCk4zV-48" value="&lt;span style=&quot;font-size: 6px;&quot;&gt;16 Kbps&lt;/span&gt;" style="text;html=1;align=center;verticalAlign=middle;whiteSpace=wrap;rounded=0;" vertex="1" parent="1">
          <mxGeometry x="105" y="111" width="32" height="6" as="geometry" />
        </mxCell>
        <mxCell id="8gRQs5-1PO1u6uqCk4zV-49" value="&lt;span style=&quot;font-size: 6px;&quot;&gt;16 Kbps&lt;/span&gt;" style="text;html=1;align=center;verticalAlign=middle;whiteSpace=wrap;rounded=0;" vertex="1" parent="1">
          <mxGeometry x="105" y="127" width="32" height="6" as="geometry" />
        </mxCell>
        <mxCell id="8gRQs5-1PO1u6uqCk4zV-50" value="&lt;span style=&quot;font-size: 6px;&quot;&gt;128 Kbps&lt;/span&gt;" style="text;html=1;align=center;verticalAlign=middle;whiteSpace=wrap;rounded=0;" vertex="1" parent="1">
          <mxGeometry x="213" y="65" width="32" height="6" as="geometry" />
        </mxCell>
        <mxCell id="8gRQs5-1PO1u6uqCk4zV-51" value="" style="shape=trapezoid;perimeter=trapezoidPerimeter;whiteSpace=wrap;html=1;fixedSize=1;rotation=90;" vertex="1" parent="1">
          <mxGeometry x="123" y="306" width="120" height="60" as="geometry" />
        </mxCell>
        <mxCell id="8gRQs5-1PO1u6uqCk4zV-52" style="edgeStyle=orthogonalEdgeStyle;rounded=0;orthogonalLoop=1;jettySize=auto;html=1;entryX=0;entryY=0.5;entryDx=0;entryDy=0;endArrow=none;endFill=0;" edge="1" parent="1" source="8gRQs5-1PO1u6uqCk4zV-53" target="8gRQs5-1PO1u6uqCk4zV-63">
          <mxGeometry relative="1" as="geometry" />
        </mxCell>
        <mxCell id="8gRQs5-1PO1u6uqCk4zV-53" value="Mux" style="text;html=1;align=center;verticalAlign=middle;whiteSpace=wrap;rounded=0;" vertex="1" parent="1">
          <mxGeometry x="153" y="321" width="60" height="30" as="geometry" />
        </mxCell>
        <mxCell id="8gRQs5-1PO1u6uqCk4zV-56" value="" style="endArrow=none;html=1;rounded=0;" edge="1" parent="1">
          <mxGeometry width="50" height="50" relative="1" as="geometry">
            <mxPoint x="141" y="389.88" as="sourcePoint" />
            <mxPoint x="153" y="389.88" as="targetPoint" />
          </mxGeometry>
        </mxCell>
        <mxCell id="8gRQs5-1PO1u6uqCk4zV-61" value="" style="endArrow=none;html=1;rounded=0;" edge="1" parent="1">
          <mxGeometry width="50" height="50" relative="1" as="geometry">
            <mxPoint x="141" y="281.88" as="sourcePoint" />
            <mxPoint x="153" y="281.88" as="targetPoint" />
          </mxGeometry>
        </mxCell>
        <mxCell id="8gRQs5-1PO1u6uqCk4zV-62" value="" style="shape=trapezoid;perimeter=trapezoidPerimeter;whiteSpace=wrap;html=1;fixedSize=1;rotation=-90;" vertex="1" parent="1">
          <mxGeometry x="393" y="309" width="120" height="60" as="geometry" />
        </mxCell>
        <mxCell id="8gRQs5-1PO1u6uqCk4zV-63" value="Demux" style="text;html=1;align=center;verticalAlign=middle;whiteSpace=wrap;rounded=0;" vertex="1" parent="1">
          <mxGeometry x="423" y="321" width="60" height="30" as="geometry" />
        </mxCell>
        <mxCell id="8gRQs5-1PO1u6uqCk4zV-66" value="" style="endArrow=none;html=1;rounded=0;" edge="1" parent="1">
          <mxGeometry width="50" height="50" relative="1" as="geometry">
            <mxPoint x="483" y="393" as="sourcePoint" />
            <mxPoint x="495" y="393" as="targetPoint" />
          </mxGeometry>
        </mxCell>
        <mxCell id="8gRQs5-1PO1u6uqCk4zV-71" value="" style="endArrow=none;html=1;rounded=0;" edge="1" parent="1">
          <mxGeometry width="50" height="50" relative="1" as="geometry">
            <mxPoint x="483" y="285" as="sourcePoint" />
            <mxPoint x="495" y="285" as="targetPoint" />
          </mxGeometry>
        </mxCell>
        <mxCell id="8gRQs5-1PO1u6uqCk4zV-72" value="" style="shape=flexArrow;endArrow=classic;html=1;rounded=0;width=6.4;endSize=6.904000000000001;endWidth=11.040000000000001;" edge="1" parent="1">
          <mxGeometry width="50" height="50" relative="1" as="geometry">
            <mxPoint x="281" y="312" as="sourcePoint" />
            <mxPoint x="353" y="312" as="targetPoint" />
          </mxGeometry>
        </mxCell>
        <mxCell id="8gRQs5-1PO1u6uqCk4zV-73" value="1" style="rounded=0;whiteSpace=wrap;html=1;" vertex="1" parent="1">
          <mxGeometry x="197" y="446" width="29" height="29" as="geometry" />
        </mxCell>
        <mxCell id="8gRQs5-1PO1u6uqCk4zV-74" value="2" style="rounded=0;whiteSpace=wrap;html=1;" vertex="1" parent="1">
          <mxGeometry x="226" y="446" width="29" height="29" as="geometry" />
        </mxCell>
        <mxCell id="8gRQs5-1PO1u6uqCk4zV-75" value="3" style="rounded=0;whiteSpace=wrap;html=1;" vertex="1" parent="1">
          <mxGeometry x="255" y="446" width="29" height="29" as="geometry" />
        </mxCell>
        <mxCell id="8gRQs5-1PO1u6uqCk4zV-76" value="4" style="rounded=0;whiteSpace=wrap;html=1;" vertex="1" parent="1">
          <mxGeometry x="284" y="446" width="29" height="29" as="geometry" />
        </mxCell>
        <mxCell id="8gRQs5-1PO1u6uqCk4zV-77" value="5" style="rounded=0;whiteSpace=wrap;html=1;" vertex="1" parent="1">
          <mxGeometry x="313" y="446" width="28" height="29" as="geometry" />
        </mxCell>
        <mxCell id="8gRQs5-1PO1u6uqCk4zV-78" value="6" style="rounded=0;whiteSpace=wrap;html=1;" vertex="1" parent="1">
          <mxGeometry x="341" y="446" width="29" height="29" as="geometry" />
        </mxCell>
        <mxCell id="8gRQs5-1PO1u6uqCk4zV-79" value="..." style="rounded=0;whiteSpace=wrap;html=1;" vertex="1" parent="1">
          <mxGeometry x="370" y="446" width="29" height="29" as="geometry" />
        </mxCell>
        <mxCell id="8gRQs5-1PO1u6uqCk4zV-80" value="64" style="rounded=0;whiteSpace=wrap;html=1;" vertex="1" parent="1">
          <mxGeometry x="399" y="446" width="29" height="29" as="geometry" />
        </mxCell>
        <mxCell id="8gRQs5-1PO1u6uqCk4zV-81" value="" style="endArrow=none;html=1;rounded=0;" edge="1" parent="1">
          <mxGeometry width="50" height="50" relative="1" as="geometry">
            <mxPoint x="197" y="437" as="sourcePoint" />
            <mxPoint x="428" y="437" as="targetPoint" />
          </mxGeometry>
        </mxCell>
        <mxCell id="8gRQs5-1PO1u6uqCk4zV-82" value="" style="endArrow=none;html=1;rounded=0;" edge="1" parent="1">
          <mxGeometry width="50" height="50" relative="1" as="geometry">
            <mxPoint x="197" y="440" as="sourcePoint" />
            <mxPoint x="197" y="434" as="targetPoint" />
          </mxGeometry>
        </mxCell>
        <mxCell id="8gRQs5-1PO1u6uqCk4zV-83" value="" style="endArrow=none;html=1;rounded=0;" edge="1" parent="1">
          <mxGeometry width="50" height="50" relative="1" as="geometry">
            <mxPoint x="428" y="440" as="sourcePoint" />
            <mxPoint x="428" y="434" as="targetPoint" />
          </mxGeometry>
        </mxCell>
        <mxCell id="8gRQs5-1PO1u6uqCk4zV-84" value="" style="endArrow=none;html=1;rounded=0;" edge="1" parent="1">
          <mxGeometry width="50" height="50" relative="1" as="geometry">
            <mxPoint x="197.13422818791946" y="483" as="sourcePoint" />
            <mxPoint x="225.95" y="483" as="targetPoint" />
          </mxGeometry>
        </mxCell>
        <mxCell id="8gRQs5-1PO1u6uqCk4zV-85" value="" style="endArrow=none;html=1;rounded=0;" edge="1" parent="1">
          <mxGeometry width="50" height="50" relative="1" as="geometry">
            <mxPoint x="197.05" y="486" as="sourcePoint" />
            <mxPoint x="197" y="480" as="targetPoint" />
          </mxGeometry>
        </mxCell>
        <mxCell id="8gRQs5-1PO1u6uqCk4zV-86" value="" style="endArrow=none;html=1;rounded=0;" edge="1" parent="1">
          <mxGeometry width="50" height="50" relative="1" as="geometry">
            <mxPoint x="225.95" y="486" as="sourcePoint" />
            <mxPoint x="225.95" y="480" as="targetPoint" />
          </mxGeometry>
        </mxCell>
        <mxCell id="8gRQs5-1PO1u6uqCk4zV-87" value="&lt;font style=&quot;font-size: 6px;&quot;&gt;124.9&amp;nbsp;x 10&lt;/font&gt;&lt;font style=&quot;font-size: 6px;&quot;&gt;ˆ&lt;/font&gt;&lt;font style=&quot;font-size: 6px;&quot;&gt;(-6)&amp;nbsp;&lt;/font&gt;&lt;font&gt;&lt;span style=&quot;font-size: 6px;&quot;&gt;seg&lt;/span&gt;&lt;/font&gt;" style="text;html=1;align=center;verticalAlign=middle;whiteSpace=wrap;rounded=0;" vertex="1" parent="1">
          <mxGeometry x="286" y="421" width="55" height="11" as="geometry" />
        </mxCell>
        <mxCell id="8gRQs5-1PO1u6uqCk4zV-88" value="&lt;font style=&quot;font-size: 6px;&quot;&gt;&amp;nbsp;1.9 x 10&lt;/font&gt;&lt;font style=&quot;font-size: 6px;&quot;&gt;ˆ&lt;/font&gt;&lt;font style=&quot;font-size: 6px;&quot;&gt;(-6)&amp;nbsp;&lt;/font&gt;&lt;font&gt;&lt;span style=&quot;font-size: 6px;&quot;&gt;seg&lt;/span&gt;&lt;/font&gt;" style="text;html=1;align=center;verticalAlign=middle;whiteSpace=wrap;rounded=0;" vertex="1" parent="1">
          <mxGeometry x="184" y="485" width="55" height="11" as="geometry" />
        </mxCell>
        <mxCell id="8gRQs5-1PO1u6uqCk4zV-89" value="&lt;span style=&quot;font-size: 6px;&quot;&gt;8 Kbps&lt;/span&gt;" style="text;html=1;align=center;verticalAlign=middle;whiteSpace=wrap;rounded=0;" vertex="1" parent="1">
          <mxGeometry x="108" y="275" width="32" height="6" as="geometry" />
        </mxCell>
        <mxCell id="8gRQs5-1PO1u6uqCk4zV-96" value="&lt;span style=&quot;font-size: 6px;&quot;&gt;8 Kbps&lt;/span&gt;" style="text;html=1;align=center;verticalAlign=middle;whiteSpace=wrap;rounded=0;" vertex="1" parent="1">
          <mxGeometry x="108" y="385" width="32" height="6" as="geometry" />
        </mxCell>
        <mxCell id="8gRQs5-1PO1u6uqCk4zV-97" value="&lt;span style=&quot;font-size: 6px;&quot;&gt;512 Kbps&lt;/span&gt;" style="text;html=1;align=center;verticalAlign=middle;whiteSpace=wrap;rounded=0;" vertex="1" parent="1">
          <mxGeometry x="216" y="323" width="32" height="6" as="geometry" />
        </mxCell>
        <mxCell id="8gRQs5-1PO1u6uqCk4zV-99" value=".&lt;div&gt;.&lt;/div&gt;&lt;div&gt;.&lt;/div&gt;" style="text;html=1;align=center;verticalAlign=middle;whiteSpace=wrap;rounded=0;" vertex="1" parent="1">
          <mxGeometry x="115" y="316" width="60" height="30" as="geometry" />
        </mxCell>
        <mxCell id="8gRQs5-1PO1u6uqCk4zV-100" value="&lt;font style=&quot;font-size: 8px;&quot;&gt;64 Entradas&lt;/font&gt;" style="text;html=1;align=center;verticalAlign=middle;whiteSpace=wrap;rounded=0;" vertex="1" parent="1">
          <mxGeometry x="82" y="329" width="61" height="6" as="geometry" />
        </mxCell>
        <mxCell id="8gRQs5-1PO1u6uqCk4zV-102" value=".&lt;div&gt;.&lt;/div&gt;&lt;div&gt;.&lt;/div&gt;" style="text;html=1;align=center;verticalAlign=middle;whiteSpace=wrap;rounded=0;" vertex="1" parent="1">
          <mxGeometry x="460" y="317" width="60" height="30" as="geometry" />
        </mxCell>
        <mxCell id="8gRQs5-1PO1u6uqCk4zV-103" value="&lt;font style=&quot;font-size: 8px;&quot;&gt;64 Entradas&lt;/font&gt;" style="text;html=1;align=center;verticalAlign=middle;whiteSpace=wrap;rounded=0;" vertex="1" parent="1">
          <mxGeometry x="493" y="329" width="61" height="6" as="geometry" />
        </mxCell>
        <mxCell id="8gRQs5-1PO1u6uqCk4zV-105" value="" style="shape=trapezoid;perimeter=trapezoidPerimeter;whiteSpace=wrap;html=1;fixedSize=1;rotation=90;" vertex="1" parent="1">
          <mxGeometry x="123" y="570" width="120" height="60" as="geometry" />
        </mxCell>
        <mxCell id="8gRQs5-1PO1u6uqCk4zV-106" style="edgeStyle=orthogonalEdgeStyle;rounded=0;orthogonalLoop=1;jettySize=auto;html=1;entryX=0;entryY=0.5;entryDx=0;entryDy=0;endArrow=none;endFill=0;" edge="1" parent="1" source="8gRQs5-1PO1u6uqCk4zV-107" target="8gRQs5-1PO1u6uqCk4zV-117">
          <mxGeometry relative="1" as="geometry" />
        </mxCell>
        <mxCell id="8gRQs5-1PO1u6uqCk4zV-107" value="Mux" style="text;html=1;align=center;verticalAlign=middle;whiteSpace=wrap;rounded=0;" vertex="1" parent="1">
          <mxGeometry x="153" y="585" width="60" height="30" as="geometry" />
        </mxCell>
        <mxCell id="8gRQs5-1PO1u6uqCk4zV-108" value="" style="endArrow=none;html=1;rounded=0;" edge="1" parent="1">
          <mxGeometry width="50" height="50" relative="1" as="geometry">
            <mxPoint x="141" y="616.88" as="sourcePoint" />
            <mxPoint x="153" y="616.88" as="targetPoint" />
          </mxGeometry>
        </mxCell>
        <mxCell id="8gRQs5-1PO1u6uqCk4zV-111" value="" style="endArrow=none;html=1;rounded=0;" edge="1" parent="1">
          <mxGeometry width="50" height="50" relative="1" as="geometry">
            <mxPoint x="141" y="646.88" as="sourcePoint" />
            <mxPoint x="153" y="646.88" as="targetPoint" />
          </mxGeometry>
        </mxCell>
        <mxCell id="8gRQs5-1PO1u6uqCk4zV-114" value="" style="endArrow=none;html=1;rounded=0;" edge="1" parent="1">
          <mxGeometry width="50" height="50" relative="1" as="geometry">
            <mxPoint x="141" y="584.88" as="sourcePoint" />
            <mxPoint x="153" y="584.88" as="targetPoint" />
          </mxGeometry>
        </mxCell>
        <mxCell id="8gRQs5-1PO1u6uqCk4zV-115" value="" style="endArrow=none;html=1;rounded=0;" edge="1" parent="1">
          <mxGeometry width="50" height="50" relative="1" as="geometry">
            <mxPoint x="141" y="553.88" as="sourcePoint" />
            <mxPoint x="153" y="553.88" as="targetPoint" />
          </mxGeometry>
        </mxCell>
        <mxCell id="8gRQs5-1PO1u6uqCk4zV-116" value="" style="shape=trapezoid;perimeter=trapezoidPerimeter;whiteSpace=wrap;html=1;fixedSize=1;rotation=-90;" vertex="1" parent="1">
          <mxGeometry x="393" y="573" width="120" height="60" as="geometry" />
        </mxCell>
        <mxCell id="8gRQs5-1PO1u6uqCk4zV-117" value="Demux" style="text;html=1;align=center;verticalAlign=middle;whiteSpace=wrap;rounded=0;" vertex="1" parent="1">
          <mxGeometry x="423" y="585" width="60" height="30" as="geometry" />
        </mxCell>
        <mxCell id="8gRQs5-1PO1u6uqCk4zV-118" value="" style="endArrow=none;html=1;rounded=0;" edge="1" parent="1">
          <mxGeometry width="50" height="50" relative="1" as="geometry">
            <mxPoint x="483" y="619.4" as="sourcePoint" />
            <mxPoint x="495" y="619.4" as="targetPoint" />
          </mxGeometry>
        </mxCell>
        <mxCell id="8gRQs5-1PO1u6uqCk4zV-121" value="" style="endArrow=none;html=1;rounded=0;" edge="1" parent="1">
          <mxGeometry width="50" height="50" relative="1" as="geometry">
            <mxPoint x="483" y="649.4" as="sourcePoint" />
            <mxPoint x="495" y="649.4" as="targetPoint" />
          </mxGeometry>
        </mxCell>
        <mxCell id="8gRQs5-1PO1u6uqCk4zV-124" value="" style="endArrow=none;html=1;rounded=0;" edge="1" parent="1">
          <mxGeometry width="50" height="50" relative="1" as="geometry">
            <mxPoint x="483" y="587.4" as="sourcePoint" />
            <mxPoint x="495" y="587.4" as="targetPoint" />
          </mxGeometry>
        </mxCell>
        <mxCell id="8gRQs5-1PO1u6uqCk4zV-125" value="" style="endArrow=none;html=1;rounded=0;" edge="1" parent="1">
          <mxGeometry width="50" height="50" relative="1" as="geometry">
            <mxPoint x="483" y="556.4" as="sourcePoint" />
            <mxPoint x="495" y="556.4" as="targetPoint" />
          </mxGeometry>
        </mxCell>
        <mxCell id="8gRQs5-1PO1u6uqCk4zV-126" value="" style="shape=flexArrow;endArrow=classic;html=1;rounded=0;width=6.4;endSize=6.904000000000001;endWidth=11.040000000000001;" edge="1" parent="1">
          <mxGeometry width="50" height="50" relative="1" as="geometry">
            <mxPoint x="281" y="576" as="sourcePoint" />
            <mxPoint x="353" y="576" as="targetPoint" />
          </mxGeometry>
        </mxCell>
        <mxCell id="8gRQs5-1PO1u6uqCk4zV-127" value="0" style="rounded=0;whiteSpace=wrap;html=1;" vertex="1" parent="1">
          <mxGeometry x="573" y="708" width="59" height="29" as="geometry" />
        </mxCell>
        <mxCell id="8gRQs5-1PO1u6uqCk4zV-129" value="0" style="rounded=0;whiteSpace=wrap;html=1;" vertex="1" parent="1">
          <mxGeometry x="631" y="708" width="58" height="29" as="geometry" />
        </mxCell>
        <mxCell id="8gRQs5-1PO1u6uqCk4zV-131" value="0" style="rounded=0;whiteSpace=wrap;html=1;" vertex="1" parent="1">
          <mxGeometry x="689" y="708" width="57" height="29" as="geometry" />
        </mxCell>
        <mxCell id="8gRQs5-1PO1u6uqCk4zV-133" value="0" style="rounded=0;whiteSpace=wrap;html=1;" vertex="1" parent="1">
          <mxGeometry x="746" y="708" width="57" height="29" as="geometry" />
        </mxCell>
        <mxCell id="8gRQs5-1PO1u6uqCk4zV-135" value="" style="endArrow=none;html=1;rounded=0;" edge="1" parent="1">
          <mxGeometry width="50" height="50" relative="1" as="geometry">
            <mxPoint x="573" y="699" as="sourcePoint" />
            <mxPoint x="804" y="699" as="targetPoint" />
          </mxGeometry>
        </mxCell>
        <mxCell id="8gRQs5-1PO1u6uqCk4zV-136" value="" style="endArrow=none;html=1;rounded=0;" edge="1" parent="1">
          <mxGeometry width="50" height="50" relative="1" as="geometry">
            <mxPoint x="573" y="702" as="sourcePoint" />
            <mxPoint x="573" y="696" as="targetPoint" />
          </mxGeometry>
        </mxCell>
        <mxCell id="8gRQs5-1PO1u6uqCk4zV-137" value="" style="endArrow=none;html=1;rounded=0;" edge="1" parent="1">
          <mxGeometry width="50" height="50" relative="1" as="geometry">
            <mxPoint x="804" y="702" as="sourcePoint" />
            <mxPoint x="804" y="696" as="targetPoint" />
          </mxGeometry>
        </mxCell>
        <mxCell id="8gRQs5-1PO1u6uqCk4zV-138" value="" style="endArrow=none;html=1;rounded=0;" edge="1" parent="1">
          <mxGeometry width="50" height="50" relative="1" as="geometry">
            <mxPoint x="573.0042281879195" y="744" as="sourcePoint" />
            <mxPoint x="631" y="744" as="targetPoint" />
          </mxGeometry>
        </mxCell>
        <mxCell id="8gRQs5-1PO1u6uqCk4zV-139" value="" style="endArrow=none;html=1;rounded=0;" edge="1" parent="1">
          <mxGeometry width="50" height="50" relative="1" as="geometry">
            <mxPoint x="573.05" y="747" as="sourcePoint" />
            <mxPoint x="573" y="741" as="targetPoint" />
          </mxGeometry>
        </mxCell>
        <mxCell id="8gRQs5-1PO1u6uqCk4zV-140" value="" style="endArrow=none;html=1;rounded=0;" edge="1" parent="1">
          <mxGeometry width="50" height="50" relative="1" as="geometry">
            <mxPoint x="630.92" y="747" as="sourcePoint" />
            <mxPoint x="630.97" y="741" as="targetPoint" />
          </mxGeometry>
        </mxCell>
        <mxCell id="8gRQs5-1PO1u6uqCk4zV-141" value="&lt;font style=&quot;font-size: 6px;&quot;&gt;104.16 x 10&lt;/font&gt;&lt;font style=&quot;font-size: 6px;&quot;&gt;ˆ&lt;/font&gt;&lt;font style=&quot;font-size: 6px;&quot;&gt;(-6)&amp;nbsp;&lt;/font&gt;&lt;font&gt;&lt;span style=&quot;font-size: 6px;&quot;&gt;seg&lt;/span&gt;&lt;/font&gt;" style="text;html=1;align=center;verticalAlign=middle;whiteSpace=wrap;rounded=0;" vertex="1" parent="1">
          <mxGeometry x="662" y="683" width="62" height="11" as="geometry" />
        </mxCell>
        <mxCell id="8gRQs5-1PO1u6uqCk4zV-142" value="&lt;font style=&quot;font-size: 6px;&quot;&gt;&amp;nbsp;26.04 x 10&lt;/font&gt;&lt;font style=&quot;font-size: 6px;&quot;&gt;ˆ&lt;/font&gt;&lt;font style=&quot;font-size: 6px;&quot;&gt;(-6)&amp;nbsp;&lt;/font&gt;&lt;font&gt;&lt;span style=&quot;font-size: 6px;&quot;&gt;seg&lt;/span&gt;&lt;/font&gt;" style="text;html=1;align=center;verticalAlign=middle;whiteSpace=wrap;rounded=0;" vertex="1" parent="1">
          <mxGeometry x="573" y="745" width="55" height="11" as="geometry" />
        </mxCell>
        <mxCell id="8gRQs5-1PO1u6uqCk4zV-143" value="&lt;span style=&quot;font-size: 6px;&quot;&gt;9600 bps&lt;/span&gt;" style="text;html=1;align=center;verticalAlign=middle;whiteSpace=wrap;rounded=0;" vertex="1" parent="1">
          <mxGeometry x="108" y="547" width="32" height="6" as="geometry" />
        </mxCell>
        <mxCell id="8gRQs5-1PO1u6uqCk4zV-145" value="&lt;span style=&quot;font-size: 6px;&quot;&gt;4800 bps&lt;/span&gt;" style="text;html=1;align=center;verticalAlign=middle;whiteSpace=wrap;rounded=0;" vertex="1" parent="1">
          <mxGeometry x="108" y="578" width="32" height="6" as="geometry" />
        </mxCell>
        <mxCell id="8gRQs5-1PO1u6uqCk4zV-147" value="&lt;span style=&quot;font-size: 6px;&quot;&gt;4800 bps&lt;/span&gt;" style="text;html=1;align=center;verticalAlign=middle;whiteSpace=wrap;rounded=0;" vertex="1" parent="1">
          <mxGeometry x="108" y="611" width="32" height="6" as="geometry" />
        </mxCell>
        <mxCell id="8gRQs5-1PO1u6uqCk4zV-149" value="&lt;span style=&quot;font-size: 6px;&quot;&gt;9600 bps&lt;/span&gt;" style="text;html=1;align=center;verticalAlign=middle;whiteSpace=wrap;rounded=0;" vertex="1" parent="1">
          <mxGeometry x="108" y="641" width="32" height="6" as="geometry" />
        </mxCell>
        <mxCell id="8gRQs5-1PO1u6uqCk4zV-151" value="&lt;span style=&quot;font-size: 6px;&quot;&gt;38400 bps&lt;/span&gt;" style="text;html=1;align=center;verticalAlign=middle;whiteSpace=wrap;rounded=0;" vertex="1" parent="1">
          <mxGeometry x="216" y="587" width="32" height="6" as="geometry" />
        </mxCell>
        <mxCell id="8gRQs5-1PO1u6uqCk4zV-153" value="" style="endArrow=none;html=1;rounded=0;" edge="1" parent="1">
          <mxGeometry width="50" height="50" relative="1" as="geometry">
            <mxPoint x="616" y="658" as="sourcePoint" />
            <mxPoint x="657" y="658" as="targetPoint" />
            <Array as="points">
              <mxPoint x="636" y="658" />
              <mxPoint x="636" y="639" />
              <mxPoint x="657" y="639" />
            </Array>
          </mxGeometry>
        </mxCell>
        <mxCell id="8gRQs5-1PO1u6uqCk4zV-155" value="" style="endArrow=none;html=1;rounded=0;" edge="1" parent="1">
          <mxGeometry width="50" height="50" relative="1" as="geometry">
            <mxPoint x="657" y="658" as="sourcePoint" />
            <mxPoint x="698" y="658" as="targetPoint" />
            <Array as="points">
              <mxPoint x="677" y="658" />
              <mxPoint x="677" y="639" />
              <mxPoint x="698" y="639" />
            </Array>
          </mxGeometry>
        </mxCell>
        <mxCell id="8gRQs5-1PO1u6uqCk4zV-156" value="" style="endArrow=none;html=1;rounded=0;" edge="1" parent="1">
          <mxGeometry width="50" height="50" relative="1" as="geometry">
            <mxPoint x="698" y="658" as="sourcePoint" />
            <mxPoint x="739" y="658" as="targetPoint" />
            <Array as="points">
              <mxPoint x="718" y="658" />
              <mxPoint x="718" y="639" />
              <mxPoint x="739" y="639" />
            </Array>
          </mxGeometry>
        </mxCell>
        <mxCell id="8gRQs5-1PO1u6uqCk4zV-157" value="" style="endArrow=none;html=1;rounded=0;" edge="1" parent="1">
          <mxGeometry width="50" height="50" relative="1" as="geometry">
            <mxPoint x="739" y="658" as="sourcePoint" />
            <mxPoint x="780" y="658" as="targetPoint" />
            <Array as="points">
              <mxPoint x="759" y="658" />
              <mxPoint x="759" y="639" />
              <mxPoint x="780" y="639" />
            </Array>
          </mxGeometry>
        </mxCell>
        <mxCell id="8gRQs5-1PO1u6uqCk4zV-158" value="" style="endArrow=none;html=1;rounded=0;" edge="1" parent="1">
          <mxGeometry width="50" height="50" relative="1" as="geometry">
            <mxPoint x="616" y="634" as="sourcePoint" />
            <mxPoint x="657" y="634" as="targetPoint" />
            <Array as="points">
              <mxPoint x="636" y="634" />
            </Array>
          </mxGeometry>
        </mxCell>
        <mxCell id="8gRQs5-1PO1u6uqCk4zV-159" value="" style="endArrow=none;html=1;rounded=0;" edge="1" parent="1">
          <mxGeometry width="50" height="50" relative="1" as="geometry">
            <mxPoint x="657" y="634" as="sourcePoint" />
            <mxPoint x="698" y="634" as="targetPoint" />
            <Array as="points">
              <mxPoint x="657" y="615" />
              <mxPoint x="677" y="615" />
              <mxPoint x="698" y="615" />
            </Array>
          </mxGeometry>
        </mxCell>
        <mxCell id="8gRQs5-1PO1u6uqCk4zV-160" value="" style="endArrow=none;html=1;rounded=0;" edge="1" parent="1">
          <mxGeometry width="50" height="50" relative="1" as="geometry">
            <mxPoint x="698" y="634" as="sourcePoint" />
            <mxPoint x="739" y="634" as="targetPoint" />
            <Array as="points">
              <mxPoint x="718" y="634" />
            </Array>
          </mxGeometry>
        </mxCell>
        <mxCell id="8gRQs5-1PO1u6uqCk4zV-161" value="" style="endArrow=none;html=1;rounded=0;" edge="1" parent="1">
          <mxGeometry width="50" height="50" relative="1" as="geometry">
            <mxPoint x="739" y="634" as="sourcePoint" />
            <mxPoint x="780" y="634" as="targetPoint" />
            <Array as="points">
              <mxPoint x="739" y="615" />
              <mxPoint x="759" y="615" />
              <mxPoint x="780" y="615" />
            </Array>
          </mxGeometry>
        </mxCell>
        <mxCell id="8gRQs5-1PO1u6uqCk4zV-162" value="" style="endArrow=none;html=1;rounded=0;" edge="1" parent="1">
          <mxGeometry width="50" height="50" relative="1" as="geometry">
            <mxPoint x="616" y="609.36" as="sourcePoint" />
            <mxPoint x="657" y="609.36" as="targetPoint" />
            <Array as="points">
              <mxPoint x="636" y="609.36" />
            </Array>
          </mxGeometry>
        </mxCell>
        <mxCell id="8gRQs5-1PO1u6uqCk4zV-163" value="" style="endArrow=none;html=1;rounded=0;" edge="1" parent="1">
          <mxGeometry width="50" height="50" relative="1" as="geometry">
            <mxPoint x="657" y="609.36" as="sourcePoint" />
            <mxPoint x="698" y="609.36" as="targetPoint" />
            <Array as="points">
              <mxPoint x="657" y="590.36" />
              <mxPoint x="677" y="590.36" />
              <mxPoint x="698" y="590.36" />
            </Array>
          </mxGeometry>
        </mxCell>
        <mxCell id="8gRQs5-1PO1u6uqCk4zV-164" value="" style="endArrow=none;html=1;rounded=0;" edge="1" parent="1">
          <mxGeometry width="50" height="50" relative="1" as="geometry">
            <mxPoint x="698" y="609.36" as="sourcePoint" />
            <mxPoint x="739" y="609.36" as="targetPoint" />
            <Array as="points">
              <mxPoint x="718" y="609.36" />
            </Array>
          </mxGeometry>
        </mxCell>
        <mxCell id="8gRQs5-1PO1u6uqCk4zV-165" value="" style="endArrow=none;html=1;rounded=0;" edge="1" parent="1">
          <mxGeometry width="50" height="50" relative="1" as="geometry">
            <mxPoint x="739" y="609.36" as="sourcePoint" />
            <mxPoint x="780" y="609.36" as="targetPoint" />
            <Array as="points">
              <mxPoint x="739" y="590.36" />
              <mxPoint x="759" y="590.36" />
              <mxPoint x="780" y="590.36" />
            </Array>
          </mxGeometry>
        </mxCell>
        <mxCell id="8gRQs5-1PO1u6uqCk4zV-166" value="" style="endArrow=none;html=1;rounded=0;" edge="1" parent="1">
          <mxGeometry width="50" height="50" relative="1" as="geometry">
            <mxPoint x="616" y="585" as="sourcePoint" />
            <mxPoint x="657" y="585" as="targetPoint" />
            <Array as="points">
              <mxPoint x="636" y="585" />
              <mxPoint x="636" y="566" />
              <mxPoint x="657" y="566" />
            </Array>
          </mxGeometry>
        </mxCell>
        <mxCell id="8gRQs5-1PO1u6uqCk4zV-167" value="" style="endArrow=none;html=1;rounded=0;" edge="1" parent="1">
          <mxGeometry width="50" height="50" relative="1" as="geometry">
            <mxPoint x="657" y="585" as="sourcePoint" />
            <mxPoint x="698" y="585" as="targetPoint" />
            <Array as="points">
              <mxPoint x="677" y="585" />
              <mxPoint x="677" y="566" />
              <mxPoint x="698" y="566" />
            </Array>
          </mxGeometry>
        </mxCell>
        <mxCell id="8gRQs5-1PO1u6uqCk4zV-168" value="" style="endArrow=none;html=1;rounded=0;" edge="1" parent="1">
          <mxGeometry width="50" height="50" relative="1" as="geometry">
            <mxPoint x="698" y="585" as="sourcePoint" />
            <mxPoint x="739" y="585" as="targetPoint" />
            <Array as="points">
              <mxPoint x="718" y="585" />
              <mxPoint x="718" y="566" />
              <mxPoint x="739" y="566" />
            </Array>
          </mxGeometry>
        </mxCell>
        <mxCell id="8gRQs5-1PO1u6uqCk4zV-169" value="" style="endArrow=none;html=1;rounded=0;" edge="1" parent="1">
          <mxGeometry width="50" height="50" relative="1" as="geometry">
            <mxPoint x="739" y="585" as="sourcePoint" />
            <mxPoint x="780" y="585" as="targetPoint" />
            <Array as="points">
              <mxPoint x="759" y="585" />
              <mxPoint x="759" y="566" />
              <mxPoint x="780" y="566" />
            </Array>
          </mxGeometry>
        </mxCell>
        <mxCell id="8gRQs5-1PO1u6uqCk4zV-170" value="A" style="text;html=1;align=center;verticalAlign=middle;whiteSpace=wrap;rounded=0;" vertex="1" parent="1">
          <mxGeometry x="573" y="559" width="60" height="30" as="geometry" />
        </mxCell>
        <mxCell id="8gRQs5-1PO1u6uqCk4zV-171" value="B" style="text;html=1;align=center;verticalAlign=middle;whiteSpace=wrap;rounded=0;" vertex="1" parent="1">
          <mxGeometry x="573" y="585" width="60" height="30" as="geometry" />
        </mxCell>
        <mxCell id="8gRQs5-1PO1u6uqCk4zV-172" value="C" style="text;html=1;align=center;verticalAlign=middle;whiteSpace=wrap;rounded=0;" vertex="1" parent="1">
          <mxGeometry x="573" y="609" width="60" height="30" as="geometry" />
        </mxCell>
        <mxCell id="8gRQs5-1PO1u6uqCk4zV-173" value="D" style="text;html=1;align=center;verticalAlign=middle;whiteSpace=wrap;rounded=0;" vertex="1" parent="1">
          <mxGeometry x="573" y="633" width="60" height="30" as="geometry" />
        </mxCell>
        <mxCell id="8gRQs5-1PO1u6uqCk4zV-174" value="Trama 1" style="text;html=1;align=center;verticalAlign=middle;whiteSpace=wrap;rounded=0;" vertex="1" parent="1">
          <mxGeometry x="493" y="707" width="60" height="30" as="geometry" />
        </mxCell>
        <mxCell id="8gRQs5-1PO1u6uqCk4zV-175" value="1" style="rounded=0;whiteSpace=wrap;html=1;" vertex="1" parent="1">
          <mxGeometry x="571.31" y="781" width="59" height="29" as="geometry" />
        </mxCell>
        <mxCell id="8gRQs5-1PO1u6uqCk4zV-176" value="0" style="rounded=0;whiteSpace=wrap;html=1;" vertex="1" parent="1">
          <mxGeometry x="629.31" y="781" width="58" height="29" as="geometry" />
        </mxCell>
        <mxCell id="8gRQs5-1PO1u6uqCk4zV-177" value="0" style="rounded=0;whiteSpace=wrap;html=1;" vertex="1" parent="1">
          <mxGeometry x="687.31" y="781" width="57" height="29" as="geometry" />
        </mxCell>
        <mxCell id="8gRQs5-1PO1u6uqCk4zV-178" value="1" style="rounded=0;whiteSpace=wrap;html=1;" vertex="1" parent="1">
          <mxGeometry x="744.31" y="781" width="57" height="29" as="geometry" />
        </mxCell>
        <mxCell id="8gRQs5-1PO1u6uqCk4zV-179" value="" style="endArrow=none;html=1;rounded=0;" edge="1" parent="1">
          <mxGeometry width="50" height="50" relative="1" as="geometry">
            <mxPoint x="571.31" y="772" as="sourcePoint" />
            <mxPoint x="802.31" y="772" as="targetPoint" />
          </mxGeometry>
        </mxCell>
        <mxCell id="8gRQs5-1PO1u6uqCk4zV-180" value="" style="endArrow=none;html=1;rounded=0;" edge="1" parent="1">
          <mxGeometry width="50" height="50" relative="1" as="geometry">
            <mxPoint x="571.31" y="775" as="sourcePoint" />
            <mxPoint x="571.31" y="769" as="targetPoint" />
          </mxGeometry>
        </mxCell>
        <mxCell id="8gRQs5-1PO1u6uqCk4zV-181" value="" style="endArrow=none;html=1;rounded=0;" edge="1" parent="1">
          <mxGeometry width="50" height="50" relative="1" as="geometry">
            <mxPoint x="802.31" y="775" as="sourcePoint" />
            <mxPoint x="802.31" y="769" as="targetPoint" />
          </mxGeometry>
        </mxCell>
        <mxCell id="8gRQs5-1PO1u6uqCk4zV-182" value="" style="endArrow=none;html=1;rounded=0;" edge="1" parent="1">
          <mxGeometry width="50" height="50" relative="1" as="geometry">
            <mxPoint x="571.3142281879194" y="817" as="sourcePoint" />
            <mxPoint x="629.31" y="817" as="targetPoint" />
          </mxGeometry>
        </mxCell>
        <mxCell id="8gRQs5-1PO1u6uqCk4zV-183" value="" style="endArrow=none;html=1;rounded=0;" edge="1" parent="1">
          <mxGeometry width="50" height="50" relative="1" as="geometry">
            <mxPoint x="571.3599999999999" y="820" as="sourcePoint" />
            <mxPoint x="571.31" y="814" as="targetPoint" />
          </mxGeometry>
        </mxCell>
        <mxCell id="8gRQs5-1PO1u6uqCk4zV-184" value="" style="endArrow=none;html=1;rounded=0;" edge="1" parent="1">
          <mxGeometry width="50" height="50" relative="1" as="geometry">
            <mxPoint x="629.2299999999999" y="820" as="sourcePoint" />
            <mxPoint x="629.28" y="814" as="targetPoint" />
          </mxGeometry>
        </mxCell>
        <mxCell id="8gRQs5-1PO1u6uqCk4zV-185" value="&lt;font style=&quot;font-size: 6px;&quot;&gt;104.16 x 10&lt;/font&gt;&lt;font style=&quot;font-size: 6px;&quot;&gt;ˆ&lt;/font&gt;&lt;font style=&quot;font-size: 6px;&quot;&gt;(-6)&amp;nbsp;&lt;/font&gt;&lt;font&gt;&lt;span style=&quot;font-size: 6px;&quot;&gt;seg&lt;/span&gt;&lt;/font&gt;" style="text;html=1;align=center;verticalAlign=middle;whiteSpace=wrap;rounded=0;" vertex="1" parent="1">
          <mxGeometry x="660.31" y="756" width="62" height="11" as="geometry" />
        </mxCell>
        <mxCell id="8gRQs5-1PO1u6uqCk4zV-186" value="&lt;font style=&quot;font-size: 6px;&quot;&gt;&amp;nbsp;26.04 x 10&lt;/font&gt;&lt;font style=&quot;font-size: 6px;&quot;&gt;ˆ&lt;/font&gt;&lt;font style=&quot;font-size: 6px;&quot;&gt;(-6)&amp;nbsp;&lt;/font&gt;&lt;font&gt;&lt;span style=&quot;font-size: 6px;&quot;&gt;seg&lt;/span&gt;&lt;/font&gt;" style="text;html=1;align=center;verticalAlign=middle;whiteSpace=wrap;rounded=0;" vertex="1" parent="1">
          <mxGeometry x="571.31" y="818" width="55" height="11" as="geometry" />
        </mxCell>
        <mxCell id="8gRQs5-1PO1u6uqCk4zV-187" value="Trama 2" style="text;html=1;align=center;verticalAlign=middle;whiteSpace=wrap;rounded=0;" vertex="1" parent="1">
          <mxGeometry x="491.31" y="780" width="60" height="30" as="geometry" />
        </mxCell>
        <mxCell id="8gRQs5-1PO1u6uqCk4zV-188" value="0" style="rounded=0;whiteSpace=wrap;html=1;" vertex="1" parent="1">
          <mxGeometry x="569.62" y="854" width="59" height="29" as="geometry" />
        </mxCell>
        <mxCell id="8gRQs5-1PO1u6uqCk4zV-189" value="1" style="rounded=0;whiteSpace=wrap;html=1;" vertex="1" parent="1">
          <mxGeometry x="627.62" y="854" width="58" height="29" as="geometry" />
        </mxCell>
        <mxCell id="8gRQs5-1PO1u6uqCk4zV-190" value="1" style="rounded=0;whiteSpace=wrap;html=1;" vertex="1" parent="1">
          <mxGeometry x="685.62" y="854" width="57" height="29" as="geometry" />
        </mxCell>
        <mxCell id="8gRQs5-1PO1u6uqCk4zV-191" value="0" style="rounded=0;whiteSpace=wrap;html=1;" vertex="1" parent="1">
          <mxGeometry x="742.62" y="854" width="57" height="29" as="geometry" />
        </mxCell>
        <mxCell id="8gRQs5-1PO1u6uqCk4zV-192" value="" style="endArrow=none;html=1;rounded=0;" edge="1" parent="1">
          <mxGeometry width="50" height="50" relative="1" as="geometry">
            <mxPoint x="569.62" y="845" as="sourcePoint" />
            <mxPoint x="800.62" y="845" as="targetPoint" />
          </mxGeometry>
        </mxCell>
        <mxCell id="8gRQs5-1PO1u6uqCk4zV-193" value="" style="endArrow=none;html=1;rounded=0;" edge="1" parent="1">
          <mxGeometry width="50" height="50" relative="1" as="geometry">
            <mxPoint x="569.62" y="848" as="sourcePoint" />
            <mxPoint x="569.62" y="842" as="targetPoint" />
          </mxGeometry>
        </mxCell>
        <mxCell id="8gRQs5-1PO1u6uqCk4zV-194" value="" style="endArrow=none;html=1;rounded=0;" edge="1" parent="1">
          <mxGeometry width="50" height="50" relative="1" as="geometry">
            <mxPoint x="800.62" y="848" as="sourcePoint" />
            <mxPoint x="800.62" y="842" as="targetPoint" />
          </mxGeometry>
        </mxCell>
        <mxCell id="8gRQs5-1PO1u6uqCk4zV-195" value="" style="endArrow=none;html=1;rounded=0;" edge="1" parent="1">
          <mxGeometry width="50" height="50" relative="1" as="geometry">
            <mxPoint x="569.6242281879195" y="890" as="sourcePoint" />
            <mxPoint x="627.62" y="890" as="targetPoint" />
          </mxGeometry>
        </mxCell>
        <mxCell id="8gRQs5-1PO1u6uqCk4zV-196" value="" style="endArrow=none;html=1;rounded=0;" edge="1" parent="1">
          <mxGeometry width="50" height="50" relative="1" as="geometry">
            <mxPoint x="569.67" y="893" as="sourcePoint" />
            <mxPoint x="569.62" y="887" as="targetPoint" />
          </mxGeometry>
        </mxCell>
        <mxCell id="8gRQs5-1PO1u6uqCk4zV-197" value="" style="endArrow=none;html=1;rounded=0;" edge="1" parent="1">
          <mxGeometry width="50" height="50" relative="1" as="geometry">
            <mxPoint x="627.54" y="893" as="sourcePoint" />
            <mxPoint x="627.59" y="887" as="targetPoint" />
          </mxGeometry>
        </mxCell>
        <mxCell id="8gRQs5-1PO1u6uqCk4zV-198" value="&lt;font style=&quot;font-size: 6px;&quot;&gt;104.16 x 10&lt;/font&gt;&lt;font style=&quot;font-size: 6px;&quot;&gt;ˆ&lt;/font&gt;&lt;font style=&quot;font-size: 6px;&quot;&gt;(-6)&amp;nbsp;&lt;/font&gt;&lt;font&gt;&lt;span style=&quot;font-size: 6px;&quot;&gt;seg&lt;/span&gt;&lt;/font&gt;" style="text;html=1;align=center;verticalAlign=middle;whiteSpace=wrap;rounded=0;" vertex="1" parent="1">
          <mxGeometry x="658.62" y="829" width="62" height="11" as="geometry" />
        </mxCell>
        <mxCell id="8gRQs5-1PO1u6uqCk4zV-199" value="&lt;font style=&quot;font-size: 6px;&quot;&gt;&amp;nbsp;26.04 x 10&lt;/font&gt;&lt;font style=&quot;font-size: 6px;&quot;&gt;ˆ&lt;/font&gt;&lt;font style=&quot;font-size: 6px;&quot;&gt;(-6)&amp;nbsp;&lt;/font&gt;&lt;font&gt;&lt;span style=&quot;font-size: 6px;&quot;&gt;seg&lt;/span&gt;&lt;/font&gt;" style="text;html=1;align=center;verticalAlign=middle;whiteSpace=wrap;rounded=0;" vertex="1" parent="1">
          <mxGeometry x="569.62" y="891" width="55" height="11" as="geometry" />
        </mxCell>
        <mxCell id="8gRQs5-1PO1u6uqCk4zV-200" value="Trama 3" style="text;html=1;align=center;verticalAlign=middle;whiteSpace=wrap;rounded=0;" vertex="1" parent="1">
          <mxGeometry x="489.62" y="853" width="60" height="30" as="geometry" />
        </mxCell>
        <mxCell id="8gRQs5-1PO1u6uqCk4zV-201" value="1" style="rounded=0;whiteSpace=wrap;html=1;" vertex="1" parent="1">
          <mxGeometry x="573" y="924" width="59" height="29" as="geometry" />
        </mxCell>
        <mxCell id="8gRQs5-1PO1u6uqCk4zV-202" value="1" style="rounded=0;whiteSpace=wrap;html=1;" vertex="1" parent="1">
          <mxGeometry x="631" y="924" width="58" height="29" as="geometry" />
        </mxCell>
        <mxCell id="8gRQs5-1PO1u6uqCk4zV-203" value="1" style="rounded=0;whiteSpace=wrap;html=1;" vertex="1" parent="1">
          <mxGeometry x="689" y="924" width="57" height="29" as="geometry" />
        </mxCell>
        <mxCell id="8gRQs5-1PO1u6uqCk4zV-204" value="1" style="rounded=0;whiteSpace=wrap;html=1;" vertex="1" parent="1">
          <mxGeometry x="746" y="924" width="57" height="29" as="geometry" />
        </mxCell>
        <mxCell id="8gRQs5-1PO1u6uqCk4zV-205" value="" style="endArrow=none;html=1;rounded=0;" edge="1" parent="1">
          <mxGeometry width="50" height="50" relative="1" as="geometry">
            <mxPoint x="573" y="915" as="sourcePoint" />
            <mxPoint x="804" y="915" as="targetPoint" />
          </mxGeometry>
        </mxCell>
        <mxCell id="8gRQs5-1PO1u6uqCk4zV-206" value="" style="endArrow=none;html=1;rounded=0;" edge="1" parent="1">
          <mxGeometry width="50" height="50" relative="1" as="geometry">
            <mxPoint x="573" y="918" as="sourcePoint" />
            <mxPoint x="573" y="912" as="targetPoint" />
          </mxGeometry>
        </mxCell>
        <mxCell id="8gRQs5-1PO1u6uqCk4zV-207" value="" style="endArrow=none;html=1;rounded=0;" edge="1" parent="1">
          <mxGeometry width="50" height="50" relative="1" as="geometry">
            <mxPoint x="804" y="918" as="sourcePoint" />
            <mxPoint x="804" y="912" as="targetPoint" />
          </mxGeometry>
        </mxCell>
        <mxCell id="8gRQs5-1PO1u6uqCk4zV-208" value="" style="endArrow=none;html=1;rounded=0;" edge="1" parent="1">
          <mxGeometry width="50" height="50" relative="1" as="geometry">
            <mxPoint x="573.0042281879195" y="960" as="sourcePoint" />
            <mxPoint x="631" y="960" as="targetPoint" />
          </mxGeometry>
        </mxCell>
        <mxCell id="8gRQs5-1PO1u6uqCk4zV-209" value="" style="endArrow=none;html=1;rounded=0;" edge="1" parent="1">
          <mxGeometry width="50" height="50" relative="1" as="geometry">
            <mxPoint x="573.05" y="963" as="sourcePoint" />
            <mxPoint x="573" y="957" as="targetPoint" />
          </mxGeometry>
        </mxCell>
        <mxCell id="8gRQs5-1PO1u6uqCk4zV-210" value="" style="endArrow=none;html=1;rounded=0;" edge="1" parent="1">
          <mxGeometry width="50" height="50" relative="1" as="geometry">
            <mxPoint x="630.92" y="963" as="sourcePoint" />
            <mxPoint x="630.97" y="957" as="targetPoint" />
          </mxGeometry>
        </mxCell>
        <mxCell id="8gRQs5-1PO1u6uqCk4zV-211" value="&lt;font style=&quot;font-size: 6px;&quot;&gt;104.16 x 10&lt;/font&gt;&lt;font style=&quot;font-size: 6px;&quot;&gt;ˆ&lt;/font&gt;&lt;font style=&quot;font-size: 6px;&quot;&gt;(-6)&amp;nbsp;&lt;/font&gt;&lt;font&gt;&lt;span style=&quot;font-size: 6px;&quot;&gt;seg&lt;/span&gt;&lt;/font&gt;" style="text;html=1;align=center;verticalAlign=middle;whiteSpace=wrap;rounded=0;" vertex="1" parent="1">
          <mxGeometry x="662" y="899" width="62" height="11" as="geometry" />
        </mxCell>
        <mxCell id="8gRQs5-1PO1u6uqCk4zV-212" value="&lt;font style=&quot;font-size: 6px;&quot;&gt;&amp;nbsp;26.04 x 10&lt;/font&gt;&lt;font style=&quot;font-size: 6px;&quot;&gt;ˆ&lt;/font&gt;&lt;font style=&quot;font-size: 6px;&quot;&gt;(-6)&amp;nbsp;&lt;/font&gt;&lt;font&gt;&lt;span style=&quot;font-size: 6px;&quot;&gt;seg&lt;/span&gt;&lt;/font&gt;" style="text;html=1;align=center;verticalAlign=middle;whiteSpace=wrap;rounded=0;" vertex="1" parent="1">
          <mxGeometry x="573" y="961" width="55" height="11" as="geometry" />
        </mxCell>
        <mxCell id="8gRQs5-1PO1u6uqCk4zV-213" value="Trama 4" style="text;html=1;align=center;verticalAlign=middle;whiteSpace=wrap;rounded=0;" vertex="1" parent="1">
          <mxGeometry x="493" y="923" width="60" height="30" as="geometry" />
        </mxCell>
        <mxCell id="8gRQs5-1PO1u6uqCk4zV-214" value="" style="shape=trapezoid;perimeter=trapezoidPerimeter;whiteSpace=wrap;html=1;fixedSize=1;rotation=90;" vertex="1" parent="1">
          <mxGeometry x="120" y="1170" width="120" height="60" as="geometry" />
        </mxCell>
        <mxCell id="8gRQs5-1PO1u6uqCk4zV-215" style="edgeStyle=orthogonalEdgeStyle;rounded=0;orthogonalLoop=1;jettySize=auto;html=1;entryX=0;entryY=0.5;entryDx=0;entryDy=0;endArrow=none;endFill=0;" edge="1" parent="1" source="8gRQs5-1PO1u6uqCk4zV-216" target="8gRQs5-1PO1u6uqCk4zV-226">
          <mxGeometry relative="1" as="geometry" />
        </mxCell>
        <mxCell id="8gRQs5-1PO1u6uqCk4zV-216" value="Mux" style="text;html=1;align=center;verticalAlign=middle;whiteSpace=wrap;rounded=0;" vertex="1" parent="1">
          <mxGeometry x="150" y="1185" width="60" height="30" as="geometry" />
        </mxCell>
        <mxCell id="8gRQs5-1PO1u6uqCk4zV-217" value="" style="endArrow=none;html=1;rounded=0;" edge="1" parent="1">
          <mxGeometry width="50" height="50" relative="1" as="geometry">
            <mxPoint x="138" y="1208.88" as="sourcePoint" />
            <mxPoint x="150" y="1208.88" as="targetPoint" />
          </mxGeometry>
        </mxCell>
        <mxCell id="8gRQs5-1PO1u6uqCk4zV-218" value="" style="endArrow=none;html=1;rounded=0;" edge="1" parent="1">
          <mxGeometry width="50" height="50" relative="1" as="geometry">
            <mxPoint x="138" y="1160.88" as="sourcePoint" />
            <mxPoint x="150" y="1160.88" as="targetPoint" />
          </mxGeometry>
        </mxCell>
        <mxCell id="8gRQs5-1PO1u6uqCk4zV-219" value="" style="endArrow=none;html=1;rounded=0;" edge="1" parent="1">
          <mxGeometry width="50" height="50" relative="1" as="geometry">
            <mxPoint x="138" y="1253.88" as="sourcePoint" />
            <mxPoint x="150" y="1253.88" as="targetPoint" />
          </mxGeometry>
        </mxCell>
        <mxCell id="8gRQs5-1PO1u6uqCk4zV-220" value="" style="endArrow=none;html=1;rounded=0;" edge="1" parent="1">
          <mxGeometry width="50" height="50" relative="1" as="geometry">
            <mxPoint x="138" y="1238.88" as="sourcePoint" />
            <mxPoint x="150" y="1238.88" as="targetPoint" />
          </mxGeometry>
        </mxCell>
        <mxCell id="8gRQs5-1PO1u6uqCk4zV-221" value="" style="endArrow=none;html=1;rounded=0;" edge="1" parent="1">
          <mxGeometry width="50" height="50" relative="1" as="geometry">
            <mxPoint x="138" y="1223.88" as="sourcePoint" />
            <mxPoint x="150" y="1223.88" as="targetPoint" />
          </mxGeometry>
        </mxCell>
        <mxCell id="8gRQs5-1PO1u6uqCk4zV-222" value="" style="endArrow=none;html=1;rounded=0;" edge="1" parent="1">
          <mxGeometry width="50" height="50" relative="1" as="geometry">
            <mxPoint x="138" y="1192.88" as="sourcePoint" />
            <mxPoint x="150" y="1192.88" as="targetPoint" />
          </mxGeometry>
        </mxCell>
        <mxCell id="8gRQs5-1PO1u6uqCk4zV-223" value="" style="endArrow=none;html=1;rounded=0;" edge="1" parent="1">
          <mxGeometry width="50" height="50" relative="1" as="geometry">
            <mxPoint x="138" y="1176.88" as="sourcePoint" />
            <mxPoint x="150" y="1176.88" as="targetPoint" />
          </mxGeometry>
        </mxCell>
        <mxCell id="8gRQs5-1PO1u6uqCk4zV-224" value="" style="endArrow=none;html=1;rounded=0;" edge="1" parent="1">
          <mxGeometry width="50" height="50" relative="1" as="geometry">
            <mxPoint x="138" y="1145.88" as="sourcePoint" />
            <mxPoint x="150" y="1145.88" as="targetPoint" />
          </mxGeometry>
        </mxCell>
        <mxCell id="8gRQs5-1PO1u6uqCk4zV-225" value="" style="shape=trapezoid;perimeter=trapezoidPerimeter;whiteSpace=wrap;html=1;fixedSize=1;rotation=-90;" vertex="1" parent="1">
          <mxGeometry x="390" y="1173" width="120" height="60" as="geometry" />
        </mxCell>
        <mxCell id="8gRQs5-1PO1u6uqCk4zV-226" value="Demux" style="text;html=1;align=center;verticalAlign=middle;whiteSpace=wrap;rounded=0;" vertex="1" parent="1">
          <mxGeometry x="420" y="1185" width="60" height="30" as="geometry" />
        </mxCell>
        <mxCell id="8gRQs5-1PO1u6uqCk4zV-227" value="" style="endArrow=none;html=1;rounded=0;" edge="1" parent="1">
          <mxGeometry width="50" height="50" relative="1" as="geometry">
            <mxPoint x="480" y="1212" as="sourcePoint" />
            <mxPoint x="492" y="1212" as="targetPoint" />
          </mxGeometry>
        </mxCell>
        <mxCell id="8gRQs5-1PO1u6uqCk4zV-228" value="" style="endArrow=none;html=1;rounded=0;" edge="1" parent="1">
          <mxGeometry width="50" height="50" relative="1" as="geometry">
            <mxPoint x="480" y="1164" as="sourcePoint" />
            <mxPoint x="492" y="1164" as="targetPoint" />
          </mxGeometry>
        </mxCell>
        <mxCell id="8gRQs5-1PO1u6uqCk4zV-229" value="" style="endArrow=none;html=1;rounded=0;" edge="1" parent="1">
          <mxGeometry width="50" height="50" relative="1" as="geometry">
            <mxPoint x="480" y="1257" as="sourcePoint" />
            <mxPoint x="492" y="1257" as="targetPoint" />
          </mxGeometry>
        </mxCell>
        <mxCell id="8gRQs5-1PO1u6uqCk4zV-230" value="" style="endArrow=none;html=1;rounded=0;" edge="1" parent="1">
          <mxGeometry width="50" height="50" relative="1" as="geometry">
            <mxPoint x="480" y="1242" as="sourcePoint" />
            <mxPoint x="492" y="1242" as="targetPoint" />
          </mxGeometry>
        </mxCell>
        <mxCell id="8gRQs5-1PO1u6uqCk4zV-231" value="" style="endArrow=none;html=1;rounded=0;" edge="1" parent="1">
          <mxGeometry width="50" height="50" relative="1" as="geometry">
            <mxPoint x="480" y="1227" as="sourcePoint" />
            <mxPoint x="492" y="1227" as="targetPoint" />
          </mxGeometry>
        </mxCell>
        <mxCell id="8gRQs5-1PO1u6uqCk4zV-232" value="" style="endArrow=none;html=1;rounded=0;" edge="1" parent="1">
          <mxGeometry width="50" height="50" relative="1" as="geometry">
            <mxPoint x="480" y="1196" as="sourcePoint" />
            <mxPoint x="492" y="1196" as="targetPoint" />
          </mxGeometry>
        </mxCell>
        <mxCell id="8gRQs5-1PO1u6uqCk4zV-233" value="" style="endArrow=none;html=1;rounded=0;" edge="1" parent="1">
          <mxGeometry width="50" height="50" relative="1" as="geometry">
            <mxPoint x="480" y="1180" as="sourcePoint" />
            <mxPoint x="492" y="1180" as="targetPoint" />
          </mxGeometry>
        </mxCell>
        <mxCell id="8gRQs5-1PO1u6uqCk4zV-234" value="" style="endArrow=none;html=1;rounded=0;" edge="1" parent="1">
          <mxGeometry width="50" height="50" relative="1" as="geometry">
            <mxPoint x="480" y="1149" as="sourcePoint" />
            <mxPoint x="492" y="1149" as="targetPoint" />
          </mxGeometry>
        </mxCell>
        <mxCell id="8gRQs5-1PO1u6uqCk4zV-235" value="" style="shape=flexArrow;endArrow=classic;html=1;rounded=0;width=6.4;endSize=6.904000000000001;endWidth=11.040000000000001;" edge="1" parent="1">
          <mxGeometry width="50" height="50" relative="1" as="geometry">
            <mxPoint x="278" y="1176" as="sourcePoint" />
            <mxPoint x="350" y="1176" as="targetPoint" />
          </mxGeometry>
        </mxCell>
        <mxCell id="8gRQs5-1PO1u6uqCk4zV-252" value="&lt;span style=&quot;font-size: 6px;&quot;&gt;9600 bps&lt;/span&gt;" style="text;html=1;align=center;verticalAlign=middle;whiteSpace=wrap;rounded=0;" vertex="1" parent="1">
          <mxGeometry x="105" y="1139" width="32" height="6" as="geometry" />
        </mxCell>
        <mxCell id="8gRQs5-1PO1u6uqCk4zV-253" value="&lt;span style=&quot;font-size: 6px;&quot;&gt;9600 bps&lt;/span&gt;" style="text;html=1;align=center;verticalAlign=middle;whiteSpace=wrap;rounded=0;" vertex="1" parent="1">
          <mxGeometry x="105" y="1155" width="32" height="6" as="geometry" />
        </mxCell>
        <mxCell id="8gRQs5-1PO1u6uqCk4zV-254" value="&lt;span style=&quot;font-size: 6px;&quot;&gt;4800 bps&lt;/span&gt;" style="text;html=1;align=center;verticalAlign=middle;whiteSpace=wrap;rounded=0;" vertex="1" parent="1">
          <mxGeometry x="105" y="1170" width="32" height="6" as="geometry" />
        </mxCell>
        <mxCell id="8gRQs5-1PO1u6uqCk4zV-255" value="&lt;span style=&quot;font-size: 6px;&quot;&gt;4800 bps&lt;/span&gt;" style="text;html=1;align=center;verticalAlign=middle;whiteSpace=wrap;rounded=0;" vertex="1" parent="1">
          <mxGeometry x="105" y="1187" width="32" height="6" as="geometry" />
        </mxCell>
        <mxCell id="8gRQs5-1PO1u6uqCk4zV-256" value="&lt;span style=&quot;font-size: 6px;&quot;&gt;2400 bps&lt;/span&gt;" style="text;html=1;align=center;verticalAlign=middle;whiteSpace=wrap;rounded=0;" vertex="1" parent="1">
          <mxGeometry x="105" y="1203" width="32" height="6" as="geometry" />
        </mxCell>
        <mxCell id="8gRQs5-1PO1u6uqCk4zV-257" value="&lt;span style=&quot;font-size: 6px;&quot;&gt;2400 bps&lt;/span&gt;" style="text;html=1;align=center;verticalAlign=middle;whiteSpace=wrap;rounded=0;" vertex="1" parent="1">
          <mxGeometry x="105" y="1218" width="32" height="6" as="geometry" />
        </mxCell>
        <mxCell id="8gRQs5-1PO1u6uqCk4zV-258" value="&lt;span style=&quot;font-size: 6px;&quot;&gt;2400 bps&lt;/span&gt;" style="text;html=1;align=center;verticalAlign=middle;whiteSpace=wrap;rounded=0;" vertex="1" parent="1">
          <mxGeometry x="105" y="1233" width="32" height="6" as="geometry" />
        </mxCell>
        <mxCell id="8gRQs5-1PO1u6uqCk4zV-259" value="&lt;span style=&quot;font-size: 6px;&quot;&gt;2400 bps&lt;/span&gt;" style="text;html=1;align=center;verticalAlign=middle;whiteSpace=wrap;rounded=0;" vertex="1" parent="1">
          <mxGeometry x="105" y="1249" width="32" height="6" as="geometry" />
        </mxCell>
        <mxCell id="8gRQs5-1PO1u6uqCk4zV-260" value="&lt;span style=&quot;font-size: 6px;&quot;&gt;76800 bps&lt;/span&gt;" style="text;html=1;align=center;verticalAlign=middle;whiteSpace=wrap;rounded=0;" vertex="1" parent="1">
          <mxGeometry x="213" y="1187" width="32" height="6" as="geometry" />
        </mxCell>
        <mxCell id="8gRQs5-1PO1u6uqCk4zV-261" value="" style="endArrow=none;html=1;rounded=0;" edge="1" parent="1">
          <mxGeometry width="50" height="50" relative="1" as="geometry">
            <mxPoint x="607" y="1212" as="sourcePoint" />
            <mxPoint x="648" y="1212" as="targetPoint" />
            <Array as="points">
              <mxPoint x="627" y="1212" />
              <mxPoint x="627" y="1193" />
              <mxPoint x="648" y="1193" />
            </Array>
          </mxGeometry>
        </mxCell>
        <mxCell id="8gRQs5-1PO1u6uqCk4zV-262" value="" style="endArrow=none;html=1;rounded=0;" edge="1" parent="1">
          <mxGeometry width="50" height="50" relative="1" as="geometry">
            <mxPoint x="648" y="1212" as="sourcePoint" />
            <mxPoint x="689" y="1212" as="targetPoint" />
            <Array as="points">
              <mxPoint x="668" y="1212" />
              <mxPoint x="668" y="1193" />
              <mxPoint x="689" y="1193" />
            </Array>
          </mxGeometry>
        </mxCell>
        <mxCell id="8gRQs5-1PO1u6uqCk4zV-263" value="" style="endArrow=none;html=1;rounded=0;" edge="1" parent="1">
          <mxGeometry width="50" height="50" relative="1" as="geometry">
            <mxPoint x="689" y="1212" as="sourcePoint" />
            <mxPoint x="730" y="1212" as="targetPoint" />
            <Array as="points">
              <mxPoint x="709" y="1212" />
              <mxPoint x="709" y="1193" />
              <mxPoint x="730" y="1193" />
            </Array>
          </mxGeometry>
        </mxCell>
        <mxCell id="8gRQs5-1PO1u6uqCk4zV-264" value="" style="endArrow=none;html=1;rounded=0;" edge="1" parent="1">
          <mxGeometry width="50" height="50" relative="1" as="geometry">
            <mxPoint x="730" y="1212" as="sourcePoint" />
            <mxPoint x="771" y="1212" as="targetPoint" />
            <Array as="points">
              <mxPoint x="750" y="1212" />
              <mxPoint x="750" y="1193" />
              <mxPoint x="771" y="1193" />
            </Array>
          </mxGeometry>
        </mxCell>
        <mxCell id="8gRQs5-1PO1u6uqCk4zV-265" value="" style="endArrow=none;html=1;rounded=0;" edge="1" parent="1">
          <mxGeometry width="50" height="50" relative="1" as="geometry">
            <mxPoint x="607" y="1262" as="sourcePoint" />
            <mxPoint x="648" y="1262" as="targetPoint" />
            <Array as="points">
              <mxPoint x="627" y="1262" />
            </Array>
          </mxGeometry>
        </mxCell>
        <mxCell id="8gRQs5-1PO1u6uqCk4zV-266" value="" style="endArrow=none;html=1;rounded=0;" edge="1" parent="1">
          <mxGeometry width="50" height="50" relative="1" as="geometry">
            <mxPoint x="648" y="1262" as="sourcePoint" />
            <mxPoint x="689" y="1262" as="targetPoint" />
            <Array as="points">
              <mxPoint x="648" y="1243" />
              <mxPoint x="668" y="1243" />
              <mxPoint x="689" y="1243" />
            </Array>
          </mxGeometry>
        </mxCell>
        <mxCell id="8gRQs5-1PO1u6uqCk4zV-267" value="" style="endArrow=none;html=1;rounded=0;" edge="1" parent="1">
          <mxGeometry width="50" height="50" relative="1" as="geometry">
            <mxPoint x="689" y="1262" as="sourcePoint" />
            <mxPoint x="730" y="1262" as="targetPoint" />
            <Array as="points">
              <mxPoint x="709" y="1262" />
            </Array>
          </mxGeometry>
        </mxCell>
        <mxCell id="8gRQs5-1PO1u6uqCk4zV-268" value="" style="endArrow=none;html=1;rounded=0;" edge="1" parent="1">
          <mxGeometry width="50" height="50" relative="1" as="geometry">
            <mxPoint x="730" y="1262" as="sourcePoint" />
            <mxPoint x="771" y="1262" as="targetPoint" />
            <Array as="points">
              <mxPoint x="730" y="1243" />
              <mxPoint x="750" y="1243" />
              <mxPoint x="771" y="1243" />
            </Array>
          </mxGeometry>
        </mxCell>
        <mxCell id="8gRQs5-1PO1u6uqCk4zV-269" value="" style="endArrow=none;html=1;rounded=0;" edge="1" parent="1">
          <mxGeometry width="50" height="50" relative="1" as="geometry">
            <mxPoint x="607" y="1237.3600000000001" as="sourcePoint" />
            <mxPoint x="648" y="1237.3600000000001" as="targetPoint" />
            <Array as="points">
              <mxPoint x="627" y="1237.3600000000001" />
            </Array>
          </mxGeometry>
        </mxCell>
        <mxCell id="8gRQs5-1PO1u6uqCk4zV-270" value="" style="endArrow=none;html=1;rounded=0;" edge="1" parent="1">
          <mxGeometry width="50" height="50" relative="1" as="geometry">
            <mxPoint x="648" y="1237.3600000000001" as="sourcePoint" />
            <mxPoint x="689" y="1237.3600000000001" as="targetPoint" />
            <Array as="points">
              <mxPoint x="648" y="1218.3600000000001" />
              <mxPoint x="668" y="1218.3600000000001" />
              <mxPoint x="689" y="1218.3600000000001" />
            </Array>
          </mxGeometry>
        </mxCell>
        <mxCell id="8gRQs5-1PO1u6uqCk4zV-271" value="" style="endArrow=none;html=1;rounded=0;" edge="1" parent="1">
          <mxGeometry width="50" height="50" relative="1" as="geometry">
            <mxPoint x="689" y="1237.3600000000001" as="sourcePoint" />
            <mxPoint x="730" y="1237.3600000000001" as="targetPoint" />
            <Array as="points">
              <mxPoint x="709" y="1237.3600000000001" />
            </Array>
          </mxGeometry>
        </mxCell>
        <mxCell id="8gRQs5-1PO1u6uqCk4zV-272" value="" style="endArrow=none;html=1;rounded=0;" edge="1" parent="1">
          <mxGeometry width="50" height="50" relative="1" as="geometry">
            <mxPoint x="730" y="1237.3600000000001" as="sourcePoint" />
            <mxPoint x="771" y="1237.3600000000001" as="targetPoint" />
            <Array as="points">
              <mxPoint x="730" y="1218.3600000000001" />
              <mxPoint x="750" y="1218.3600000000001" />
              <mxPoint x="771" y="1218.3600000000001" />
            </Array>
          </mxGeometry>
        </mxCell>
        <mxCell id="8gRQs5-1PO1u6uqCk4zV-273" value="" style="endArrow=none;html=1;rounded=0;" edge="1" parent="1">
          <mxGeometry width="50" height="50" relative="1" as="geometry">
            <mxPoint x="607" y="1187" as="sourcePoint" />
            <mxPoint x="648" y="1187" as="targetPoint" />
            <Array as="points">
              <mxPoint x="627" y="1187" />
              <mxPoint x="627" y="1168" />
              <mxPoint x="648" y="1168" />
            </Array>
          </mxGeometry>
        </mxCell>
        <mxCell id="8gRQs5-1PO1u6uqCk4zV-274" value="" style="endArrow=none;html=1;rounded=0;" edge="1" parent="1">
          <mxGeometry width="50" height="50" relative="1" as="geometry">
            <mxPoint x="648" y="1187" as="sourcePoint" />
            <mxPoint x="689" y="1187" as="targetPoint" />
            <Array as="points">
              <mxPoint x="668" y="1187" />
              <mxPoint x="668" y="1168" />
              <mxPoint x="689" y="1168" />
            </Array>
          </mxGeometry>
        </mxCell>
        <mxCell id="8gRQs5-1PO1u6uqCk4zV-275" value="" style="endArrow=none;html=1;rounded=0;" edge="1" parent="1">
          <mxGeometry width="50" height="50" relative="1" as="geometry">
            <mxPoint x="689" y="1187" as="sourcePoint" />
            <mxPoint x="730" y="1187" as="targetPoint" />
            <Array as="points">
              <mxPoint x="709" y="1187" />
              <mxPoint x="709" y="1168" />
              <mxPoint x="730" y="1168" />
            </Array>
          </mxGeometry>
        </mxCell>
        <mxCell id="8gRQs5-1PO1u6uqCk4zV-276" value="" style="endArrow=none;html=1;rounded=0;" edge="1" parent="1">
          <mxGeometry width="50" height="50" relative="1" as="geometry">
            <mxPoint x="730" y="1187" as="sourcePoint" />
            <mxPoint x="771" y="1187" as="targetPoint" />
            <Array as="points">
              <mxPoint x="750" y="1187" />
              <mxPoint x="750" y="1168" />
              <mxPoint x="771" y="1168" />
            </Array>
          </mxGeometry>
        </mxCell>
        <mxCell id="8gRQs5-1PO1u6uqCk4zV-277" value="A" style="text;html=1;align=center;verticalAlign=middle;whiteSpace=wrap;rounded=0;" vertex="1" parent="1">
          <mxGeometry x="564" y="1161" width="60" height="30" as="geometry" />
        </mxCell>
        <mxCell id="8gRQs5-1PO1u6uqCk4zV-278" value="C" style="text;html=1;align=center;verticalAlign=middle;whiteSpace=wrap;rounded=0;" vertex="1" parent="1">
          <mxGeometry x="564" y="1213" width="60" height="30" as="geometry" />
        </mxCell>
        <mxCell id="8gRQs5-1PO1u6uqCk4zV-279" value="D" style="text;html=1;align=center;verticalAlign=middle;whiteSpace=wrap;rounded=0;" vertex="1" parent="1">
          <mxGeometry x="564" y="1237" width="60" height="30" as="geometry" />
        </mxCell>
        <mxCell id="8gRQs5-1PO1u6uqCk4zV-280" value="B" style="text;html=1;align=center;verticalAlign=middle;whiteSpace=wrap;rounded=0;" vertex="1" parent="1">
          <mxGeometry x="564" y="1187" width="60" height="30" as="geometry" />
        </mxCell>
        <mxCell id="8gRQs5-1PO1u6uqCk4zV-285" value="" style="endArrow=none;html=1;rounded=0;" edge="1" parent="1">
          <mxGeometry width="50" height="50" relative="1" as="geometry">
            <mxPoint x="607" y="1287.8600000000001" as="sourcePoint" />
            <mxPoint x="648" y="1287.8600000000001" as="targetPoint" />
            <Array as="points">
              <mxPoint x="627" y="1287.8600000000001" />
            </Array>
          </mxGeometry>
        </mxCell>
        <mxCell id="8gRQs5-1PO1u6uqCk4zV-286" value="" style="endArrow=none;html=1;rounded=0;" edge="1" parent="1">
          <mxGeometry width="50" height="50" relative="1" as="geometry">
            <mxPoint x="648" y="1287.8600000000001" as="sourcePoint" />
            <mxPoint x="689" y="1287.8600000000001" as="targetPoint" />
            <Array as="points" />
          </mxGeometry>
        </mxCell>
        <mxCell id="8gRQs5-1PO1u6uqCk4zV-287" value="" style="endArrow=none;html=1;rounded=0;" edge="1" parent="1">
          <mxGeometry width="50" height="50" relative="1" as="geometry">
            <mxPoint x="689" y="1287.8600000000001" as="sourcePoint" />
            <mxPoint x="709" y="1269" as="targetPoint" />
            <Array as="points">
              <mxPoint x="689" y="1269" />
            </Array>
          </mxGeometry>
        </mxCell>
        <mxCell id="8gRQs5-1PO1u6uqCk4zV-288" value="" style="endArrow=none;html=1;rounded=0;" edge="1" parent="1">
          <mxGeometry width="50" height="50" relative="1" as="geometry">
            <mxPoint x="709" y="1269" as="sourcePoint" />
            <mxPoint x="771" y="1287.8600000000001" as="targetPoint" />
            <Array as="points">
              <mxPoint x="730" y="1268.8600000000001" />
              <mxPoint x="750" y="1268.8600000000001" />
              <mxPoint x="771" y="1268.8600000000001" />
            </Array>
          </mxGeometry>
        </mxCell>
        <mxCell id="8gRQs5-1PO1u6uqCk4zV-289" value="E" style="text;html=1;align=center;verticalAlign=middle;whiteSpace=wrap;rounded=0;" vertex="1" parent="1">
          <mxGeometry x="564" y="1263.5" width="60" height="30" as="geometry" />
        </mxCell>
        <mxCell id="8gRQs5-1PO1u6uqCk4zV-290" value="F" style="text;html=1;align=center;verticalAlign=middle;whiteSpace=wrap;rounded=0;" vertex="1" parent="1">
          <mxGeometry x="564" y="1287.5" width="60" height="30" as="geometry" />
        </mxCell>
        <mxCell id="8gRQs5-1PO1u6uqCk4zV-291" value="" style="endArrow=none;html=1;rounded=0;" edge="1" parent="1">
          <mxGeometry width="50" height="50" relative="1" as="geometry">
            <mxPoint x="607.62" y="1311.89" as="sourcePoint" />
            <mxPoint x="648.62" y="1311.89" as="targetPoint" />
            <Array as="points">
              <mxPoint x="627.62" y="1311.89" />
            </Array>
          </mxGeometry>
        </mxCell>
        <mxCell id="8gRQs5-1PO1u6uqCk4zV-292" value="" style="endArrow=none;html=1;rounded=0;" edge="1" parent="1">
          <mxGeometry width="50" height="50" relative="1" as="geometry">
            <mxPoint x="648.62" y="1311.89" as="sourcePoint" />
            <mxPoint x="689.62" y="1311.89" as="targetPoint" />
            <Array as="points" />
          </mxGeometry>
        </mxCell>
        <mxCell id="8gRQs5-1PO1u6uqCk4zV-293" value="" style="endArrow=none;html=1;rounded=0;" edge="1" parent="1">
          <mxGeometry width="50" height="50" relative="1" as="geometry">
            <mxPoint x="689.62" y="1311.89" as="sourcePoint" />
            <mxPoint x="709.62" y="1293.03" as="targetPoint" />
            <Array as="points">
              <mxPoint x="689.62" y="1293.03" />
            </Array>
          </mxGeometry>
        </mxCell>
        <mxCell id="8gRQs5-1PO1u6uqCk4zV-294" value="" style="endArrow=none;html=1;rounded=0;" edge="1" parent="1">
          <mxGeometry width="50" height="50" relative="1" as="geometry">
            <mxPoint x="709.62" y="1293.03" as="sourcePoint" />
            <mxPoint x="771.62" y="1311.89" as="targetPoint" />
            <Array as="points">
              <mxPoint x="730.62" y="1292.89" />
              <mxPoint x="750.62" y="1292.89" />
              <mxPoint x="771.62" y="1292.89" />
            </Array>
          </mxGeometry>
        </mxCell>
        <mxCell id="8gRQs5-1PO1u6uqCk4zV-295" value="0" style="rounded=0;whiteSpace=wrap;html=1;" vertex="1" parent="1">
          <mxGeometry x="571.4300000000001" y="1425" width="29" height="29" as="geometry" />
        </mxCell>
        <mxCell id="8gRQs5-1PO1u6uqCk4zV-296" value="0" style="rounded=0;whiteSpace=wrap;html=1;" vertex="1" parent="1">
          <mxGeometry x="600.4300000000001" y="1425" width="29" height="29" as="geometry" />
        </mxCell>
        <mxCell id="8gRQs5-1PO1u6uqCk4zV-297" value="0" style="rounded=0;whiteSpace=wrap;html=1;" vertex="1" parent="1">
          <mxGeometry x="629.4300000000001" y="1425" width="29" height="29" as="geometry" />
        </mxCell>
        <mxCell id="8gRQs5-1PO1u6uqCk4zV-298" value="0" style="rounded=0;whiteSpace=wrap;html=1;" vertex="1" parent="1">
          <mxGeometry x="658.4300000000001" y="1425" width="29" height="29" as="geometry" />
        </mxCell>
        <mxCell id="8gRQs5-1PO1u6uqCk4zV-299" value="0" style="rounded=0;whiteSpace=wrap;html=1;" vertex="1" parent="1">
          <mxGeometry x="687.4300000000001" y="1425" width="28" height="29" as="geometry" />
        </mxCell>
        <mxCell id="8gRQs5-1PO1u6uqCk4zV-300" value="0" style="rounded=0;whiteSpace=wrap;html=1;" vertex="1" parent="1">
          <mxGeometry x="715.4300000000001" y="1425" width="29" height="29" as="geometry" />
        </mxCell>
        <mxCell id="8gRQs5-1PO1u6uqCk4zV-301" value="0" style="rounded=0;whiteSpace=wrap;html=1;" vertex="1" parent="1">
          <mxGeometry x="744.4300000000001" y="1425" width="29" height="29" as="geometry" />
        </mxCell>
        <mxCell id="8gRQs5-1PO1u6uqCk4zV-302" value="0" style="rounded=0;whiteSpace=wrap;html=1;" vertex="1" parent="1">
          <mxGeometry x="773.4300000000001" y="1425" width="29" height="29" as="geometry" />
        </mxCell>
        <mxCell id="8gRQs5-1PO1u6uqCk4zV-303" value="" style="endArrow=none;html=1;rounded=0;" edge="1" parent="1">
          <mxGeometry width="50" height="50" relative="1" as="geometry">
            <mxPoint x="571.4300000000001" y="1416" as="sourcePoint" />
            <mxPoint x="802.4300000000001" y="1416" as="targetPoint" />
          </mxGeometry>
        </mxCell>
        <mxCell id="8gRQs5-1PO1u6uqCk4zV-304" value="" style="endArrow=none;html=1;rounded=0;" edge="1" parent="1">
          <mxGeometry width="50" height="50" relative="1" as="geometry">
            <mxPoint x="571.4300000000001" y="1419" as="sourcePoint" />
            <mxPoint x="571.4300000000001" y="1413" as="targetPoint" />
          </mxGeometry>
        </mxCell>
        <mxCell id="8gRQs5-1PO1u6uqCk4zV-305" value="" style="endArrow=none;html=1;rounded=0;" edge="1" parent="1">
          <mxGeometry width="50" height="50" relative="1" as="geometry">
            <mxPoint x="802.4300000000001" y="1419" as="sourcePoint" />
            <mxPoint x="802.4300000000001" y="1413" as="targetPoint" />
          </mxGeometry>
        </mxCell>
        <mxCell id="8gRQs5-1PO1u6uqCk4zV-306" value="" style="endArrow=none;html=1;rounded=0;" edge="1" parent="1">
          <mxGeometry width="50" height="50" relative="1" as="geometry">
            <mxPoint x="571.5642281879195" y="1462" as="sourcePoint" />
            <mxPoint x="600.3800000000001" y="1462" as="targetPoint" />
          </mxGeometry>
        </mxCell>
        <mxCell id="8gRQs5-1PO1u6uqCk4zV-307" value="" style="endArrow=none;html=1;rounded=0;" edge="1" parent="1">
          <mxGeometry width="50" height="50" relative="1" as="geometry">
            <mxPoint x="571.48" y="1465" as="sourcePoint" />
            <mxPoint x="571.4300000000001" y="1459" as="targetPoint" />
          </mxGeometry>
        </mxCell>
        <mxCell id="8gRQs5-1PO1u6uqCk4zV-308" value="" style="endArrow=none;html=1;rounded=0;" edge="1" parent="1">
          <mxGeometry width="50" height="50" relative="1" as="geometry">
            <mxPoint x="600.3800000000001" y="1465" as="sourcePoint" />
            <mxPoint x="600.3800000000001" y="1459" as="targetPoint" />
          </mxGeometry>
        </mxCell>
        <mxCell id="8gRQs5-1PO1u6uqCk4zV-309" value="&lt;font style=&quot;font-size: 6px;&quot;&gt;104.16 x 10&lt;/font&gt;&lt;font style=&quot;font-size: 6px;&quot;&gt;ˆ&lt;/font&gt;&lt;font style=&quot;font-size: 6px;&quot;&gt;(-6)&amp;nbsp;&lt;/font&gt;&lt;font&gt;&lt;span style=&quot;font-size: 6px;&quot;&gt;seg&lt;/span&gt;&lt;/font&gt;" style="text;html=1;align=center;verticalAlign=middle;whiteSpace=wrap;rounded=0;" vertex="1" parent="1">
          <mxGeometry x="660.4300000000001" y="1400" width="63" height="11" as="geometry" />
        </mxCell>
        <mxCell id="8gRQs5-1PO1u6uqCk4zV-310" value="&lt;font style=&quot;font-size: 6px;&quot;&gt;&amp;nbsp;13.02 x 10&lt;/font&gt;&lt;font style=&quot;font-size: 6px;&quot;&gt;ˆ&lt;/font&gt;&lt;font style=&quot;font-size: 6px;&quot;&gt;(-6)&amp;nbsp;&lt;/font&gt;&lt;font&gt;&lt;span style=&quot;font-size: 6px;&quot;&gt;seg&lt;/span&gt;&lt;/font&gt;" style="text;html=1;align=center;verticalAlign=middle;whiteSpace=wrap;rounded=0;" vertex="1" parent="1">
          <mxGeometry x="558.4300000000001" y="1464" width="55" height="11" as="geometry" />
        </mxCell>
        <mxCell id="8gRQs5-1PO1u6uqCk4zV-311" value="Trama 1" style="text;html=1;align=center;verticalAlign=middle;whiteSpace=wrap;rounded=0;" vertex="1" parent="1">
          <mxGeometry x="493" y="1424" width="60" height="30" as="geometry" />
        </mxCell>
        <mxCell id="8gRQs5-1PO1u6uqCk4zV-312" value="" style="endArrow=none;html=1;rounded=0;" edge="1" parent="1">
          <mxGeometry width="50" height="50" relative="1" as="geometry">
            <mxPoint x="607" y="1337.3600000000001" as="sourcePoint" />
            <mxPoint x="648" y="1337.3600000000001" as="targetPoint" />
            <Array as="points">
              <mxPoint x="627" y="1337.3600000000001" />
            </Array>
          </mxGeometry>
        </mxCell>
        <mxCell id="8gRQs5-1PO1u6uqCk4zV-313" value="" style="endArrow=none;html=1;rounded=0;" edge="1" parent="1">
          <mxGeometry width="50" height="50" relative="1" as="geometry">
            <mxPoint x="648" y="1337.3600000000001" as="sourcePoint" />
            <mxPoint x="689" y="1337.3600000000001" as="targetPoint" />
            <Array as="points" />
          </mxGeometry>
        </mxCell>
        <mxCell id="8gRQs5-1PO1u6uqCk4zV-314" value="" style="endArrow=none;html=1;rounded=0;" edge="1" parent="1">
          <mxGeometry width="50" height="50" relative="1" as="geometry">
            <mxPoint x="689" y="1337.3600000000001" as="sourcePoint" />
            <mxPoint x="709" y="1318.5" as="targetPoint" />
            <Array as="points">
              <mxPoint x="689" y="1318.5" />
            </Array>
          </mxGeometry>
        </mxCell>
        <mxCell id="8gRQs5-1PO1u6uqCk4zV-315" value="" style="endArrow=none;html=1;rounded=0;" edge="1" parent="1">
          <mxGeometry width="50" height="50" relative="1" as="geometry">
            <mxPoint x="709" y="1318.5" as="sourcePoint" />
            <mxPoint x="771" y="1337.3600000000001" as="targetPoint" />
            <Array as="points">
              <mxPoint x="730" y="1318.3600000000001" />
              <mxPoint x="750" y="1318.3600000000001" />
              <mxPoint x="771" y="1318.3600000000001" />
            </Array>
          </mxGeometry>
        </mxCell>
        <mxCell id="8gRQs5-1PO1u6uqCk4zV-316" value="G" style="text;html=1;align=center;verticalAlign=middle;whiteSpace=wrap;rounded=0;" vertex="1" parent="1">
          <mxGeometry x="564" y="1313" width="60" height="30" as="geometry" />
        </mxCell>
        <mxCell id="8gRQs5-1PO1u6uqCk4zV-317" value="H" style="text;html=1;align=center;verticalAlign=middle;whiteSpace=wrap;rounded=0;" vertex="1" parent="1">
          <mxGeometry x="564" y="1337" width="60" height="30" as="geometry" />
        </mxCell>
        <mxCell id="8gRQs5-1PO1u6uqCk4zV-318" value="" style="endArrow=none;html=1;rounded=0;" edge="1" parent="1">
          <mxGeometry width="50" height="50" relative="1" as="geometry">
            <mxPoint x="607.62" y="1361.39" as="sourcePoint" />
            <mxPoint x="648.62" y="1361.39" as="targetPoint" />
            <Array as="points">
              <mxPoint x="627.62" y="1361.39" />
            </Array>
          </mxGeometry>
        </mxCell>
        <mxCell id="8gRQs5-1PO1u6uqCk4zV-319" value="" style="endArrow=none;html=1;rounded=0;" edge="1" parent="1">
          <mxGeometry width="50" height="50" relative="1" as="geometry">
            <mxPoint x="648.62" y="1361.39" as="sourcePoint" />
            <mxPoint x="689.62" y="1361.39" as="targetPoint" />
            <Array as="points" />
          </mxGeometry>
        </mxCell>
        <mxCell id="8gRQs5-1PO1u6uqCk4zV-320" value="" style="endArrow=none;html=1;rounded=0;" edge="1" parent="1">
          <mxGeometry width="50" height="50" relative="1" as="geometry">
            <mxPoint x="689.62" y="1361.39" as="sourcePoint" />
            <mxPoint x="709.62" y="1342.53" as="targetPoint" />
            <Array as="points">
              <mxPoint x="689.62" y="1342.53" />
            </Array>
          </mxGeometry>
        </mxCell>
        <mxCell id="8gRQs5-1PO1u6uqCk4zV-321" value="" style="endArrow=none;html=1;rounded=0;" edge="1" parent="1">
          <mxGeometry width="50" height="50" relative="1" as="geometry">
            <mxPoint x="709.62" y="1342.53" as="sourcePoint" />
            <mxPoint x="771.62" y="1361.39" as="targetPoint" />
            <Array as="points">
              <mxPoint x="730.62" y="1342.39" />
              <mxPoint x="750.62" y="1342.39" />
              <mxPoint x="771.62" y="1342.39" />
            </Array>
          </mxGeometry>
        </mxCell>
        <mxCell id="8gRQs5-1PO1u6uqCk4zV-322" value="1" style="rounded=0;whiteSpace=wrap;html=1;" vertex="1" parent="1">
          <mxGeometry x="571.4300000000001" y="1500" width="29" height="29" as="geometry" />
        </mxCell>
        <mxCell id="8gRQs5-1PO1u6uqCk4zV-323" value="1" style="rounded=0;whiteSpace=wrap;html=1;" vertex="1" parent="1">
          <mxGeometry x="600.4300000000001" y="1500" width="29" height="29" as="geometry" />
        </mxCell>
        <mxCell id="8gRQs5-1PO1u6uqCk4zV-324" value="0" style="rounded=0;whiteSpace=wrap;html=1;" vertex="1" parent="1">
          <mxGeometry x="629.4300000000001" y="1500" width="29" height="29" as="geometry" />
        </mxCell>
        <mxCell id="8gRQs5-1PO1u6uqCk4zV-325" value="0" style="rounded=0;whiteSpace=wrap;html=1;" vertex="1" parent="1">
          <mxGeometry x="658.4300000000001" y="1500" width="29" height="29" as="geometry" />
        </mxCell>
        <mxCell id="8gRQs5-1PO1u6uqCk4zV-326" value="0" style="rounded=0;whiteSpace=wrap;html=1;" vertex="1" parent="1">
          <mxGeometry x="687.4300000000001" y="1500" width="28" height="29" as="geometry" />
        </mxCell>
        <mxCell id="8gRQs5-1PO1u6uqCk4zV-327" value="0" style="rounded=0;whiteSpace=wrap;html=1;" vertex="1" parent="1">
          <mxGeometry x="715.4300000000001" y="1500" width="29" height="29" as="geometry" />
        </mxCell>
        <mxCell id="8gRQs5-1PO1u6uqCk4zV-328" value="0" style="rounded=0;whiteSpace=wrap;html=1;" vertex="1" parent="1">
          <mxGeometry x="744.4300000000001" y="1500" width="29" height="29" as="geometry" />
        </mxCell>
        <mxCell id="8gRQs5-1PO1u6uqCk4zV-329" value="0" style="rounded=0;whiteSpace=wrap;html=1;" vertex="1" parent="1">
          <mxGeometry x="773.4300000000001" y="1500" width="29" height="29" as="geometry" />
        </mxCell>
        <mxCell id="8gRQs5-1PO1u6uqCk4zV-330" value="" style="endArrow=none;html=1;rounded=0;" edge="1" parent="1">
          <mxGeometry width="50" height="50" relative="1" as="geometry">
            <mxPoint x="571.4300000000001" y="1491" as="sourcePoint" />
            <mxPoint x="802.4300000000001" y="1491" as="targetPoint" />
          </mxGeometry>
        </mxCell>
        <mxCell id="8gRQs5-1PO1u6uqCk4zV-331" value="" style="endArrow=none;html=1;rounded=0;" edge="1" parent="1">
          <mxGeometry width="50" height="50" relative="1" as="geometry">
            <mxPoint x="571.4300000000001" y="1494" as="sourcePoint" />
            <mxPoint x="571.4300000000001" y="1488" as="targetPoint" />
          </mxGeometry>
        </mxCell>
        <mxCell id="8gRQs5-1PO1u6uqCk4zV-332" value="" style="endArrow=none;html=1;rounded=0;" edge="1" parent="1">
          <mxGeometry width="50" height="50" relative="1" as="geometry">
            <mxPoint x="802.4300000000001" y="1494" as="sourcePoint" />
            <mxPoint x="802.4300000000001" y="1488" as="targetPoint" />
          </mxGeometry>
        </mxCell>
        <mxCell id="8gRQs5-1PO1u6uqCk4zV-333" value="" style="endArrow=none;html=1;rounded=0;" edge="1" parent="1">
          <mxGeometry width="50" height="50" relative="1" as="geometry">
            <mxPoint x="571.5642281879195" y="1537" as="sourcePoint" />
            <mxPoint x="600.3800000000001" y="1537" as="targetPoint" />
          </mxGeometry>
        </mxCell>
        <mxCell id="8gRQs5-1PO1u6uqCk4zV-334" value="" style="endArrow=none;html=1;rounded=0;" edge="1" parent="1">
          <mxGeometry width="50" height="50" relative="1" as="geometry">
            <mxPoint x="571.48" y="1540" as="sourcePoint" />
            <mxPoint x="571.4300000000001" y="1534" as="targetPoint" />
          </mxGeometry>
        </mxCell>
        <mxCell id="8gRQs5-1PO1u6uqCk4zV-335" value="" style="endArrow=none;html=1;rounded=0;" edge="1" parent="1">
          <mxGeometry width="50" height="50" relative="1" as="geometry">
            <mxPoint x="600.3800000000001" y="1540" as="sourcePoint" />
            <mxPoint x="600.3800000000001" y="1534" as="targetPoint" />
          </mxGeometry>
        </mxCell>
        <mxCell id="8gRQs5-1PO1u6uqCk4zV-336" value="&lt;font style=&quot;font-size: 6px;&quot;&gt;104.16 x 10&lt;/font&gt;&lt;font style=&quot;font-size: 6px;&quot;&gt;ˆ&lt;/font&gt;&lt;font style=&quot;font-size: 6px;&quot;&gt;(-6)&amp;nbsp;&lt;/font&gt;&lt;font&gt;&lt;span style=&quot;font-size: 6px;&quot;&gt;seg&lt;/span&gt;&lt;/font&gt;" style="text;html=1;align=center;verticalAlign=middle;whiteSpace=wrap;rounded=0;" vertex="1" parent="1">
          <mxGeometry x="660.4300000000001" y="1475" width="63" height="11" as="geometry" />
        </mxCell>
        <mxCell id="8gRQs5-1PO1u6uqCk4zV-337" value="&lt;font style=&quot;font-size: 6px;&quot;&gt;&amp;nbsp;13.02 x 10&lt;/font&gt;&lt;font style=&quot;font-size: 6px;&quot;&gt;ˆ&lt;/font&gt;&lt;font style=&quot;font-size: 6px;&quot;&gt;(-6)&amp;nbsp;&lt;/font&gt;&lt;font&gt;&lt;span style=&quot;font-size: 6px;&quot;&gt;seg&lt;/span&gt;&lt;/font&gt;" style="text;html=1;align=center;verticalAlign=middle;whiteSpace=wrap;rounded=0;" vertex="1" parent="1">
          <mxGeometry x="558.4300000000001" y="1539" width="55" height="11" as="geometry" />
        </mxCell>
        <mxCell id="8gRQs5-1PO1u6uqCk4zV-338" value="Trama 2" style="text;html=1;align=center;verticalAlign=middle;whiteSpace=wrap;rounded=0;" vertex="1" parent="1">
          <mxGeometry x="493" y="1499" width="60" height="30" as="geometry" />
        </mxCell>
        <mxCell id="8gRQs5-1PO1u6uqCk4zV-339" value="0" style="rounded=0;whiteSpace=wrap;html=1;" vertex="1" parent="1">
          <mxGeometry x="571.4300000000001" y="1578" width="29" height="29" as="geometry" />
        </mxCell>
        <mxCell id="8gRQs5-1PO1u6uqCk4zV-340" value="0" style="rounded=0;whiteSpace=wrap;html=1;" vertex="1" parent="1">
          <mxGeometry x="600.4300000000001" y="1578" width="29" height="29" as="geometry" />
        </mxCell>
        <mxCell id="8gRQs5-1PO1u6uqCk4zV-341" value="1" style="rounded=0;whiteSpace=wrap;html=1;" vertex="1" parent="1">
          <mxGeometry x="629.4300000000001" y="1578" width="29" height="29" as="geometry" />
        </mxCell>
        <mxCell id="8gRQs5-1PO1u6uqCk4zV-342" value="1" style="rounded=0;whiteSpace=wrap;html=1;" vertex="1" parent="1">
          <mxGeometry x="658.4300000000001" y="1578" width="29" height="29" as="geometry" />
        </mxCell>
        <mxCell id="8gRQs5-1PO1u6uqCk4zV-343" value="0" style="rounded=0;whiteSpace=wrap;html=1;" vertex="1" parent="1">
          <mxGeometry x="687.4300000000001" y="1578" width="28" height="29" as="geometry" />
        </mxCell>
        <mxCell id="8gRQs5-1PO1u6uqCk4zV-344" value="0" style="rounded=0;whiteSpace=wrap;html=1;" vertex="1" parent="1">
          <mxGeometry x="715.4300000000001" y="1578" width="29" height="29" as="geometry" />
        </mxCell>
        <mxCell id="8gRQs5-1PO1u6uqCk4zV-345" value="0" style="rounded=0;whiteSpace=wrap;html=1;" vertex="1" parent="1">
          <mxGeometry x="744.4300000000001" y="1578" width="29" height="29" as="geometry" />
        </mxCell>
        <mxCell id="8gRQs5-1PO1u6uqCk4zV-346" value="0" style="rounded=0;whiteSpace=wrap;html=1;" vertex="1" parent="1">
          <mxGeometry x="773.4300000000001" y="1578" width="29" height="29" as="geometry" />
        </mxCell>
        <mxCell id="8gRQs5-1PO1u6uqCk4zV-347" value="" style="endArrow=none;html=1;rounded=0;" edge="1" parent="1">
          <mxGeometry width="50" height="50" relative="1" as="geometry">
            <mxPoint x="571.4300000000001" y="1569" as="sourcePoint" />
            <mxPoint x="802.4300000000001" y="1569" as="targetPoint" />
          </mxGeometry>
        </mxCell>
        <mxCell id="8gRQs5-1PO1u6uqCk4zV-348" value="" style="endArrow=none;html=1;rounded=0;" edge="1" parent="1">
          <mxGeometry width="50" height="50" relative="1" as="geometry">
            <mxPoint x="571.4300000000001" y="1572" as="sourcePoint" />
            <mxPoint x="571.4300000000001" y="1566" as="targetPoint" />
          </mxGeometry>
        </mxCell>
        <mxCell id="8gRQs5-1PO1u6uqCk4zV-349" value="" style="endArrow=none;html=1;rounded=0;" edge="1" parent="1">
          <mxGeometry width="50" height="50" relative="1" as="geometry">
            <mxPoint x="802.4300000000001" y="1572" as="sourcePoint" />
            <mxPoint x="802.4300000000001" y="1566" as="targetPoint" />
          </mxGeometry>
        </mxCell>
        <mxCell id="8gRQs5-1PO1u6uqCk4zV-350" value="" style="endArrow=none;html=1;rounded=0;" edge="1" parent="1">
          <mxGeometry width="50" height="50" relative="1" as="geometry">
            <mxPoint x="571.5642281879195" y="1615" as="sourcePoint" />
            <mxPoint x="600.3800000000001" y="1615" as="targetPoint" />
          </mxGeometry>
        </mxCell>
        <mxCell id="8gRQs5-1PO1u6uqCk4zV-351" value="" style="endArrow=none;html=1;rounded=0;" edge="1" parent="1">
          <mxGeometry width="50" height="50" relative="1" as="geometry">
            <mxPoint x="571.48" y="1618" as="sourcePoint" />
            <mxPoint x="571.4300000000001" y="1612" as="targetPoint" />
          </mxGeometry>
        </mxCell>
        <mxCell id="8gRQs5-1PO1u6uqCk4zV-352" value="" style="endArrow=none;html=1;rounded=0;" edge="1" parent="1">
          <mxGeometry width="50" height="50" relative="1" as="geometry">
            <mxPoint x="600.3800000000001" y="1618" as="sourcePoint" />
            <mxPoint x="600.3800000000001" y="1612" as="targetPoint" />
          </mxGeometry>
        </mxCell>
        <mxCell id="8gRQs5-1PO1u6uqCk4zV-353" value="&lt;font style=&quot;font-size: 6px;&quot;&gt;104.16 x 10&lt;/font&gt;&lt;font style=&quot;font-size: 6px;&quot;&gt;ˆ&lt;/font&gt;&lt;font style=&quot;font-size: 6px;&quot;&gt;(-6)&amp;nbsp;&lt;/font&gt;&lt;font&gt;&lt;span style=&quot;font-size: 6px;&quot;&gt;seg&lt;/span&gt;&lt;/font&gt;" style="text;html=1;align=center;verticalAlign=middle;whiteSpace=wrap;rounded=0;" vertex="1" parent="1">
          <mxGeometry x="660.4300000000001" y="1553" width="63" height="11" as="geometry" />
        </mxCell>
        <mxCell id="8gRQs5-1PO1u6uqCk4zV-354" value="&lt;font style=&quot;font-size: 6px;&quot;&gt;&amp;nbsp;13.02 x 10&lt;/font&gt;&lt;font style=&quot;font-size: 6px;&quot;&gt;ˆ&lt;/font&gt;&lt;font style=&quot;font-size: 6px;&quot;&gt;(-6)&amp;nbsp;&lt;/font&gt;&lt;font&gt;&lt;span style=&quot;font-size: 6px;&quot;&gt;seg&lt;/span&gt;&lt;/font&gt;" style="text;html=1;align=center;verticalAlign=middle;whiteSpace=wrap;rounded=0;" vertex="1" parent="1">
          <mxGeometry x="558.4300000000001" y="1617" width="55" height="11" as="geometry" />
        </mxCell>
        <mxCell id="8gRQs5-1PO1u6uqCk4zV-355" value="Trama 3" style="text;html=1;align=center;verticalAlign=middle;whiteSpace=wrap;rounded=0;" vertex="1" parent="1">
          <mxGeometry x="493" y="1577" width="60" height="30" as="geometry" />
        </mxCell>
        <mxCell id="8gRQs5-1PO1u6uqCk4zV-356" value="1" style="rounded=0;whiteSpace=wrap;html=1;" vertex="1" parent="1">
          <mxGeometry x="571.4300000000001" y="1653" width="29" height="29" as="geometry" />
        </mxCell>
        <mxCell id="8gRQs5-1PO1u6uqCk4zV-357" value="1" style="rounded=0;whiteSpace=wrap;html=1;" vertex="1" parent="1">
          <mxGeometry x="600.4300000000001" y="1653" width="29" height="29" as="geometry" />
        </mxCell>
        <mxCell id="8gRQs5-1PO1u6uqCk4zV-358" value="1" style="rounded=0;whiteSpace=wrap;html=1;" vertex="1" parent="1">
          <mxGeometry x="629.4300000000001" y="1653" width="29" height="29" as="geometry" />
        </mxCell>
        <mxCell id="8gRQs5-1PO1u6uqCk4zV-359" value="1" style="rounded=0;whiteSpace=wrap;html=1;" vertex="1" parent="1">
          <mxGeometry x="658.4300000000001" y="1653" width="29" height="29" as="geometry" />
        </mxCell>
        <mxCell id="8gRQs5-1PO1u6uqCk4zV-360" value="0" style="rounded=0;whiteSpace=wrap;html=1;" vertex="1" parent="1">
          <mxGeometry x="687.4300000000001" y="1653" width="28" height="29" as="geometry" />
        </mxCell>
        <mxCell id="8gRQs5-1PO1u6uqCk4zV-361" value="0" style="rounded=0;whiteSpace=wrap;html=1;" vertex="1" parent="1">
          <mxGeometry x="715.4300000000001" y="1653" width="29" height="29" as="geometry" />
        </mxCell>
        <mxCell id="8gRQs5-1PO1u6uqCk4zV-362" value="0" style="rounded=0;whiteSpace=wrap;html=1;" vertex="1" parent="1">
          <mxGeometry x="744.4300000000001" y="1653" width="29" height="29" as="geometry" />
        </mxCell>
        <mxCell id="8gRQs5-1PO1u6uqCk4zV-363" value="0" style="rounded=0;whiteSpace=wrap;html=1;" vertex="1" parent="1">
          <mxGeometry x="773.4300000000001" y="1653" width="29" height="29" as="geometry" />
        </mxCell>
        <mxCell id="8gRQs5-1PO1u6uqCk4zV-364" value="" style="endArrow=none;html=1;rounded=0;" edge="1" parent="1">
          <mxGeometry width="50" height="50" relative="1" as="geometry">
            <mxPoint x="571.4300000000001" y="1644" as="sourcePoint" />
            <mxPoint x="802.4300000000001" y="1644" as="targetPoint" />
          </mxGeometry>
        </mxCell>
        <mxCell id="8gRQs5-1PO1u6uqCk4zV-365" value="" style="endArrow=none;html=1;rounded=0;" edge="1" parent="1">
          <mxGeometry width="50" height="50" relative="1" as="geometry">
            <mxPoint x="571.4300000000001" y="1647" as="sourcePoint" />
            <mxPoint x="571.4300000000001" y="1641" as="targetPoint" />
          </mxGeometry>
        </mxCell>
        <mxCell id="8gRQs5-1PO1u6uqCk4zV-366" value="" style="endArrow=none;html=1;rounded=0;" edge="1" parent="1">
          <mxGeometry width="50" height="50" relative="1" as="geometry">
            <mxPoint x="802.4300000000001" y="1647" as="sourcePoint" />
            <mxPoint x="802.4300000000001" y="1641" as="targetPoint" />
          </mxGeometry>
        </mxCell>
        <mxCell id="8gRQs5-1PO1u6uqCk4zV-367" value="" style="endArrow=none;html=1;rounded=0;" edge="1" parent="1">
          <mxGeometry width="50" height="50" relative="1" as="geometry">
            <mxPoint x="571.5642281879195" y="1690" as="sourcePoint" />
            <mxPoint x="600.3800000000001" y="1690" as="targetPoint" />
          </mxGeometry>
        </mxCell>
        <mxCell id="8gRQs5-1PO1u6uqCk4zV-368" value="" style="endArrow=none;html=1;rounded=0;" edge="1" parent="1">
          <mxGeometry width="50" height="50" relative="1" as="geometry">
            <mxPoint x="571.48" y="1693" as="sourcePoint" />
            <mxPoint x="571.4300000000001" y="1687" as="targetPoint" />
          </mxGeometry>
        </mxCell>
        <mxCell id="8gRQs5-1PO1u6uqCk4zV-369" value="" style="endArrow=none;html=1;rounded=0;" edge="1" parent="1">
          <mxGeometry width="50" height="50" relative="1" as="geometry">
            <mxPoint x="600.3800000000001" y="1693" as="sourcePoint" />
            <mxPoint x="600.3800000000001" y="1687" as="targetPoint" />
          </mxGeometry>
        </mxCell>
        <mxCell id="8gRQs5-1PO1u6uqCk4zV-370" value="&lt;font style=&quot;font-size: 6px;&quot;&gt;104.16 x 10&lt;/font&gt;&lt;font style=&quot;font-size: 6px;&quot;&gt;ˆ&lt;/font&gt;&lt;font style=&quot;font-size: 6px;&quot;&gt;(-6)&amp;nbsp;&lt;/font&gt;&lt;font&gt;&lt;span style=&quot;font-size: 6px;&quot;&gt;seg&lt;/span&gt;&lt;/font&gt;" style="text;html=1;align=center;verticalAlign=middle;whiteSpace=wrap;rounded=0;" vertex="1" parent="1">
          <mxGeometry x="660.4300000000001" y="1628" width="63" height="11" as="geometry" />
        </mxCell>
        <mxCell id="8gRQs5-1PO1u6uqCk4zV-371" value="&lt;font style=&quot;font-size: 6px;&quot;&gt;&amp;nbsp;13.02 x 10&lt;/font&gt;&lt;font style=&quot;font-size: 6px;&quot;&gt;ˆ&lt;/font&gt;&lt;font style=&quot;font-size: 6px;&quot;&gt;(-6)&amp;nbsp;&lt;/font&gt;&lt;font&gt;&lt;span style=&quot;font-size: 6px;&quot;&gt;seg&lt;/span&gt;&lt;/font&gt;" style="text;html=1;align=center;verticalAlign=middle;whiteSpace=wrap;rounded=0;" vertex="1" parent="1">
          <mxGeometry x="558.4300000000001" y="1692" width="55" height="11" as="geometry" />
        </mxCell>
        <mxCell id="8gRQs5-1PO1u6uqCk4zV-372" value="Trama 4" style="text;html=1;align=center;verticalAlign=middle;whiteSpace=wrap;rounded=0;" vertex="1" parent="1">
          <mxGeometry x="493" y="1652" width="60" height="30" as="geometry" />
        </mxCell>
        <mxCell id="8gRQs5-1PO1u6uqCk4zV-420" value="" style="shape=trapezoid;perimeter=trapezoidPerimeter;whiteSpace=wrap;html=1;fixedSize=1;rotation=90;" vertex="1" parent="1">
          <mxGeometry x="924" y="48" width="120" height="60" as="geometry" />
        </mxCell>
        <mxCell id="8gRQs5-1PO1u6uqCk4zV-421" style="edgeStyle=orthogonalEdgeStyle;rounded=0;orthogonalLoop=1;jettySize=auto;html=1;entryX=0;entryY=0.5;entryDx=0;entryDy=0;endArrow=none;endFill=0;" edge="1" parent="1" source="8gRQs5-1PO1u6uqCk4zV-422" target="8gRQs5-1PO1u6uqCk4zV-432">
          <mxGeometry relative="1" as="geometry" />
        </mxCell>
        <mxCell id="8gRQs5-1PO1u6uqCk4zV-422" value="Mux" style="text;html=1;align=center;verticalAlign=middle;whiteSpace=wrap;rounded=0;" vertex="1" parent="1">
          <mxGeometry x="954" y="63" width="60" height="30" as="geometry" />
        </mxCell>
        <mxCell id="8gRQs5-1PO1u6uqCk4zV-423" value="" style="endArrow=none;html=1;rounded=0;" edge="1" parent="1">
          <mxGeometry width="50" height="50" relative="1" as="geometry">
            <mxPoint x="942" y="86.88" as="sourcePoint" />
            <mxPoint x="954" y="86.88" as="targetPoint" />
          </mxGeometry>
        </mxCell>
        <mxCell id="8gRQs5-1PO1u6uqCk4zV-424" value="" style="endArrow=none;html=1;rounded=0;" edge="1" parent="1">
          <mxGeometry width="50" height="50" relative="1" as="geometry">
            <mxPoint x="942" y="38.879999999999995" as="sourcePoint" />
            <mxPoint x="954" y="38.879999999999995" as="targetPoint" />
          </mxGeometry>
        </mxCell>
        <mxCell id="8gRQs5-1PO1u6uqCk4zV-425" value="" style="endArrow=none;html=1;rounded=0;" edge="1" parent="1">
          <mxGeometry width="50" height="50" relative="1" as="geometry">
            <mxPoint x="942" y="131.88" as="sourcePoint" />
            <mxPoint x="954" y="131.88" as="targetPoint" />
          </mxGeometry>
        </mxCell>
        <mxCell id="8gRQs5-1PO1u6uqCk4zV-426" value="" style="endArrow=none;html=1;rounded=0;" edge="1" parent="1">
          <mxGeometry width="50" height="50" relative="1" as="geometry">
            <mxPoint x="942" y="116.88" as="sourcePoint" />
            <mxPoint x="954" y="116.88" as="targetPoint" />
          </mxGeometry>
        </mxCell>
        <mxCell id="8gRQs5-1PO1u6uqCk4zV-427" value="" style="endArrow=none;html=1;rounded=0;" edge="1" parent="1">
          <mxGeometry width="50" height="50" relative="1" as="geometry">
            <mxPoint x="942" y="101.88" as="sourcePoint" />
            <mxPoint x="954" y="101.88" as="targetPoint" />
          </mxGeometry>
        </mxCell>
        <mxCell id="8gRQs5-1PO1u6uqCk4zV-428" value="" style="endArrow=none;html=1;rounded=0;" edge="1" parent="1">
          <mxGeometry width="50" height="50" relative="1" as="geometry">
            <mxPoint x="942" y="70.88" as="sourcePoint" />
            <mxPoint x="954" y="70.88" as="targetPoint" />
          </mxGeometry>
        </mxCell>
        <mxCell id="8gRQs5-1PO1u6uqCk4zV-429" value="" style="endArrow=none;html=1;rounded=0;" edge="1" parent="1">
          <mxGeometry width="50" height="50" relative="1" as="geometry">
            <mxPoint x="942" y="54.879999999999995" as="sourcePoint" />
            <mxPoint x="954" y="54.879999999999995" as="targetPoint" />
          </mxGeometry>
        </mxCell>
        <mxCell id="8gRQs5-1PO1u6uqCk4zV-430" value="" style="endArrow=none;html=1;rounded=0;" edge="1" parent="1">
          <mxGeometry width="50" height="50" relative="1" as="geometry">
            <mxPoint x="942" y="23.879999999999995" as="sourcePoint" />
            <mxPoint x="954" y="23.879999999999995" as="targetPoint" />
          </mxGeometry>
        </mxCell>
        <mxCell id="8gRQs5-1PO1u6uqCk4zV-431" value="" style="shape=trapezoid;perimeter=trapezoidPerimeter;whiteSpace=wrap;html=1;fixedSize=1;rotation=-90;" vertex="1" parent="1">
          <mxGeometry x="1194" y="51" width="120" height="60" as="geometry" />
        </mxCell>
        <mxCell id="8gRQs5-1PO1u6uqCk4zV-432" value="Demux" style="text;html=1;align=center;verticalAlign=middle;whiteSpace=wrap;rounded=0;" vertex="1" parent="1">
          <mxGeometry x="1224" y="63" width="60" height="30" as="geometry" />
        </mxCell>
        <mxCell id="8gRQs5-1PO1u6uqCk4zV-433" value="" style="endArrow=none;html=1;rounded=0;" edge="1" parent="1">
          <mxGeometry width="50" height="50" relative="1" as="geometry">
            <mxPoint x="1284" y="90.00000000000001" as="sourcePoint" />
            <mxPoint x="1296" y="90.00000000000001" as="targetPoint" />
          </mxGeometry>
        </mxCell>
        <mxCell id="8gRQs5-1PO1u6uqCk4zV-434" value="" style="endArrow=none;html=1;rounded=0;" edge="1" parent="1">
          <mxGeometry width="50" height="50" relative="1" as="geometry">
            <mxPoint x="1284" y="42" as="sourcePoint" />
            <mxPoint x="1296" y="42" as="targetPoint" />
          </mxGeometry>
        </mxCell>
        <mxCell id="8gRQs5-1PO1u6uqCk4zV-435" value="" style="endArrow=none;html=1;rounded=0;" edge="1" parent="1">
          <mxGeometry width="50" height="50" relative="1" as="geometry">
            <mxPoint x="1284" y="135" as="sourcePoint" />
            <mxPoint x="1296" y="135" as="targetPoint" />
          </mxGeometry>
        </mxCell>
        <mxCell id="8gRQs5-1PO1u6uqCk4zV-436" value="" style="endArrow=none;html=1;rounded=0;" edge="1" parent="1">
          <mxGeometry width="50" height="50" relative="1" as="geometry">
            <mxPoint x="1284" y="120" as="sourcePoint" />
            <mxPoint x="1296" y="120" as="targetPoint" />
          </mxGeometry>
        </mxCell>
        <mxCell id="8gRQs5-1PO1u6uqCk4zV-437" value="" style="endArrow=none;html=1;rounded=0;" edge="1" parent="1">
          <mxGeometry width="50" height="50" relative="1" as="geometry">
            <mxPoint x="1284" y="105.00000000000001" as="sourcePoint" />
            <mxPoint x="1296" y="105.00000000000001" as="targetPoint" />
          </mxGeometry>
        </mxCell>
        <mxCell id="8gRQs5-1PO1u6uqCk4zV-438" value="" style="endArrow=none;html=1;rounded=0;" edge="1" parent="1">
          <mxGeometry width="50" height="50" relative="1" as="geometry">
            <mxPoint x="1284" y="74.00000000000001" as="sourcePoint" />
            <mxPoint x="1296" y="74.00000000000001" as="targetPoint" />
          </mxGeometry>
        </mxCell>
        <mxCell id="8gRQs5-1PO1u6uqCk4zV-439" value="" style="endArrow=none;html=1;rounded=0;" edge="1" parent="1">
          <mxGeometry width="50" height="50" relative="1" as="geometry">
            <mxPoint x="1284" y="58" as="sourcePoint" />
            <mxPoint x="1296" y="58" as="targetPoint" />
          </mxGeometry>
        </mxCell>
        <mxCell id="8gRQs5-1PO1u6uqCk4zV-440" value="" style="endArrow=none;html=1;rounded=0;" edge="1" parent="1">
          <mxGeometry width="50" height="50" relative="1" as="geometry">
            <mxPoint x="1284" y="27" as="sourcePoint" />
            <mxPoint x="1296" y="27" as="targetPoint" />
          </mxGeometry>
        </mxCell>
        <mxCell id="8gRQs5-1PO1u6uqCk4zV-441" value="" style="shape=flexArrow;endArrow=classic;html=1;rounded=0;width=6.4;endSize=6.904000000000001;endWidth=11.040000000000001;" edge="1" parent="1">
          <mxGeometry width="50" height="50" relative="1" as="geometry">
            <mxPoint x="1079" y="102" as="sourcePoint" />
            <mxPoint x="1151" y="102" as="targetPoint" />
          </mxGeometry>
        </mxCell>
        <mxCell id="8gRQs5-1PO1u6uqCk4zV-458" value="&lt;span style=&quot;font-size: 6px;&quot;&gt;16 Kbps&lt;/span&gt;" style="text;html=1;align=center;verticalAlign=middle;whiteSpace=wrap;rounded=0;" vertex="1" parent="1">
          <mxGeometry x="909" y="17" width="32" height="6" as="geometry" />
        </mxCell>
        <mxCell id="8gRQs5-1PO1u6uqCk4zV-459" value="&lt;span style=&quot;font-size: 6px;&quot;&gt;16 Kbps&lt;/span&gt;" style="text;html=1;align=center;verticalAlign=middle;whiteSpace=wrap;rounded=0;" vertex="1" parent="1">
          <mxGeometry x="909" y="33" width="32" height="6" as="geometry" />
        </mxCell>
        <mxCell id="8gRQs5-1PO1u6uqCk4zV-460" value="&lt;span style=&quot;font-size: 6px;&quot;&gt;16 Kbps&lt;/span&gt;" style="text;html=1;align=center;verticalAlign=middle;whiteSpace=wrap;rounded=0;" vertex="1" parent="1">
          <mxGeometry x="909" y="48" width="32" height="6" as="geometry" />
        </mxCell>
        <mxCell id="8gRQs5-1PO1u6uqCk4zV-461" value="&lt;span style=&quot;font-size: 6px;&quot;&gt;16 Kbps&lt;/span&gt;" style="text;html=1;align=center;verticalAlign=middle;whiteSpace=wrap;rounded=0;" vertex="1" parent="1">
          <mxGeometry x="909" y="65" width="32" height="6" as="geometry" />
        </mxCell>
        <mxCell id="8gRQs5-1PO1u6uqCk4zV-462" value="&lt;span style=&quot;font-size: 6px;&quot;&gt;16 Kbps&lt;/span&gt;" style="text;html=1;align=center;verticalAlign=middle;whiteSpace=wrap;rounded=0;" vertex="1" parent="1">
          <mxGeometry x="909" y="81" width="32" height="6" as="geometry" />
        </mxCell>
        <mxCell id="8gRQs5-1PO1u6uqCk4zV-463" value="&lt;span style=&quot;font-size: 6px;&quot;&gt;16 Kbps&lt;/span&gt;" style="text;html=1;align=center;verticalAlign=middle;whiteSpace=wrap;rounded=0;" vertex="1" parent="1">
          <mxGeometry x="909" y="96" width="32" height="6" as="geometry" />
        </mxCell>
        <mxCell id="8gRQs5-1PO1u6uqCk4zV-464" value="&lt;span style=&quot;font-size: 6px;&quot;&gt;16 Kbps&lt;/span&gt;" style="text;html=1;align=center;verticalAlign=middle;whiteSpace=wrap;rounded=0;" vertex="1" parent="1">
          <mxGeometry x="909" y="111" width="32" height="6" as="geometry" />
        </mxCell>
        <mxCell id="8gRQs5-1PO1u6uqCk4zV-465" value="&lt;span style=&quot;font-size: 6px;&quot;&gt;16 Kbps&lt;/span&gt;" style="text;html=1;align=center;verticalAlign=middle;whiteSpace=wrap;rounded=0;" vertex="1" parent="1">
          <mxGeometry x="909" y="127" width="32" height="6" as="geometry" />
        </mxCell>
        <mxCell id="8gRQs5-1PO1u6uqCk4zV-466" value="&lt;span style=&quot;font-size: 6px;&quot;&gt;128 Kbps&lt;/span&gt;" style="text;html=1;align=center;verticalAlign=middle;whiteSpace=wrap;rounded=0;" vertex="1" parent="1">
          <mxGeometry x="1028.96" y="81" width="32" height="6" as="geometry" />
        </mxCell>
        <mxCell id="8gRQs5-1PO1u6uqCk4zV-467" value="" style="group" connectable="0" vertex="1" parent="1">
          <mxGeometry x="985" y="163" width="244" height="75" as="geometry" />
        </mxCell>
        <mxCell id="8gRQs5-1PO1u6uqCk4zV-442" value="1" style="rounded=0;whiteSpace=wrap;html=1;" vertex="1" parent="8gRQs5-1PO1u6uqCk4zV-467">
          <mxGeometry x="13" y="25" width="29" height="29" as="geometry" />
        </mxCell>
        <mxCell id="8gRQs5-1PO1u6uqCk4zV-443" value="2" style="rounded=0;whiteSpace=wrap;html=1;" vertex="1" parent="8gRQs5-1PO1u6uqCk4zV-467">
          <mxGeometry x="42" y="25" width="29" height="29" as="geometry" />
        </mxCell>
        <mxCell id="8gRQs5-1PO1u6uqCk4zV-444" value="3" style="rounded=0;whiteSpace=wrap;html=1;" vertex="1" parent="8gRQs5-1PO1u6uqCk4zV-467">
          <mxGeometry x="71" y="25" width="29" height="29" as="geometry" />
        </mxCell>
        <mxCell id="8gRQs5-1PO1u6uqCk4zV-445" value="4" style="rounded=0;whiteSpace=wrap;html=1;" vertex="1" parent="8gRQs5-1PO1u6uqCk4zV-467">
          <mxGeometry x="100" y="25" width="29" height="29" as="geometry" />
        </mxCell>
        <mxCell id="8gRQs5-1PO1u6uqCk4zV-446" value="5" style="rounded=0;whiteSpace=wrap;html=1;" vertex="1" parent="8gRQs5-1PO1u6uqCk4zV-467">
          <mxGeometry x="129" y="25" width="28" height="29" as="geometry" />
        </mxCell>
        <mxCell id="8gRQs5-1PO1u6uqCk4zV-447" value="6" style="rounded=0;whiteSpace=wrap;html=1;" vertex="1" parent="8gRQs5-1PO1u6uqCk4zV-467">
          <mxGeometry x="157" y="25" width="29" height="29" as="geometry" />
        </mxCell>
        <mxCell id="8gRQs5-1PO1u6uqCk4zV-448" value="7" style="rounded=0;whiteSpace=wrap;html=1;" vertex="1" parent="8gRQs5-1PO1u6uqCk4zV-467">
          <mxGeometry x="186" y="25" width="29" height="29" as="geometry" />
        </mxCell>
        <mxCell id="8gRQs5-1PO1u6uqCk4zV-449" value="8" style="rounded=0;whiteSpace=wrap;html=1;" vertex="1" parent="8gRQs5-1PO1u6uqCk4zV-467">
          <mxGeometry x="215" y="25" width="29" height="29" as="geometry" />
        </mxCell>
        <mxCell id="8gRQs5-1PO1u6uqCk4zV-450" value="" style="endArrow=none;html=1;rounded=0;" edge="1" parent="8gRQs5-1PO1u6uqCk4zV-467">
          <mxGeometry width="50" height="50" relative="1" as="geometry">
            <mxPoint x="13" y="16" as="sourcePoint" />
            <mxPoint x="244" y="16" as="targetPoint" />
          </mxGeometry>
        </mxCell>
        <mxCell id="8gRQs5-1PO1u6uqCk4zV-451" value="" style="endArrow=none;html=1;rounded=0;" edge="1" parent="8gRQs5-1PO1u6uqCk4zV-467">
          <mxGeometry width="50" height="50" relative="1" as="geometry">
            <mxPoint x="13" y="19" as="sourcePoint" />
            <mxPoint x="13" y="13" as="targetPoint" />
          </mxGeometry>
        </mxCell>
        <mxCell id="8gRQs5-1PO1u6uqCk4zV-452" value="" style="endArrow=none;html=1;rounded=0;" edge="1" parent="8gRQs5-1PO1u6uqCk4zV-467">
          <mxGeometry width="50" height="50" relative="1" as="geometry">
            <mxPoint x="244" y="19" as="sourcePoint" />
            <mxPoint x="244" y="13" as="targetPoint" />
          </mxGeometry>
        </mxCell>
        <mxCell id="8gRQs5-1PO1u6uqCk4zV-453" value="" style="endArrow=none;html=1;rounded=0;" edge="1" parent="8gRQs5-1PO1u6uqCk4zV-467">
          <mxGeometry width="50" height="50" relative="1" as="geometry">
            <mxPoint x="13.134228187919462" y="62" as="sourcePoint" />
            <mxPoint x="41.950000000000045" y="62" as="targetPoint" />
          </mxGeometry>
        </mxCell>
        <mxCell id="8gRQs5-1PO1u6uqCk4zV-454" value="" style="endArrow=none;html=1;rounded=0;" edge="1" parent="8gRQs5-1PO1u6uqCk4zV-467">
          <mxGeometry width="50" height="50" relative="1" as="geometry">
            <mxPoint x="13.049999999999955" y="65" as="sourcePoint" />
            <mxPoint x="13" y="59" as="targetPoint" />
          </mxGeometry>
        </mxCell>
        <mxCell id="8gRQs5-1PO1u6uqCk4zV-455" value="" style="endArrow=none;html=1;rounded=0;" edge="1" parent="8gRQs5-1PO1u6uqCk4zV-467">
          <mxGeometry width="50" height="50" relative="1" as="geometry">
            <mxPoint x="41.950000000000045" y="65" as="sourcePoint" />
            <mxPoint x="41.950000000000045" y="59" as="targetPoint" />
          </mxGeometry>
        </mxCell>
        <mxCell id="8gRQs5-1PO1u6uqCk4zV-456" value="&lt;font style=&quot;font-size: 6px;&quot;&gt;62.5 x 10&lt;/font&gt;&lt;font style=&quot;font-size: 6px;&quot;&gt;ˆ&lt;/font&gt;&lt;font style=&quot;font-size: 6px;&quot;&gt;(-6)&amp;nbsp;&lt;/font&gt;&lt;font&gt;&lt;span style=&quot;font-size: 6px;&quot;&gt;seg&lt;/span&gt;&lt;/font&gt;" style="text;html=1;align=center;verticalAlign=middle;whiteSpace=wrap;rounded=0;" vertex="1" parent="8gRQs5-1PO1u6uqCk4zV-467">
          <mxGeometry x="102" width="55" height="11" as="geometry" />
        </mxCell>
        <mxCell id="8gRQs5-1PO1u6uqCk4zV-457" value="&lt;font style=&quot;font-size: 6px;&quot;&gt;&amp;nbsp;7.8 x 10&lt;/font&gt;&lt;font style=&quot;font-size: 6px;&quot;&gt;ˆ&lt;/font&gt;&lt;font style=&quot;font-size: 6px;&quot;&gt;(-6)&amp;nbsp;&lt;/font&gt;&lt;font&gt;&lt;span style=&quot;font-size: 6px;&quot;&gt;seg&lt;/span&gt;&lt;/font&gt;" style="text;html=1;align=center;verticalAlign=middle;whiteSpace=wrap;rounded=0;" vertex="1" parent="8gRQs5-1PO1u6uqCk4zV-467">
          <mxGeometry y="64" width="55" height="11" as="geometry" />
        </mxCell>
        <mxCell id="8gRQs5-1PO1u6uqCk4zV-470" value="" style="shape=image;verticalLabelPosition=bottom;labelBackgroundColor=default;verticalAlign=top;aspect=fixed;imageAspect=0;image=data:image/png,iVBORw0KGgoAAAANSUhEUgAAA+wAAAFcCAYAAABSjDTUAAAMP2lDQ1BJQ0MgUHJvZmlsZQAASImVVwdYU8kWnluSkEBoAQSkhN4EESkBpITQAkjvNkISIJQYE4KKHV1UcO0iAjZ0VUSx0+yInUWx98WCgrIuFuzKmxTQdV/53nzf3PnvP2f+c+bcmXvvAKBxgiMS5aKaAOQJ88WxIQH05JRUOqkb4MAIaAMrYMHhSkTM6OgIAMtg+/fy7gZAZO1VR5nWP/v/a9Hi8SVcAJBoiNN5Em4exAcBwKu4InE+AEQZbzE1XyTDsAIdMQwQ4kUynKnAVTKcrsB75TbxsSyIWwFQUeNwxJkAqF+GPL2Amwk11PsgdhbyBEIANOgQ++blTeZBnAaxLbQRQSzTZ6T/oJP5N830IU0OJ3MIK+YiLyqBAokolzP9/0zH/y55udJBH9awqmWJQ2Nlc4Z5u5UzOVyG1SDuFaZHRkGsDfEHAU9uDzFKyZKGJijsUSOuhAVzBvQgduZxAsMhNoI4WJgbGaHk0zMEwWyI4QpBpwny2fEQ60O8iC8JilPabBJPjlX6QuszxCymkj/HEcv9ynw9kOYkMJX6r7P4bKU+pl6YFZ8EMQViywJBYiTE6hA7SXLiwpU2YwqzWJGDNmJprCx+S4hj+cKQAIU+VpAhDo5V2pfkSQbni23KErAjlXh/flZ8qCI/WCuXI48fzgW7zBcyEwZ1+JLkiMG58PiBQYq5Y918YUKcUueDKD8gVjEWp4hyo5X2uDk/N0TGm0PsKimIU47FE/PhglTo4xmi/Oh4RZx4YTYnLFoRD74cRAAWCAR0IIU1HUwG2UDQ3tvQC+8UPcGAA8QgE/CBo5IZHJEk7xHCaxwoBH9CxAeSoXEB8l4+KID81yFWcXUEGfLeAvmIHPAU4jwQDnLhvVQ+SjjkLRE8gYzgH945sHJhvLmwyvr/PT/IfmeYkIlQMtJBj3SNQUtiEDGQGEoMJtrhhrgv7o1HwKs/rC44A/ccnMd3e8JTQgfhEeE6oZNwe5KgSPxTlGNBJ9QPVuYi/cdc4NZQ0w0PwH2gOlTG9XBD4Ii7Qj9M3A96doMsSxm3LCv0n7T/NoMfnobSjuxMRsnDyP5k259Hqturuw2pyHL9Y34UsaYP5Zs11POzf9YP2efBNvxnS2wRdgA7i53EzmNHsAZAx45jjVgbdlSGh1bXE/nqGvQWK48nB+oI/uFv8MnKMilxrnXucf6i6MvnT5O9owFrsmi6WJCZlU9nwi8Cn84Wcp1G0F2cXVwBkH1fFK+vNzHy7wai1/adm/8HAD7HBwYGDn/nwo4DsM8Dbv+m75wtA346VAE418SVigsUHC67EOBbQgPuNANgAiyALZyPC3AH3sAfBIEwEAXiQQqYCKPPgutcDKaCmWAeKAalYDlYAyrARrAF7AC7wX7QAI6Ak+AMuAgug+vgLlw9XeAF6APvwGcEQUgIFaEhBogpYoU4IC4IA/FFgpAIJBZJQdKQTESISJGZyHykFFmJVCCbkRpkH9KEnETOIx3IbeQh0oO8Rj6hGKqG6qDGqDU6EmWgTDQcjUcnoJnoFLQQXYAuRcvRanQXWo+eRC+i19FO9AXajwFMFdPDzDBHjIGxsCgsFcvAxNhsrAQrw6qxOqwZPuerWCfWi33EiTgNp+OOcAWH4gk4F5+Cz8aX4BX4Drweb8Wv4g/xPvwbgUowIjgQvAhsQjIhkzCVUEwoI2wjHCKchnupi/COSCTqEW2IHnAvphCziTOIS4jriXuIJ4gdxMfEfhKJZEByIPmQokgcUj6pmLSOtIt0nHSF1EX6oKKqYqriohKskqoiVClSKVPZqXJM5YrKM5XPZE2yFdmLHEXmkaeTl5G3kpvJl8hd5M8ULYoNxYcST8mmzKOUU+oopyn3KG9UVVXNVT1VY1QFqnNVy1X3qp5Tfaj6UU1bzV6NpTZeTaq2VG272gm122pvqFSqNdWfmkrNpy6l1lBPUR9QP6jT1J3U2eo89Tnqler16lfUX2qQNaw0mBoTNQo1yjQOaFzS6NUka1prsjQ5mrM1KzWbNG9q9mvRtEZpRWnlaS3R2ql1Xqtbm6RtrR2kzdNeoL1F+5T2YxpGs6CxaFzafNpW2mlalw5Rx0aHrZOtU6qzW6ddp09XW9dVN1F3mm6l7lHdTj1Mz1qPrZert0xvv94NvU/DjIcxh/GHLR5WN+zKsPf6w/X99fn6Jfp79K/rfzKgGwQZ5BisMGgwuG+IG9obxhhONdxgeNqwd7jOcO/h3OElw/cPv2OEGtkbxRrNMNpi1GbUb2xiHGIsMl5nfMq410TPxN8k22S1yTGTHlOaqa+pwHS16XHT53RdOpOeSy+nt9L7zIzMQs2kZpvN2s0+m9uYJ5gXme8xv29BsWBYZFistmix6LM0tRxrOdOy1vKOFdmKYZVltdbqrNV7axvrJOuF1g3W3Tb6NmybQptam3u2VFs/2ym21bbX7Ih2DLscu/V2l+1Rezf7LPtK+0sOqIO7g8BhvUPHCMIIzxHCEdUjbjqqOTIdCxxrHR866TlFOBU5NTi9HGk5MnXkipFnR35zdnPOdd7qfHeU9qiwUUWjmke9drF34bpUulwbTR0dPHrO6MbRr1wdXPmuG1xvudHcxrotdGtx++ru4S52r3Pv8bD0SPOo8rjJ0GFEM5YwznkSPAM853ge8fzo5e6V77Xf6y9vR+8c753e3WNsxvDHbB3z2Mfch+Oz2afTl+6b5rvJt9PPzI/jV+33yN/Cn+e/zf8Z046ZzdzFfBngHCAOOBTwnuXFmsU6EYgFhgSWBLYHaQclBFUEPQg2D84Mrg3uC3ELmRFyIpQQGh66IvQm25jNZdew+8I8wmaFtYarhceFV4Q/irCPEEc0j0XHho1dNfZepFWkMLIhCkSxo1ZF3Y+2iZ4SfTiGGBMdUxnzNHZU7MzYs3G0uElxO+PexQfEL4u/m2CbIE1oSdRIHJ9Yk/g+KTBpZVJn8sjkWckXUwxTBCmNqaTUxNRtqf3jgsatGdc13m188fgbE2wmTJtwfqLhxNyJRydpTOJMOpBGSEtK25n2hRPFqeb0p7PTq9L7uCzuWu4Lnj9vNa+H78NfyX+W4ZOxMqM70ydzVWZPll9WWVavgCWoELzKDs3emP0+Jypne85AblLunjyVvLS8JqG2MEfYOtlk8rTJHSIHUbGoc4rXlDVT+sTh4m0SRDJB0pivA3/k26S20l+kDwt8CyoLPkxNnHpgmtY04bS26fbTF09/Vhhc+NsMfAZ3RstMs5nzZj6cxZy1eTYyO312yxyLOQvmdM0NmbtjHmVezrzfi5yLVha9nZ80v3mB8YK5Cx7/EvJLbbF6sbj45kLvhRsX4YsEi9oXj168bvG3El7JhVLn0rLSL0u4Sy78OurX8l8HlmYsbV/mvmzDcuJy4fIbK/xW7FiptbJw5eNVY1fVr6avLln9ds2kNefLXMs2rqWsla7tLI8ob1xnuW75ui8VWRXXKwMq91QZVS2uer+et/7KBv8NdRuNN5Zu/LRJsOnW5pDN9dXW1WVbiFsKtjzdmrj17G+M32q2GW4r3fZ1u3B7547YHa01HjU1O412LqtFa6W1PbvG77q8O3B3Y51j3eY9entK94K90r3P96Xtu7E/fH/LAcaBuoNWB6sO0Q6V1CP10+v7GrIaOhtTGjuawppamr2bDx12Orz9iNmRyqO6R5cdoxxbcGzgeOHx/hOiE70nM08+bpnUcvdU8qlrrTGt7afDT587E3zm1Fnm2ePnfM4dOe91vukC40LDRfeL9W1ubYd+d/v9ULt7e/0lj0uNlz0vN3eM6Th2xe/KyauBV89cY1+7eD3yeseNhBu3bo6/2XmLd6v7du7tV3cK7ny+O/ce4V7Jfc37ZQ+MHlT/YffHnk73zqMPAx+2PYp7dPcx9/GLJ5InX7oWPKU+LXtm+qym26X7SE9wz+Xn4553vRC9+Nxb/KfWn1UvbV8e/Mv/r7a+5L6uV+JXA6+XvDF4s/2t69uW/uj+B+/y3n1+X/LB4MOOj4yPZz8lfXr2eeoX0pfyr3Zfm7+Ff7s3kDcwIOKIOfJfAQxWNCMDgNfbAaCmAECD5zPKOMX5T14QxZlVjsB/woozory4A1AH/99jeuHfzU0A9m6Fxy+orzEegGgqAPGeAB09eqgOntXk50pZIcJzwKaor+l56eDfFMWZ84e4f26BTNUV/Nz+C/7ofIUEMu3vAAAAimVYSWZNTQAqAAAACAAEARoABQAAAAEAAAA+ARsABQAAAAEAAABGASgAAwAAAAEAAgAAh2kABAAAAAEAAABOAAAAAAAAAJAAAAABAAAAkAAAAAEAA5KGAAcAAAASAAAAeKACAAQAAAABAAAD7KADAAQAAAABAAABXAAAAABBU0NJSQAAAFNjcmVlbnNob3QXBP5lAAAACXBIWXMAABYlAAAWJQFJUiTwAAAB12lUWHRYTUw6Y29tLmFkb2JlLnhtcAAAAAAAPHg6eG1wbWV0YSB4bWxuczp4PSJhZG9iZTpuczptZXRhLyIgeDp4bXB0az0iWE1QIENvcmUgNi4wLjAiPgogICA8cmRmOlJERiB4bWxuczpyZGY9Imh0dHA6Ly93d3cudzMub3JnLzE5OTkvMDIvMjItcmRmLXN5bnRheC1ucyMiPgogICAgICA8cmRmOkRlc2NyaXB0aW9uIHJkZjphYm91dD0iIgogICAgICAgICAgICB4bWxuczpleGlmPSJodHRwOi8vbnMuYWRvYmUuY29tL2V4aWYvMS4wLyI+CiAgICAgICAgIDxleGlmOlBpeGVsWURpbWVuc2lvbj4zNDg8L2V4aWY6UGl4ZWxZRGltZW5zaW9uPgogICAgICAgICA8ZXhpZjpQaXhlbFhEaW1lbnNpb24+MTAwNDwvZXhpZjpQaXhlbFhEaW1lbnNpb24+CiAgICAgICAgIDxleGlmOlVzZXJDb21tZW50PlNjcmVlbnNob3Q8L2V4aWY6VXNlckNvbW1lbnQ+CiAgICAgIDwvcmRmOkRlc2NyaXB0aW9uPgogICA8L3JkZjpSREY+CjwveDp4bXBtZXRhPgrlgc6CAAAAHGlET1QAAAACAAAAAAAAAK4AAAAoAAAArgAAAK4AAE7nXePbSAAAQABJREFUeAHsnQe8FOXV/8+liiCKFbBgA+y9BXuL5Y2K2HtNUWOMMSYaS0xijNEklsQSS2yJsYsNhDf2rlFExRILFoLYQHpn/uf7+M7+9w579+7uXbjPXH7zYdm9O+3M98zMPr/nnOdMQ+KTaRIBERABERABERABERABERABERABEYiKQIMEe1T+kDEiIAIiIAIiIAIiIAIiIAIiIAIiEAhIsOtEEAEREAEREAEREAEREAEREAEREIEICUiwR+gUmSQCIiACIiACIiACIiACIiACIiACEuw6B0RABERABERABERABERABERABEQgQgIS7BE6RSaJgAiIgAiIgAiIgAiIgAiIgAiIgAS7zgEREAEREAEREAEREAEREAEREAERiJCABHuETpFJIiACIiACIiACIiACIiACIiACIiDBrnNABERABERABERABERABERABERABCIkIMEeoVNkkgiIgAiIgAiIgAiIgAiIgAiIgAhIsOscEAEREAEREAEREAEREAEREAEREIEICUiwR+gUmSQCIiACIiACIiACIiACIiACIiACEuw6B0RABERABERABERABERABERABEQgQgIS7BE6RSaJgAiIgAiIgAiIgAiIgAiIgAiIgAS7zgEREAEREAEREAEREAEREAEREAERiJCABHuETpFJIiACIiACIiACIiACIiACIiACIiDBrnNABERABERABERABERABERABERABCIkIMEeoVNkkgiIgAiIgAiIgAiIgAiIgAiIgAhIsOscEAEREAEREAEREAEREAEREAEREIEICUiwR+gUmSQCIiACIiACIiACIiACIiACIiACEuw6B0RABERABERABERABERABERABEQgQgIS7BE6RSaJgAiIgAiIgAiIgAiIgAiIgAiIgAS7zgEREAEREAEREAEREAEREAEREAERiJCABHuETpFJIiACIiACIiACIiACIiACIiACIiDBrnNABERABERABERABERABERABERABCIkIMEeoVNkkgiIgAiIgAiIgAiIgAiIgAiIgAhIsOscEAEREAEREAEREAEREAEREAEREIEICUiwR+gUmSQCIiACIiACIiACIiACIiACIiACEuw6B0RABERABERABERABERABERABEQgQgIS7BE6RSaJgAiIgAiIgAiIgAiIgAiIgAiIgAS7zgEREAEREAEREAEREAEREAEREAERiJCABHuETpFJIiACIiACIiACIiACIiACIiACIiDBrnNABERABERABERABERABERABERABCIkIMEeoVNkkgiIgAiIgAiIgAiIgAiIgAiIgAhIsOscEAEREAEREAEREAEREAEREAEREIEICUiwR+gUmSQCIiACIiACIiACIiACIiACIiACEuw6B0RABERABERABERABERABERABEQgQgIS7BE6RSaJgAiIQFsikCSJzZs3z2bMmGFz5swJh9axY0fr3LmztW/fvslDnT17ts2aNct4Z+rUqVN4dejQocl1Ss1g/3PnzjXeS00NDQ3Gq127duG91DIL6zvsnDZtmsGHVzk+MIUnjDg2uMCoqXUmTJhgt956q3344YeB/ZFHHmn9+vWb79Dg/fjjj9s777xju+22m62++upNbnO+lf0L7MKmmTNnhs8cB3bxDmcmzoUhQ4bY2LFj7YADDrDlllsu8A8z9Z8IiIAIiIAIiECBgAR7AYU+iIAIiIAI1JsAwu3rr7+2ESNG2LPPPmuffPJJEJZ9+/a1TTfd1DbYYAPr0aNHQRAiPBGM48aNs7feesueeuopGzNmTJi/5ppr2nrrrWcbbbSR9ezZM2wnFYBN2Y14/Oqrr+zJJ58sdBZkl2UbSy+9tG255Za2xBJLZGcvtL8R359//rlddtllQcD+4Ac/sG7dupXc/9SpU4PwfuGFF+w///mPTZ8+3Xr37m1bbbWVrbXWWuF4EMjpxPxHHnnE2CYdAnRO7LrrrnbFFVfYUkstVRDL8Bo9erR9//vft88++8z++c9/2tprr13wT7q9Uu9pZwPrP/HEEzZq1KggzFdeeeXgN/iuuOKKwW8I9muuucbOP/98O+uss+y4445rVfaljkffiYAIiIAIiEAUBLxxpEkEREAEREAE6k7AxV/ywQcfJIcddljSvXv3xAVkeHkkOPEocOJCPfnpT3+auKAv7NvFeuICNNl9992Trl27huVYnnVdZCYuqBOP+iYvvvhi4p0BhfWa+uDCMBk8eHDSpUuXxIV52Ab7Ln559DfZbLPNEo8oN7WZBf49rCZNmpT8/ve/Tzje/v37Jx59nm+/LAejm266KfGOi7Asy6cvF9/J0Ucfnbz//vuJC+jC+q+99lqyxRZbJBzr9773vbB97/RIXDQnLubDcmzbo+LJaaedliy//PKJi/bEOxEK2yj3gXWnTJmSXH311Yl3xhT8jN9gjS932GGH5KWXXgp+Y/n//ve/iXcGJGussUYyfPjwhO80iYAIiIAIiIAINCagCHsU3SYyQgREQATaHoGJEyfaGWecYTfffHOIbhNNJwLsP0P22GOPmYt5cyFnf/rTn+yII44I6dJE4I899tgQWScKvNpqq4XoLJFmF3sh+kskd8CAAXbDDTcY0dtyE5FoIrm/+MUvwr5IvXZx22gV9kNq+B//+EdbZZVVGs1bGH/AgyyEp59+2k4++WT7+OOPgz0w6tWrVyMTyD4g64BIOazgQtbBkksuaS7Sw4vtMf+cc84J2Qukpv/85z+3hx56yFy025///Ge744477JJLLglR7fvvvz/shwg/jPfee29zwW733HNPiK43MqCJP4iYY+/hhx9uLtwL0X7S6cmsGDlyZEiR32OPPezKK68M2yfST4T/oosuMhfz5mI/ZAY0lzXRhAn6WgREQAREQATaJoHG+l1/iYAIiIAIiEDLCRAtdQGXuAAO0VUX5CGCPX78+ITXc889l3h6dLLYYouFSDGRXSLCLiSTZZZZJkRlDz744MRT6ZMvv/wy8fHXyRtvvJEcc8wxiY99T1yoJrfffnuICJezluj9SSedFNYh8vzvf/87ef311xu92C6ZAGmkuantEW0mqo+tRLmzEWHs5/t0fnGEu9Q22R/R/x/+8IfJPvvsk7i4DRFwb200GWGfPHlycuihhyaLL754stJKKyXXXXdd4sI9+eKLL5KXX345bIeotqfHJ//7v/8bdos9RLb/9a9/Je+9916wER88+uijYRn4cixsA0ZEw3/84x8n7KvSiYi+d8aEDAayA+67777gN++0SbwDIvEOhOADH3oQ/JiyIvJPRJ5jefDBB4Ntle6T5fCJd8qELA0f+hBsxkdZ3xRvk33DhIwGzg/Wx2/lJrbHdski4MX6THyfvsqtr3kiIAIiIAIiUCsBRdjbZj+MjkoEREAEWpWAiyI78MADbdiwYSFqSnSXsdUuJoNdLnJCBPjee+8NUV4XayFK/Jvf/MY8LTxEaFnX06ULEXHWYWy0p9iHMe6nnnqqnXfeeWXHPrsIDeOj2dYf/vAH83TwUHCtFjhEtBkzTmSYiPb2228fxn+zLf8RDmPlvZMiFLgjku9p9mG5pvblgth8SIDdeeedIQMBZkS5XRgGVi6oG0XYmU/BuE022SREq/fff3+76qqrQpSdqLSLSHvzzTdDtJrtMC6cKLqnpDdlQuF7tu3i2b7zne+EGgJkJRBpJ/uguYljv+WWW8xFvpHR4J0INmjQoJDRkK7L+PnTTz89RN+vvfZa23bbbUNGBfv1DgjzlHjbbrvt7LbbbjMfvlAoTpeun31nPfZFYTzOibfffjv4hUyJDTfcMLDP1jnATqL/+JFjpa4CWSDeWWA77bRTKK7nnUWFc5R9sg77YR3v6AmZAmRokC1CDQaYe4eH+ZCPkOmg7ICsp/S3CIiACIhAiwn4j5EmERABERABEagbASKORDs9nTtE0D1NOkQwiYYSyUxfRHRdYCYutsJ3RC6JxBI9/p//+Z/EC8/NZ5OnVicu/EMk1zsEwn7mW6joCyLn22yzTbDDU7xDlJRIKS/swCbsrWQiEs84cMbSEyn2iuuFMd5sz8VxiPwzZvuoo44qOQa9eD8u/EOE3TsdknPPPTf52c9+FiLrjLXnGLNj2Fn+xhtvDJFq7zBIXPgWby58JlrsQjKMaee40+j5fAtmvmA979AIx7b++usn7777bmaJpv/k2H3oQxi3jt1E1FNfp5yJ1lMjAIZEtouZ/+Mf/wg8GX/P/Oai3VhCZPzCCy9MfEjEfOPlqVew5557Jq+++mphW+yPjAZPwQ+M8VE67p/P7Puggw5KPvroo4JP2Q/r/O1vfwvr4HeW5cU+PI0/2WuvvUJ9Bu9saLQe62oSAREQAREQgXoQUIS9xV0e2oAIiIAIiEAxARdpIRLtad7h60svvTSMXScK6inpIYLLuGsi0FQNJ6LqIihEK128hXHURJGJpLt4L2zaf/TM07qNx5FRwdwFrp199tlNVlJnRSKpRHC9wFmIxrMfF3JGdHvdddcNY+E333zzEKVvLppMNNVT+Y3ItovOsK4Xfwvj3olsM36bY6QCPhkFjD/PjpcvHIx/cBEZovEuUMPXjGP39H174IEHwjayEXaiwWeeeWaIYC+77LIhe8HFdfEmQ7V4Lxpn2OWp6SF6v+qqqzYbZac6PbzJECA6/te//jWMf2+08Sb+4HFx3/3ud8Mx77vvvqFeAN95ir65ADaq++NP7CESjQ+KI9GMvd9ll12MbAiyIPBvsd+zu4UbbOCNHxmX78I5bJN9co4QSd9xxx3DY+yo/M/fHNMFF1wQMhg474iq4x/G2FNpHz94J0eojUDUnfONyD81FTgenmbAsaywwgohsu/DC8I6HAsV8GHHsWkSAREQAREQgboSqIfq1zZEQAREQAREICVAVNIfBxYij4yHPuGEE8I4dReZCZFhKsZTIX7jjTdOvNBbiJITAfU054QoMuOeifgSpWViHp9Hjx6dEFVn3DvbcWEbIuXpfku9eyG3MJ6bcd3sk8g40VSqzbMNxk4TDfdHkCVUlC83YQdjv72AWxjnzTZcqCb+2Lkwdpxx9Z4KnxAx5jiqnchK8M6AEMEtFWFnvovpEFGmsjpj17MT7InYY8s666zTKMqcXbb4b8b2w4Ko8+WXXx7GaRfPL/eZTAAfHhDs8lT3xIVyYF7M2YsHhvoDZEik47/TbXpnQciowK9H+xh6sgLKTRzj7373u7A/qsw///zzIWpPhoZ35CReYDD4gSr4ZFgQsfdHBCaeKh/OHe9UCGP6qYvAi6cS+PCKkLnAOXrXXXeFdcgA+da3vhV8DRsvzpd8+umnwT7OF2wlG4Rzi+NOz9dytmueCIiACIiACFRLgB5kTSIgAiIgAiJQNwKIbY9mBlHsEccghBBviFCEjUfXE8QUQgeBS2o5ogpBnJ1IqSb92ceOhxRkxD6dAKQvI57KTWxv6NChQbwiRBFjPAqNx8xR5A3Ri+DiUWekNiO8S9lQvA/sZL90NiAw6QTwiHBBwB9//PEhjZrOh2qn5gQ7wnbnnXcOopq092zKPPuj08EzGkKniEeDQ3E/bG5uokgcxf7wycMPP9xIVLM+YjgVuOk7qe34hzRyHotHKj/r4x+KDSJ2eSHW4Uwa+SGHHBKGOhRzpoOGR83hB46PlPpyE7b86Ec/Ch0bFKyjuB4dKQh5RDMCnE4Lf757Mto7eTgf//KXvwRuPK6O4nYsi+28YMY6nJfY4GPtQ6cRAh3/cs55Zf1G5yjrvfLKK6FwIutIsJfzmOaJgAiIgAi0hIAEe0voaV0REAEREIH5CCCoiJwT5fWUsCB4fvWrXwWhhpBlPDNRTMQTgh5Bl457Lt4Y4oux1J4GXoj+sk3EOt83J0TZlxe1SzyFOYx1phMB8c/EPCqnE21FaCIoGatcSZSUdb2IWqhuzvHxYhs8Hx7xWuvUnGBnTD/RazofGJ9eaow/4hNxSvZANYKd57qzDoKbZ9ynbBHWRJq9GGAQ1Qjr9PWTn/wk1B/AF0TzUw5erC50sMCSF1X5yQzA13Ry0DmA4E0nBDUimX1TI4BK9uUm1qU6PsvDnSg7tQ/I6sAWGLDftFOADgZsZgw6Few5J/B98YsK+t/+9reDYB84cGDIXqDjgywKOpqogp9uL7WN8wChzjFJsKdU9C4CIiACIlBvAhLs9Saq7YmACIjAIk6gWLDzCDaEECI9FcMIHSKcpCEjwElT97HChagu81neK4YHsUTEligm0VQinURTiwVZOdyIN4Qw65CmzrbTidRs0qmJBiOCTznllLDfdH65d0SmV3gP6yFUySDA3mIhWm79UvOaE+zMR0wiVInwNxVhv/jii0MniY/RT3hsWsq91D7T7y677LLgC7aNYE45IVJHe5QaIU2EvPhFmvhj/ug+iskh2BHkFIHjb9imAhcmPqY/ZFUgmklZJzqfTviIDgF8wHZIXy83sV2yIXi8HZ0MnBvYRSScLAE6Mygux5ABOh5Ik6dAHH7i+Djn8FfxC2HOdugA8PH0QaBTBJBzj4JypVhjBwUV2Z4EezmPaZ4IiIAIiEBLCEiwt4Se1hUBERABEZiPAMI4TYlHzFx00UUF8ZYujNh55plngsBCdF1//fVBUCOwSDkn5ZnIOEIKEYh4IvKLkE+FYLqtlrynVeQRi6TJI+ybm9g/UWeeLY8ARQgSoUf01jJ2Pd1fc4Kd7AAiyYhOshKI+mYnOkKIfCM0vdBbWCYV39lli//+05/+FNZh26SHpyKfY0Xw8iz7PfbYo9GLTAcqscOQFH0E76677pqQup+dWIZIOLzIauBY06lYsFOhHsHf3EQnAKKdegEnn3xyEOk8e57zDV/QCeSPqEv8MXiJFxwspOwj6MlSKD6W3XffPeGVfkfFe7ZNhxIcvThdyeEXsOFpBuxPgr05j2m+CIiACIhArQQk2Gslp/VEQAREQARKEkCAkfaMECfqSYp2VmTzN2KPMewsd8MNNwSxi5BDlCL+EOtESykcl42Ol9xx5kvsQKyN9ggxhczSNO/ixRB0acE0IrbNCXbsJnpM+jW2I/Sxk+iyP5s7iM1KBHKxDenn5gQ7mQvnn39+YMO+GZ9fPGEby/BIMyLORJVJB8+yL14n/UwHC75CsHsl/EasEMeMM6eTovjFtplHan6aTo6AZZnsRLQbMY5gP+CAAxoJdnybPhZuq622Ch0A2fWL/2afdF6wHzIdiNZjAx06DL1gLDrHT3YHQzMYbkEnAfvGBlL0i4+Dz3QSkU5PdJ/P+IKoPx0AdHxkhzrAFLsZdsC5KsFe7CF9FgEREAERqCcBCfZ60tS2REAEREAEQnSWKC3RTMb3EolFLBcLR0Qt1cgR60RDH3/88TD2mAJ0fIe4ooAb6dmsV+pVjJr5bDNdjnkIL8Q4z4Onmnu2+jjLUh29T58+QXBTpKy5CDnHQUeDPyotiHXeEZtEYhGIiGXEJNuudmpOsLNvRCkRXQQp9hZ3DhAVhxdinmX88W4Vm1BcdI6ibHR2VDohmhkjTucFwxYQt8XHz2d/dFrgjF9//etfNxp6QNYEEfw0Ql+q+n2xLfjx+9//fqiof88994ThFcXzEeRUhKfz4Sh/AgCCHR+x79VXXz10SGTtY5uMo2esPc+3x4fUNOBc5PwZNmxYo2Oi04BCiGnxRAn2Yg/oswiIgAiIQD0JSLDXk6a2JQIiIAIiEIQNgoYUY4QjAnLw4MEhGgoeItREMxG7CE+KeiFWieKm0XWqufsztUPklHmlXghFBCtClsjoHXfckSDgSGfme0SXP0M7CElSyCkUR8p4OhF955FzCDsqyCNaiwVwulzxO5FcHr1GRwRF826//fZgN+nXiHbGRRPVJdJd7dScYEdkwogx1eyfyC+Vyjl+7Oa4GVON8EVkUj290gmhn3ZCYD8iutKJfVMEDnGLaOexd6TRpxPHxbh1fM0yZExgczoR4WY4AsdElgN/l5sQ16Sww5uIPuPLUwHOO51FFJeDA0KdrAlYkEHAPqggj03pxHly9913h2g6nUccC+cvj6CDI+uQ6UFHAt/TmUFmBp0zdNJw/kiwpzT1LgIiIAIiUG8CDWzQx99pEgEREAEREIG6EeCnxYWZuQA3FzfmBcrMRZmtuOKK5mLQXDybR4vNBZJ5pN28sri5ULP99tvPvBCc+fh18xRzc7HUpE3+CDA77rjjzNPRzaOhdsEFF5gLKPPx8Lb11lubizfzaLH5eHhzkWce/TXvRDAX7+aCOtj35JNPmncgBNt8HLe5QGtyf9j997//3VwEmgtO8+dw229/+1tzkW5vvPGGeeeAeXTXvIideaaAefp1sKfJDWZmuLA0jxybVzEPtj766KPz2YOtbNsFcODoot1cvJoXSzPPFjDWYRnPKDBPDw+2ZXZT8k/27Z0X5sLVvPMhMPQMiZLLlvoSH/tYcnNhbC6kzQu32ZZbbhns8sJ3NmTIEPPsBfNsC7vwwguNbWMzE+tyDN7hEHh6ZkXYRqn98B3bueqqq+yXv/xlOD84d7wTw3xogo0ePTqcWx7RD/O8Q8X80XLmoty8DoL50wnCcv4YP/NH0YVzZ8SIEeadNeadDObC3K6++mrr169f8LEX8LNLLrnEXKTbgAEDzMfqh/2/+eab5hH2wJrj4Fhhz7moSQREQAREQATqSqDePQDangiIgAiIgAhAgPRyot5EtxkLnL4Y8010lOglBemIGhMZJUJMlXDmV/IiLZroKBFPxsmzvT6e3u7CqRDBZZz1OeecE+axf/ZLpJXt8zeRdcY3s2+ip+Um0tGJ3LKuC7qQEp1GdskawAa2x/aJuDcXKc7ui2PhGfFEockwKI5Sp8ummQMMF2BfZDBwTESv+UyEn6JqFG5rLlsg3Sbv+MpFcIgWUxxu1KhRxbOb/Qw7ItAcN1HqrK8ZHkHGhQvq+TiT2cCx8Mxzsiqa80MaRWeMPseLP3hnG6lfSVU/++yzQ6YDy+MfsgioAJ/aB2de2Mo7NQg47nQ4AOtRQI8ifmyv+LxhG2zLRXxgD/O0UF+zsLSACIiACIiACFRBQBH2unZ/aGMiIAIiIALFBFzEmFczD1FhotAugEJU3Yt1hUgu0c80ik4UnOgx0e9KJhe15hW8zdOwzVPD7amnngqfibi6cDcfsxw2gw1ekd780WLmqfPm6dDmafphGSLULtjNxVgh4tvUvp944gnzgmwMJTMfIx32ndrOOth/5513mncSmIvncHwcZ6UTUdyHH3442Oji0w455BBzMVlydRjdf//99sADD4SosovLkL3gqdkhik2mQHr8JTeQ+ZJjIjuADAQi9D6O2/wRcs0yKd4M2/DOF/PH25k/49x82EPwxxprrBGi3GRPZDlj91FHHWU+ZCJEvInEe+dD8WZLfmY9ziWvEh8yNYjOkwEBNx+nbp4qH6L2+CeN5GMfkXbvRArngwv4sG1YebG7kN3BeVMcJWcdH0YRoumcYz4ePmRNpNka/qSAkNng6fHmhQirYl7ywPSlCIiACIiACGQISLBngOhPERABERCB+hFA8HikN6QU847QQkAhikhfR2ynwhJhzYvlKpl87HBYn+2Rop6ux/dsv1ioMd8jt2H72MQ89uvjnMMrtaHcflmf7TCxHvsoXo/9p3bwfWpfuW0Wz4MNx8824MKrWDxml8UexDXrMaX7hCuf0+MvXq/cZzoyPJoc0uIZauAV6UP6eLl1svOwBZtSDsznGEpx5lg9E8C80Jt5pfcwrMEfCxeOO7vdUn/Dm32l5wz75rjhBns4ZBmk9sGuHDfmeY0E88fRheW8XkEYXsD3bJMXQp4UeTpoGIJA+jz71yQCIiACIiAC9SQgwV5PmtqWCIiACIiACOSUAOKXcdmMM6e2ANkOZBIsqImx6FdeeaX5sIgwdpxx6WQ+xCB6EeZ0JpBlgHA/8MADC2Pm6fAhw+Gmm24yf/RbyAgg0u9p8fN1ECwodtquCIiACIjAokNAgn3R8bWOVAREQAREQASaJIAQJTLuj10zr5QeUvoR0USss5HqJjdS4Qyi40Smd9hhh/B+zTXXGGnl9d5PhebMtxgsiMJvvvnmRuo80XqK4TFkgEwECsyRAk90n+KH2E8UPhb75zsgfSECIiACIpBbAhLsuXWdDBcBERABERCB+hJAqPrj7uzII48M6eD+mLxQrR/RXs+J6DrV/P1Z8ebPPw+V971gXD130eJtwYInGWAjtQvSFPriDW+//fahg4Mq9ZpEQAREQAREYEEQkGBfEFS1TREQAREQARHIKQGi7Dy2jKJxPK6MR/HVO02dfVCYjmJxpJKTgt/UeP3WxMgwATIBKAY4dOjQ0ImBnRSnI12e6LpXmA8R+Na0U/sWAREQARFouwQk2Nuub3VkIiACIiACIlATAVK9iSgjThHr9U71Ztu8SI2nQFy9OwRqOugmVsJO0uPJCsBeJmymAj3F9GK2vYlD0tciIAIiIAI5IiDBniNnyVQREAEREAEREAEREAEREAEREIFFh4AE+6Ljax2pCIiACIiACIiACIiACIiACIhAjghIsOfIWTJVBERABERABERABERABERABERg0SHQ6oJ9+vTpNnny5AJxxoR179698Lc+iIAIiIAIiIAIiIAIiIAIiIAIiEC9CKSPF6VOCRM1W5ZaaqkoC6C2umB//PHH7dRTTy2wHzBggF1xxRWFv/VBBERABERABERABERABERABERABOpFgKAxj+akqCgTQeMnnngiyqd+tLpgv/fee23//fcvsN9zzz3tgQceKPytDyIgAiIgAiIgAiIgAiIgAiIgAiJQLwKTJk2y3r17G8KdqVu3bjZ27Fjr2rVrvXZRt+1EIdgHDRpUOCAE+0MPPVT4Wx9EQAREQAREQAREQAREQAREQAREoF4EEOy9evUKj+xkmwj2cePGSbCXAkyEXYK9FBl9JwIiIAIiIAIiIAIiIAIiIAIiUG8CEuxVEJVgrwKWFhUBERABERABERABERABERABEWgRAQn2KvBJsFcBS4uKgAiIgAiIgAiIgAiIgAiIgAi0iIAEexX4JNirgKVFRUAEREAEREAEREAEREAEREAEWkRAgr0KfBLsVcDSoiIgAiIgAiIgAiIgAiIgAiIgAi0iIMFeBT4J9ipgaVEREAEREAEREAEREAEREAEREIEWEZBgrwKfBHsVsLSoCIiACIiACIiACIiACIiACIhAiwhIsFeBLyvYe/ToYf369atiC1pUBERABERABERABERABERABERABCojMHv2bBs5cqTNnTs3rKDnsJfhlhXsZRbVLBEQAREQAREQAREQAREQAREQARGoKwEJ9jI4JdjLwNEsERABERABERABERABERABERCBBUpAgr0MXgn2MnA0SwREQAREQAREQAREQAREQAREYIESkGAvgzcr2Lfccku76KKLyqyhWSIgAiIgAiIgAiIgAiIgAiIgAiJQG4Hp06fb3nvvbbNmzQobkGAvwzEr2Pfcc0976KGHyqyhWSIgAiIgAiIgAiIgAiIgAiIgAiJQGwFVia+CmwR7FbC0qAiIgAiIgAiIgAiIgAiIgAiIQIsISLBXgU+CvQpYWlQEREAEREAEREAEREAEREAERKBFBCTYq8AnwV4FLC0qAiIgAiIgAiIgAiIgAiIgAiLQIgIS7FXgk2CvApYWFQEREAEREAEREAEREAEREAERaBEBCfYq8EmwVwFLi4qACIiACIiACIiACIiACIiACLSIgAR7Ffgk2KuApUVFQAREQAREQAREQAREQAREQARaRECCvQp8EuxVwNKiIiACIiACIiACIiACIiACIiACLSIgwV4FPp65fsQRRxTW2GWXXeyOO+4o/K0PIiACIiACIiACIiACIiACIiACIlAvAlOnTrW+ffvajBkzwiYXX3xxe/fdd61Lly712kXdttOQ+FS3rdWwoTFjxthzzz1XWLN379629dZbF/7WBxEQAREQAREQAREQAREQAREQARGoF4FZs2bZkCFDbPbs2WGTnTp1sj333NM6duxYr13UbTutLtjnzp1rc+bMKRxQ+/btrUOHDoW/9UEEREAEREAEREAEREAEREAEREAE6kWAmHUq1tNtItYbGhrSP6N5b3XBHg0JGSICIiACIiACIiACIiACIiACIiACERGQYI/IGTJFBERABERABERABERABERABERABFICEuwpCb2LgAiIgAiIgAiIgAiIgAiIgAiIQEQEJNgjcoZMEQEREAEREAEREAEREAEREAEREIGUgAR7SkLvIiACIiACIiACIiACIiACIiACIhARAQn2iJwhU0RABERABERABERABERABERABEQgJSDBnpLQuwiIgAiIgAiIgAiIgAiIgAiIgAhERECCPSJnyBQREAEREAEREAEREAEREAEREAERSAlIsKck9C4CIiACIiACIiACIiACIiACIiACERGQYI/IGTJFBERABERABERABERABERABERABFICEuwpCb2LgAiIgAiIgAiIgAiIgAiIgAiIQEQEJNgjcoZMEQEREAEREAEREAEREAEREAEREIGUgAR7SkLvIiACIiACIiACIiACIiACIiACIhARAQn2iJwhU0RABERABERABERABERABERABEQgJSDBnpLQuwiIgAiIgAiIgAiIgAiIgAiIgAhERECCPSJnyBQREAEREAEREAEREAEREAEREAERSAlIsKck9C4CIiACIiACIiACIiACIiACIiACERGQYI/IGTJFBERABERABERABERABERABERABFICEuwpCb2LgAiIgAiIQA4JJIkb3RD+Fawv9V1hZgs/lNo2Jpj/1+B21Hsqte1S39Vrv6W2zXccd7sFeHzFPkxtKP6uXsen7YiACIiACOSLgAR7vvwla0VABERABESgQGDW3MR++cxE269/V1t/2Q7WyRXllNmJ3f2faTbN30/cuFth2Xp8QEie9eRE227lzra9v7p0aLDpcxJ79OOZ9tx/Z9pvtl0SjVnX6fKXJ1uPxdrbwL5drFvHBps1L7GRX8y2e/wYf7P1ktaxfX33OPjd6fbBxDl2zHpdrXvndjbX9zdmyjy7duQUO3OrJax7p3Z1Pb5XPptlD30ww763YTdbZrF29HvYl9Pn2V9fnWwHrbW4rb1Mx7ruTxsTAREQARHIF4FWF+yjRo2yW265JV/UZK0IiIAIiIAIREBgXkN7m7TKAOuy6oa28ZIzbfFJn9jnPda2kWO+tsVGP2tdvnynrlYiJqeuuKk19NnMNunZyZYY/x+bvHR/e3ncDLMPX7JuY0fUdX9sbPpya9nMVQfYhistactNeNOmdV/FRkzsZNNHj7Tunzxr7ZJ5dd3nzCVXtsmrbW/r9FnBVp44ymYtvqyNnLWsjR/9pvUY/bi1nzerrvub3WUZ+3q1HWzVVftY31kfeBi/g73dfhX75MMPwv46zPi6rvvTxkRABERABOYn0LlzZzvrrLOsU6dO889s5W9aXbDfe++9NmjQoFbGoN2LgAiIgAiIQP4ItO/Q0TbfejtbfeCPrGHFdaxh5lRLOnWz5OW77PnBN9oH/3m7rgfV4Dnv6260qW0w6ERrWGsHa5gxyZLFulvy1iM28p6rbdTIV77JHa/jXtfov7ZtMfAYa7fpID++KZZ09uMb87q9f+/l9u/nnrK5c+bUcW9mvVfuY9vvc7C13/oYszkzzTouZvMmjrPP7r/Enn5kmM2cMb2u++ux7HK2w5772uK7ONMOHXzbDZbMmmGTh//Fnhh6n02cML6u+9PGREAEREAE5ifQrVs3GzdunHXt2nX+ma38jQR7KztAuxcBERABERCBWgkgoJdYYgnbaeDB1m33U2xe12Wsw9jX7a1bL7BXn3/aZs+eXeumm1yPKMQ2u+1tvfY/0+YttbK1m/Cxjb3rAntm+IM2c6YL3DpPHTt2tE0GbGf9D/mFzem1nrWb8oVNHnqZPXrfbTZligv4MKi+fjvt4KK537ob2BZHnWGzV9vGjE6Cp6+34bddb+PHj7d58+ob0W/fvr2tvOrqtv3hp9icDfbyDo951n7EPfbY3/9sY8d8YnPnzq3fwWlLIiACIiACJQlIsJfE8s2XirCXgaNZIiACIiACIlCGQAcXs1ts4+nUA0+xhp79PQI9OUS87ZV77YXBN9h7b79ZZu3qZ9FBsP4mm9t6g06yhn7bWsP0ry3p0sOSdx631++50l4f8e+6R9jXXGtd23LQsWYbDfSI/sRvIvpj37TRgy+3F59+wiPs9e2UWLHParbDPodYw4CjzGZN9Qj74jZvypf2xQOX2JPDh3qEfVr14MqssfRyy9sO39nPuux0gjWEqnYeYZ8726YOv8IeG3KvTRz/VZm1NUsEREAERKAeBCTYy1DMCvZ+/frZYYcdVmYNzYqdwM0332zvv/9+wcxDDz3U+vfvX/hbH/JFYNasWXbRRRcVInWM7Tn99NOjHOOTL7KtZ+1bb71lt912W8GAvn372uGHH174Wx/yQ4Ax7J+tsJlN7ryczXzzUZvw9ovWc9sDzJZfw5b/+i1b6uv/fy+uz1E12JfLrm+28ka2Ze/O1n3i+zZxyTXthbHTreGTV23ZL1+vz26KtvL1Umva9JU2t01XWdKWn/SuTeu2or04voNN//gN6/nZy9aQ1DcCPcW3P37Fb9kGqy5vfab+x2YttrS9PL2HffXh29b70+fqPoZ9RuceNnaFLT37frqNf+qfnhbf0XpsfZB17NjBeo973jrPmlREQx/zQuCNN96wO++8s2DuWmutZYccckjhb33IH4Ebb7zRRo8eXTD8iCOOsDXXXLPwtz7kiwAZYRdffHGhfSvBXsZ/WcG+55572kMPPVRmDc2KncBuu+1mw4cPL5h533332d577134Wx/yRWDy5MnWq1cvmzrVI00+cUP79NNPw3u+jkTWpgSy99099tjDhgwZks7We44IfFMlfpJ99egN9uht19h/P/7INtxsS9v2hN/aGmuvbz/YaMFUid+xT2fbdsXOtphXiZ/hVeKf+GSmPTVmpp3vVeLrPVElftnF29s+a3axxX1/VIkf9eUcu/Odafbrbbpbxzo/a40q8R9NmmNHrdfNlujUEKrEj5tG1fYp9vMtF0yV+HtGTbDXrzvDnvJhBe08RX773fextY4+347YYClbS1Xi631KLZTt3X777XbwwQcX9rXPPvvY4MGDC3/rQ/4I7LTTTvbYY48VDB86dKjtvvvuhb/1IV8EJk2aFNq306Z9kzUlwV7Gf9mGowR7GVg5mZUV7Pfff7/ttZePy9OUSwIS7Ll0W1mjaTTuu+++hWUk2AsocvuBRuOwYcMK9tNRupd3lNb3gWeFzetDnQlMpOHYs5dNn/5Nw5G6BHSMxlj8qM6H3mY3J8He9lwrwd62fCrBXoU/JdirgJWTRSXYc+KoCs2UYK8QVI4Wk2DPkbMqNLWUYFdmU4XwIliMhmPPnj1dsH9TgV6CPQKntNAECfYWAoxwdQn2CJ3SApMk2KuAJ8FeBaycLJoV7EqJz4njmjBTgr0JMDn+OnvfVYQ9x878P9Ml2PPtQwn2fPuvlPUS7KWo5Ps7CfZ8+y9rvQR7lkiZv7MNR6XEl4GVk1kS7DlxVIVmSrBXCCpHi2XvuxLsOXJeE6ZKsDcBJidfS7DnxFFVmCnBXgWsnCwqwZ4TR1VopgR7haBYLNtwlGCvAl6ki0qwR+qYGs2SYK8RXMSrZe+7EuwRO6tC0yTYKwQV6WIS7JE6pgVmZQX7wIEDQ5u3BZvUqq1MQIK9lR1Q591LsFcBNNtwlGCvAl6ki0qwR+qYGs2SYK8RXMSrZe+7EuwRO6tC0yTYKwQV6WIS7JE6pgVmSbC3AF6kq0qwR+qYGs2SYK8CXLbhKMFeBbxIF5Vgj9QxNZolwV4juIhXy953JdgjdlaFpkmwVwgq0sUk2CN1TAvMygp2PdatBTAjWVWCPRJH1MmMPN13GxKf6nTcNW0m23CUYK8JY1QrSbBH5Y4WGyPB3mKE0W0ge9+VYI/ORVUbJMFeNbKoVshTwzEqcBEbI8EesXNqNE2CvUZwka6Wp/uuBHukJ1GezZJgz7P35rcdwc7jhqZN++b5wN26dQvPB+ZdUz4JSLDn02/lrJZgL0cn/nl5ajjGTzMOCyXY4/BDPa2QYK8nzdbfFvfdXr16NWrfjhs3zrp27dr6xmUskGDPANGfLScgwd5yhjFtQYI9Jm/UxxYJ9vpwjGkrEuwxeaN6WyTYq2cW+xoS7LF7qHr7JNirZxbzGhLsVXgn23BUSnwV8CJdVII9UsfUaJZS4msEF/Fq2fuuUuIjdlaFpkmwVwgq0sUk2CN1TAvMkmBvAbxIV5Vgj9QxNZolwV4FuGzDUYK9CniRLirBHqljajRLgr1GcBGvlr3vSrBH7KwKTZNgrxBUpItJsEfqmBaYJcHeAniRrirBHqljajRLgr0KcNmGowR7FfAiXVSCPVLH1GhWVrAztocxPhrDXiPQCFbL3ncl2CNwSgtNkGBvIcBWXl2CvZUdsAB2L8G+AKC28iYl2FvZAXXevQR7FUCzDUcJ9irgRbqoBHukjqnRLAn2GsFFvFr2vivBHrGzKjRNgr1CUJEuJsEeqWNaYJYEewvgRbqqBHukjqnRLAn2KsBlG44S7FXAi3RRCfZIHVOjWQh2VYmvEV6kq2XvuxLskTqqCrMk2KuAFeGiEuwROqWFJkmwtxBghKtLsEfolBaYJMFeBbxsw1GCvQp4kS4qwR6pY2o0S4K9RnARr5a970qwR+ysCk2TYK8QVKSLSbBH6pgWmCXB3gJ4ka4qwR6pY2o0S4K9CnDZhqMEexXwIl1Ugj1Sx9RoVjYlXs9hrxFkRKtl77sS7BE5p0ZTJNhrBBfJahLskTiijmZIsNcRZiSbkmCPxBF1MkOCvQqQ2YajBHsV8CJdVII9UsfUaJYEe43gIl4te9+VYI/YWRWaJsFeIahIF5Ngj9QxLTBLgr0F8CJdVYI9UsfUaJYEexXgsg1HCfYq4EW6qAR7pI6p0aysYFeV+BpBRrRa9r4rwR6Rc2o0RYK9RnCRrCbBHokj6miGBHsdYUayKQn2SBxRJzMk2KsAmW04SrBXAS/SRSXYI3VMjWZJsNcILuLVsvddCfaInVWhaRLsFYKKdDEJ9kgd0wKzJNhbAC/SVSXYI3VMjWZJsFcBLttwlGCvAl6ki0qwR+qYGs1CsKtKfI3wIl1t8ODBtu+++xask2AvoMjtBwn23LouGC7Bnm//lbJegr0UlXx/J8Geb/9lrZdgzxIp87cEexk4OZ0lwZ5TxzVhtgR7E2By/LUEe46d14TpEuxNgMnJ1xLsOXFUFWZKsFcBKyeLSrDnxFEVminBXiEoFpNgrwJWThaVYM+Joyo0M5sSryrxFYKLeLHsfVcR9oid1YxpcxOz1z6fZb8+7Qf26EODbdrUKdZjmeXtgitvsO2239H6Ld2hmS1odmsT+Gr6PHtn3EQ7Yo9tbOzHH1pDQ4OttOoadsvQp6z/Ct1sqc7tWttE7b8GAhLsNUCLfBUJ9sgdVKV5EuxVAMs2HJUSXwW8SBeVYI/UMTWaJcFeI7iIV8vedyXYI3ZWM6bNdMX+q2cm2advv2JjH/6rvfvGq7bZtwfZUjscaVv1X9mOXb9rM1vQ7NYm8Orns+26V8bb1y89aK/df5116NDB1tn7u9Zj0z3sh5v1sP7qdGltF9W0fwn2mrBFvZIEe9Tuqdo4CfYqkGUbjhLsVcCLdFEJ9kgdU6NZEuw1got4tex9V4I9Ymc1YxoR9ve+nmPXvvS5ffbR+9Z+7Os2p9+OtlXfnnbYektaj8UUnW0GYavPnjYnsUc+nG53jxxnyfvPWtKuo7VffQs7eOOett3Ki1mXDg2tbqMMqJ6ABHv1zGJfQ4I9dg9VZ58EexW8sg1HCfYq4EW6qAR7pI6p0SwJ9hrBRbxa9r4rwR6xs5oxzfW6zZlndtk/H7KR7dewpONi1m7iWDt565Vsk36rWHtpvWYItv7see7EyTPm2OnX3m/Tem1oliTW7dMRdvEPBlnXTu2tnXzY+k6qwQIJ9hqgRb6KBHvkDqrSPAn2KoBlG44S7FXAi3RRCfZIHVOjWRLsNYKLeDUVnYvYOVWahmCf7YrvstsettfarWZJh87WbvJn9sMBK9omfVe2DgqwV0l04S+OYJ/kgv1n1z9o01ZY/xvBPm6kXfz9gRLsC98dddujBHvdUEazIQn2aFxRF0Mk2KvAKMFeBaycLCrBnhNHVWimBHuFoHK0mAR7jpzVjKmkxP9nwhy7zlPiP//oXWs3ZqTNXWtn23zN3nbEBkva0kqJb4Zg68+eNjux4aOn2+DXPCX+3acsad/B2q85wA7YqKftuIpS4lvfQ7VZIMFeG7eY15Jgj9k71dsmwV4FMwn2KmDlZFEJ9pw4qkIzJdgrBJWjxbL3XaXE58h5GVMpOneeF50b99a/bcyQq+29USO96Ny+1mPHo22L/qvY8Ruo6FwGWXR/pkXnJrww2IvOXW/tO3S09fY+3nps/h07abOlbK2lO0ZnswxqnkBWsA8cODA8Gan5NbVErAQk2GP1TG12SbBXwS3bcFRKfBXwIl1Ugj1Sx9RolgR7jeAiXi1735Vgj9hZzZhGhP2tr2bb2Scfb48Ovd+mT51qSy69jF109U22w4472epL6bFuzSBs9dkTZsyz9z6bZAfsspWNG/NxeKxb71VWtTv+9Zz1Xb6bde+kcQ2t7qQaDJBgrwFa5KtIsEfuoCrNk2CvAli24SjBXgW8SBeVYI/UMTWaJcFeI7iIV8vedyXYI3ZWhabtvvvuNmzYsMLS9913n+29996Fv/UhbgI0HHv27GnTp08Phi6xxBL26aefWteuypCI23NNW5cV7Pvss48xHElTfglIsOfXd6Usl2AvRaWJ77INRwn2JkDl6GsJ9hw5qwJTJdgrgJSzRbL3XQn2nDmwhLkS7CWg5OgrCfYcOatCUyXYKwSVo8Uk2HPkrApMlWCvAFK6SLbhKMGeksnve1aw33///bbXXnvl94AWccsl2NveCaCic23PpxLs+fapBHu+/VfK+qxg1xj2UpTy9Z0Ee7781Zy1EuzNESqaL8FeBKONfJRgbyOO/L/DkGBvW/7kaCTY255PJdjz7VMJ9nz7r5T1EuylqOT7Own2fPsva70Ee5ZImb8l2MvAyemsrGDXWMqcOvL/zJZgz7f/Slmfve8qJb4UpXx9J8GeL39lrZVgzxLJ/99Zwa4x7Pn3qQR7/n1YfAQS7MU0mvmcbTgqJb4ZYDmYLcGeAydVYaIEexWwcrJo9r4rwZ4Tx5UxU4K9DJwczJJgz4GTqjRRgr1KYDlYXII9B06qwkQJ9ipgZRuOEuxVwIt0UQn2SB1To1kS7DWCi3i17H1Xgj1iZ1VomgR7haAiXUyCPVLHtMCsrGDXGPYWwIxkVQn2SBxRJzMk2KsAmW04SrBXAS/SRSXYI3VMjWZJsNcILuLVsvddCfaInVWhaRLsFYKKdDEJ9kgd0wKzJNhbAC/SVSXYI3VMjWZJsFcBLttwlGCvAl6ki2YFe1uuEp8kSfBCQ0NDpN5ouVlZwc5zgceNG2fdunVr+ca1hVYhkL3vLiqCPb1ei6G3lWtXgr3Yq/n7vKgJ9vRabCvXX6kzLivYNYa9FKV8fbeoCHauz7Z8baZnXZ7uuw3ulG8UR2r9Qn7PNhzbsmCfO3eu8Uqndu3aWYcOHdI/28x7WxTsXCbz5s0LLz7zwpdTp061Tp062WKLLRZubtzgeOFbXm1haouCPetP/JT6NfUh3xX7ks9tZcredxcFwY5/Z8yYYdOmTQu+xpeLL754uHbbwrWad8GeXpO8t2RKr9m8Xa95ajhW6x98yu8l76mfp0yZEn4ju3TpUvi9TH3XFq5HGOVZsKd+4n1BTHltI7VFwY6Pi69P/p41a1Zo73bu3LnQtk191lauT87rPN13JdgXxJ2oxDYRe88884z96le/ChcGQp3xTCeddFKJpfP9VVaw571KPDeyiRMn2vvvv2+PPfZYeH3yySf2+eef2+zZs8PNjKhz7969beutt7add97ZNthgg/B3+/bt8+1Mtx7B3rNnzyB0OBgi659++mmuI+xfffWVjR49OviS6/K///1vyBpAzHF8PXr0sP79+9sWW2wRfLrmmmva0ksv3WY6YRY1wU4DhPP4tNNOs3vuuSc0RDiXDz30ULvwwgttiSWW4M9cT3kX7OPHj7dXX301+KlWkUBDsnv37rbRRhvZUkstlSt/5qnhWA1Yfj+53z799NP2yCOP2Jtvvmnvvfde6OzGzx07dgy/L/x2fvvb37ZNN93UVlpppTZxr80K9jyNYSeLbuTIkaGTs9brsanzhI6ZFVdc0TbbbLOmFon2+7Ym2GnDfvnll/bKK6/Yo48+as8++6yNGTPG6FBjIhi13HLL2eabbx7atrSJ+vTpE4KNeesULXVScd/t1atXo/Yt5z5t+ugmvxBbdfLGE913hZdH2FvVngW1c28sJueee27i0djEf6ASFwXJD3/4wwW1u1bdrv/oFvyJb12wt6o9Ldk5fnORnuy///5J3759E28MJt7jmLgQT/xmVThOPuNXv8iTFVZYIdlxxx2Tyy67LPELP/EGS0tMaPV1/YaWeCSycKycu3DJ2+SdZokL8uSJJ55IDj744ODPJZdcMvEfpMQ70BJv7Idj5J2/+Z75q622WuKpjMltt92WTJgwIff+xG/Z+65H2PPmzqrs9ch6cv311yf+w9zouj3qqKOCT6vaWKQLe0dp4RrN4333hRdeSNZbb71k2WWXTbxzrKYX62611VbJG2+8EamXmjbLO4UTjzYXfOidSIk3mpteIQdzXKgnf//735O99tor/C7y+0gbKL3Xcp7y28n9lt8YFwbJLrvsktx0002JZ6/l/l7Lb0Zx+9YFew689o2Jw4YNS1ZfffVkmWWWqelaLHcNc53SpsrjRNuu2KdDhw7N42EEm72TNLnhhhuSXXfdtXB90o7Ntm25Prk34VPur+edd17iQZtk5syZuT321HDuu9n2baz3XdKTWnXKNhzbqmD/8MMPE+85Llzo/GidcMIJrcp+Qe08K9h9DPuC2tUC2y4iG1FKwwHBxg2r+Cbd3GcaJB6lTc4+++wg2hGLeZ2ygp1GVx4FO8dx9913h0YInS7N+bB4Pv73LIPkggsuSGiEeq90Xt0Z7M7ed9uyYEese6QoWWWVVUKnWrFfJdjjOY0ffPDBIA6KG4vFvqrkMx2pa6+9djJixIh4DqxCS9qSYJ8zZ06CGPjFL34ROmCKBXpzfuReizBASMAkz1OeBTuBFsR6S67HpnzNNulgzOPUFgQ71+cXX3yRnHXWWeH6rMbHXMsI3EGDBiXvvPNO4qnzeXRjweY83Xcl2AtuWzAfEGpcHDT06TFPb2AS7AuGd722SiP/zjvvTDzNveAzfMeNjRsWDUMaFumLv0s1SohGn3LKKSGym1fR3hYEO9cgPeGeajmfnyr1J76ns+LXv/518vXXX9frVGuV7Swqgp1r7oMPPggRPiIH6f03fZdgb5XTr+ROb7nllhB9TX2T3m+57ip9cT9eZ511JNhLEl44X3LNER2/+OKLgxgo9md6r+VaTF/4LPvbyd+eMp3861//ynWUXYL9/2fPZs8DH8KzcE7IOu8l74Kd65MIsg/PDUGlYr9wn822bbk++Y55xcvy3UEHHZT4cMI6E164m5Ngr4J3tuHYliLsXBjTp08PQsHHwIaTPj3hJdirOEkW8qJET32MXUiZzjbySQvysc3J9773veTKK69Mbr311sTHwCY+FjZEbkmjTn3Me9rwQPzTCZDHCcGOUE2PK48R9o8//lXVvEMAAA6nSURBVDgMU+BHJj0O3rkO8Sf+o4F53XXXBUG+7777Jn369Gl0zab+XHnllRMf65XrhqSPYW/Eoa1G2Dl3f//734d0vmyDA39KsMdxRyJK84c//KFRo5B7KSnS1bzIgvGx0EqJb0W3Igb4XWQ4UfH9luuPLJejjz46tIlGjRqVkHb9m9/8JhkwYMB8nTWsSxTvs88+a8Wjadmus4KdoVV5mch4IWBBm4drsdYXv7HZey/fKSW+dc4E2qGPP/74fNcnv4dkVGy//faJ13pJrr766uTSSy9NTjzxxJAGT7sv60cCUj/72c9Cajx6J49TngS7is75WVqPyU9W8yheqKxIdUX/0bLXXnstFHEYMmSIeUq8+XiPwq78hmXHHXecuegrfNdWPmSLzuXtsW7eyDevN2BXXXVVKCrnNyHzxoP5zSz47MADDwxFN9LqmRTVwecU0vEU+lAZliI76cRy3/rWt0KxK2/E5K6Yjqe/h6IcVMRn8ht3rh7rhv+8noD5uKtQPJBj8B+eUOjomGOOsf3226/gT+9gCUUhuVZff/11++c//2n/+Mc/QuEdrnEm73G2n/zkJ3bOOefktvDe4MGDzTslwvHwX1urEo/PuS69Q9hOP/108w6bwrEWf3DBbt4oyV2BsuJjSD/nuegc9xaup0suuSQcDvdbfke8zkt6eBW9c11TQHD99dcPxecqWimShfjdobind/IHizgOintyv83TRFG5I444IhQs4xpkor2z7bbbhmuR4lUcE/dR5nOvpegnbSHutRQfTCeKXV1xxRV2wAEHpF/l6j1bdC5Pj3Wj8BgFyFzg1cycNjG/oz68ofDby7VNe+iPf/xjKOpa88ZbacW8F53Drx5wsuHDh4frD4wemLK11lrLfvzjH5uPZzfaqVyfqa7x2j3mGYrht3K0F+vFr0y0lzyjKVy3vLNO3qZc3Xdbu0ekrUTYvWp4SKH+7W9/GwpaEbWjt6pU76Kf0OF7jWFv7bOv9P4pWETxI3r48RW9iozZ8YZ/GL9crieRcUH0TjJGOu2N5J1easby5zHKTpQyW5QjL2PYvUEYxkFSKMV/TApRZXqG8RO9q035kzR6isy5oG90/JwTbI+iK3mdsvfdthZhJ0vGhUOoG5L6neswvSbxIS9F2OM4gxnv7KKscH1yvyRlc1Ga8hTpacov/L4RmSuOxtEGomArv6tN/f5xn/ZK1eFeW1xfhHUPO+ywMKywqX3G/H2eI+wt5co92J+kE7Ik0vYDbSpqAjHUIa8Fy/KeEg97MifS30KyQMmGufnmm5ssckkbCX9de+218w1zod4EtZ6aurZbeh4t6PW576bnJ20C2oYqOtcE9WzDMa8p8ZzI/hiZQoMjbRA29c4PkQR7EydFK37NjcmjquGiTW9opMUj0PjxoWHR3IRQ2GSTTRoJRLZBGn0exz7nWbCTaktVeFIxi69F7+FPvKe4OVeGhqI/7iRZd911G61PtXGPHDS7fqwLZO+7bUmwcw3ToXTkkUcWhnJwLSMiskNWJNjjOEPp/OKaTK9RfktvvPHGOIxbSFa0BcGOHz0CWfAj/mQIEUNwKinUiZjgKSvpecA7v72I+aY6VheSe2razaIs2PHZmWeeGYIX+DG9B//tb3/LZdHa9ATIs2DnGkKrpJ3Y+AUtwu8/dSeam+hY/e53v9vo+uR3leAHT+DJ4yTBXoXXsg1HCfYq4EW6aLZKfJ4e60Yv4Xn+yAp6HdNGA72PPKKt0h5hRDnR+GJxwA1ym222SRhLnbcJwc5NOeVBD2ReIuz409Ms5+sV9tTbin5g+IGjKvzOO+9cOH44LL/88ok/UzhvrizYm73vtiXBzvn6l7/8JXS6cR3TUKQH/ac//WnSr1+/Rn6UYC+cEq36gc6zVVddteAbRNtj/jjNRWlqC4KdR7iRWZj+VvC7x1hlGvqVCG7Gq/NYt+Lx0ltuuWXy0UcfVdRZHtv5sqgKdsQbx865kLalKLrsKdcJ9+dKAh+x+TK1J8+CnU4zai6lwSiuU/xCnReCG81NLMM1Xrw+v610jlci+JvbfmvMl2Cvgnq24ZhXwU6FW6J4RAZKvfgBSm9cXCSLUoQ9T4KdHxMyH9IGB+9rrLFG8txzz1UUIeDU58fKx2w1SrMhFYyo+9tvv13F1RHHonkW7Pji8ssvDylf+JIfGtJtn3rqqYoaDTQy+ZGiWFDxOYGgIBqU1yl7320rgp1ONYQeKbjpkBY6mIgKcA372OZGfpRgj+MMpggSnWDpNUba7Pvvvx+HcQvJirwLdu6Vxx57bKOO6jRTolKBRpHeJ598Mrn++uvDiyKgXm8jdBBXIvgXkqsq3s2iKNjx0zPPPBPutamwo73rNQzCY8AYapbnKe+CnafcpPdZ3rt3755cc801FQl2fHfXXXc1EuwEc04++eSKAiAx+l2CvQqvZBuOeRXsNC6I5KU/NNl3GvzctNILRYK9ipNkIS5KNJWIQOon3r1ITvLuu+9WJPAwlUaHFxqcT7BvsMEGuUyjzgp2btB5ibAj2KlCjBjAbsQbYoDnclcy0fjgWBG0xecEjxziGaR5nbL33bYg2PHV2LFjE35D0s5RhqKQas3wBV4bbrhhIz9KsMdxBiPMEHfpNUal4mx1cPybvuKwur5W5Fmw4xfGfXJ9pdcevuTpODxWcVGdsoJ94MCBbRoFHTO0ofbaa69CKjznAR3cDzzwQEVZFrEDyrNgxz883SjtzMY3tIu8iG4Yg851XG7iGqdOV3qf5h3BzxM+aPfmccrTfVfPYV9IZxgpJ4iF9ESXYF9I4Kvczbhx45IddtghNDpoePBiTB5CoNIoAalBpOQSyU39zQ0yFf5VmtTqi+dZsBNx5fE0Z5xxRnLqqaeGsVYXXHBBxQXjSCHzpz3MF5nFl5wTeZ3ammCnoUGD4Uc/+lGj647HfHml5lCLgNoSbVWw087abbfdC5EPIluD77svKd/8iufs/fnPf95o2M3xxx9fSKPmvktkh843inrSgcZ1yfe8mmtkxnOUTVuCnyZ8nRY/4nnHDckS3hCe7A3kPPgwvU/SGZr+5vFO3RYKdzLhJ16p37Lv6fywcBv5b1ET7AxBY4x6cR0C2j5nnXVWbjr5mzv18izYOba77747ZBym2Q/4hxo9dKyVy37g+nz11VeTzTbbrNE1zmM3eWxxpUNGm+O7sOdLsFdBPNtwzGuEvblDRrAzViT9MZNgb45Y68ynUciP7O9+97vCiwY/33PDqmSi2AqRu+Jqt4zlY2weHQJ5mxDsxVU08xRhx2c0IugZpqHPiw6Vcj9MqX9oUFKP4KSTTmp0/HTiIAxjrSSa2l/uva09hx0f33HHHaH6Lf6hMcL1R+cM5y/+bquCfeaceckZT0xIvvury5O+a6+bdPExhd/aYdfktFufS654ZXK50yCaeTyJgWyI9PcRv9GApH3A+Eh/5FB4Hvuyyy4b3hGGPKObwnSjR4/ObTpm6oCXx81MznxkXLLP4cclSy+3fLLcCr2S/Y4+ITnz0c+TN79sfmxpup3Weuf6I1W2eFgDvvzrX/8aOtIQ9BSke/rpp5Ozzz47Oeigg0KK9HbbbRcy2vyRfqE4KL+PeW34l2K/KAl2fMzTkhhCmF7LtHsQeGQ3VfKbW4phbN/lXbCPGDEiCHR+J7lG+a1kyC73U+6lpcay4zvqL5EhUlybiW0QvGA92kt5nCTYq/CaBHsVsHKyaJ6LznHTofGRijve+btSsc6ypMNTGbc47YgOmvPPPz+Xvcx5FuyVXDL8GNFIJELLC58TyaNxeeKJJ4aUr9SXvNMgYZxlnhsgbUmw4zseGbXxxhsXhh1xvZHmz1Alrml81VYF+6y585Lb3pqafO+ud5IDzvhTsuu+ByeH/fHu5LSHxyTPj51ZySXQasukHWpbbLFFo1RqHuVFoUcEOplK6fWXCnoaijQce/ToEWqDEMHDvzQ2K71Xt9pBl9jxmMlzkgueGZ8ccd3TyZ5Hnph859hTkiNveD656PkJybip8Y/5pUObQp4UaE1FAKKNwpz+3Ocg3OmwJuOFwAW+Yz4vPpN9SFQWn1988cXhui0lHEqgi/qrRUmwM4SFjIo0UME1iq/pVMtz53b2BMu7YMcXDNnFN6lo551r0J/BHrJDX3rppSDQEel8ZnnmsU4amec655Ful156ach4yuN9F99KsGfP8DJ/LyqC/aKLLlpkU+J5/nhbn7hZIRwQCAMGDChEirip0dik4fnWW29VXLguJl7ZlHhu7IjatjAh5mhQ0rAik4LGBdE9xB4NSBqU6Q8Un/mBOvfcc8NNPs/H31YEO/5jaAI9//iH642oDr578cUXQ2cbfmrLgt31ejJ51rzk/GHvJYfd8W5y+C2v+vt7yePvT0hmePQ95in13zrrrNPonkkDMm1M4tPmXmQAUU385ZdfrqqDNRY2sz04NXby7OSY295MDv/HG8nht45KjrttVDJuypyEebFPiADui+mwP+6Z1CQYPnx4KPiIkK/En6zHNhiGNmrUqNCBGvuxl7MvK9ipZdQWJzpXGHpGhkXqZzpiuC/TVsirmCvlq7wLdnxBm45hR3R4pr+b3GO5/sig5LG1PLWDV9rJlvqV5fjM2HWq/pNRmucJwV6cQcr9J9YOJo1hX0hnmgT7QgLdSrshHeyFF15IuJkjGIobmPRK8kipvD72oi0LdjpZaGjwA1Xss+xnfsiIrFObIK/FVYovjbYi2MlooYefH1x8hN8YU/fnP/+5UWptWxbsqV8vuf4fQegdet+45Mir/jcZ8ea76axo37lvMi6Sayt7zaV/49fsK51X/E7HKI/to0J1HqOz02bMSr5/4XXJYXd/lBx21+jkxN9dncyYNTta3xUbhiij8U5jH5/gL373SJdFuBX7KZ2fXq/ZefyNL+nEqfRpHsW2xPR5URHsZKSRUl3syz59+iTDhg3L5bVY7hzKu2Dn2BDtDPdDl2Q7S4t9WOoz1y2ilkJz2cKg5bjFOi9Pgv3/AQAA///wRFJ8AABAAElEQVTtnQecVcX5/t9ld6nSUbCDGkFRKSoWBCKIQpCiAhawJtZofsYeo4lGY8NYYk1sUbAgihTpSFHBDgQECyAKhKLSWdqW+c8zydz/2dlbt9x75u5zPlzOnnPmTPm+95w7z7xTRGV4Gz16tBKRyOdXv/pVhnNUNck/9NBDaq+99oqUs2bNmurqq6+umsQyHOvpp58eKSdsO3bs2AznqOqSLy4uVj/++KN65pln1H777adq166tcnJyIuWHnU866SS1YsUKVVRUVHUZqcKYt27dqurWrRspU7169dS2bduqMMX0Rb1792717rvvqn333TdSvuD7yP4Nm7Zq1Ur961//Uj///LMqLCxMXyarICX3vdu7d+8qSKXqo3z//ffV/vvvH3nm8PwNHjxYbdiwQeHZtBuevSVLlqh27dqVsvPFF1+sNm3aZIN5uS8uUWrr7hJ1z9TlasjIpWroK/PVkDeXqZnLN6tdRfpiiDc8f1OnTjU2tM+a3cOWBxxwgBo6dKh6/vnn1YQJE9QLL7ygfve736mjjz5aNWjQoJQt8Yzm5+er9u3bq4ULF6qSknCXPWiWPfqrumprobp05Ndq6KuL1NDXvlSXjfxKrd1epAr//9c4eEuo/sbvwWWXXabq1KkTsQnskZubq2rUqGHOYd+sWTPVpk0bNWjQIHX99der888/Xx1++OGqcePGkXCwv7XlCSecoL7//vtQlTWVzLzxxhsRHihX//79U7ndm7D4XYQN7bOL53DAgAFqy5YtXj2HyQA/9dRTI+VEeSdNmpTMbaEKg99D2Obtt99WrVu3LlUea8N4e9j3uuuuM/Va3+tC4BCs30Knbd++PVT2spkR+0em9m7FkYI9U5aovHSrg2CHGEBFf/LkyabSsffee5vKiX3JocKBCide7nPmzPFWrONbkc2Cfc+ePeYH96CDDlJoXMnLy4uIP2tLu8d1VDgh8r755huvRbv73vVNsKOSABt06dJF1apVy1Q48Mwde+yx6vPPPy9TScxmwb5HK/ZXlxSoK0Z9rQbdMkz16D9YDRn2prph0io15z+7K+/FXgUx7dy5U40YMcI8V/Y5w36fffZR1157rfrkk0/Uxo0bVUFBgdq1a5fasWOH2rx5s1q2bJl65JFHjDjHcwnb4z7s8X24/fbbTYW0CrJcJVGu3Fqk7vlwg7rwufdV76FXqj6XXKcuenGueuCjTUa0V0milRgpfiMGDhxofvOCdsTfeKeiceXcc89V48ePVytXrjQNarAjGtaWL1+uhg8frrp3716q4ox769evr2677TaFhh2fGmAs2mwX7Hivrl69WnXr1s00llnbt2jRwjSE+2gza7tYe98FO347169fbxo+4aiwv5/WdmhkQ90Vzx7EK/7GOXsdezS+4Zk+88wz1ezZs01dyFdbU7DH+qZHOe9WHCnYo0Dy7FQ2C3b8QKHyuHbtWlMphHcPrY3Bl5mtoPTo0UMtWrRIQRT6vKEyBq+6LSNe4tniYceP14IFC4wIx4/P8ccfb7x9EOaNGjUyHiP8WLmCAJ4hVDZ93dz3rk+CHY1l+JG98cYbTaXCViCaNGlivLAQge6WzYJ9t/ai3zZ7s7r8z4+qQ1sfoWprL+cJXburm16bq56ZH+6eMLDV008/bZ45VADxadq0qTkHoR5vg3hfvHixatu2rWlss+8n7A888ED173//O97tobo2b/1udceMdarf+Zeoxk2bqWb7tFBnX3yFun3Gj+qrn8P/+4Hn8YwzzihT+cd7EzZ98MEHTQN3LG8czs+fP1917NixlDjA/egxsXTpUi8bvbNdsKMRzW1wg5j79a9/7fXvY7yXg8+CHaIaPQRhHwj1YL0G9diGDRsajzvqN/fee6/6y1/+oi644ALzjkV9KHgP3rNoLD3uuOPUV1995a0Dg4I93rfdueZWHCnYHUAeHmarYMfLDt3fn3zySXXUUUeZioV94dnKIo4PPvhg87Jzu+V6aEqT5WwW7CigbRnGHh9UHtEgM2bMGPWb3/zGDHWw3TqtnVEJffjhh301qXLfuz4Jdoi81157zbT+2+cPXoDf//73pjISzSjZLNhteSGY7PcTewxFCnuncGsXCJt//OMf6vHHH1evvvqq8aLbcsXbozF02rRp6pBDDilVdjQqosLp07Z5c+mumfBwhbVrpssV3nIIGVTgg99BvDfPOuss9dNPP0Xes+699hjv3ieeeMII/GAc8AJi2BK87L5t2S7YYXcM+bNOC7yPIfowzCU4JMk3u8XLr8+CHXUbNJAGh67gWYOTCcIbQxtgU7dOhN/cUaNGqZ49e5Z5xtGd/JJLLjGOrHjcwnqNgj0Fy7gVx2wV7Ghhxg+w/SHCDxvHsKfwRclgUPzwwKv+3nvvKYypQ0sjfqCsWIBNbRehc845x3h2IHKz5QcLZQmO8cmmMeyxvlYQEviRQqOLFQRB0Q6vO7zx6A6IsL5t7nvXF8GOZ2ru3LnqF7/4RcQTh1Z/dIVHN79YHjwrDLNxDLv97kUT7PZaWPe2gcx2d8d7Fs9dsu9O3A9RizHRqHTa31c8n6hcJhtPGPig4hisSPsk2JH3Pn36lPGwY6jYjBkzkn5HrlmzxvzGWjtij8bR+++/33wvwmCnVPLgCnaM686WDc8phjigPmDrQqgXoWfhDz/8kC3FLFMOnwU7HBHIv7UXni9oEcwrgWFGeP9Gq8/gPQt7r1q1SqGOG6wL4W800nzxxRde9ib16b3LMexlHseqOUHBXjVcqzpWtOrjRXbHHXeYScfc8T6oJKIrLirLmBAJFQ4fPQHxOFZHwW554IcKP2Lw/KGhJliRRLfb6dOne/kj5atgRzfoW265pVQrP7ypf/zjH03DysyZM1W0Dxrb4D3AxIFBG6JyCe+dvWfWrFnqyy+/tOb3au+jYK8swH//+99LNYjDxieeeKIZuoNn2IfNp4qjyxO/ERijjp4uwecLDWT/+c9/3OAxj/GufeCBB0rFAUGIiQZxzbctmwU7xB/Em/Wuw+5o2IcH10dbJfvd8lmwv/nmm2XmC2nZsqXpjRWrsTvIBT2aPvroI3XEEUdEGsxhd9SL7777bi+HSvr03qVgD34bq/Dv6jxL/Lhx46qQbNVEjUoeXmCYobZfv36mIhJslYQHBxUJdH9/9NFHjVCP1jJZNblLb6yojKGstiLmyxh2a0N44OwHFQn86KRaiUelE13GLAPs0VCD7rvwDvq2vfPOO6XK4ouHHd31LrroolJ5h4cAMxRjoiN0n8UHf7vHsJfbZRcVTHgBbXis9IBKqI9bdRbsU6ZMKVMRRa+LdevWeeNl96ni6D4fmNME42KDPbHwjoSIT2WuD/SIwLsp+FuLXgcXXnihlyLQFezZMks87ITGTUzWar2tqBPhGMMfsrUuhO+9z4L9hhtuKPWM4jk7++yzzfwSydaJMNkyVngIOq/QaIPe0Rgf79uG927wvYX6bViHIlGwp+nbRcGeJtCVlAzEOiY0Ovnkk0t1tUQlBD9QzZs3VzfffLP69ttvzY9Tsi+7SspeWqPxVbBDmH/22Wdm4pS77rpL4fPXv/7VzNqfai8ITICFcVpBwY6umsOGDTMzV6fVIJWQWDYJdmsTVD7ifWw4dx+8B882Zqv2cavOgh09JDCzfNC2aGDDnCO+dIv3WbCjgnvTTTeVatiFLdAbBr8fqWzotYQKNJ5LxAGvPZZqDGslOl7ZslWwo3s0fkutWIed0KiPiUB9bMCOZ0P3ms+CHQ1GwR4RaGRB75VU6q/o5fbiiy+WGr6DnqZdu3Y1XeZdXmE/pmBPwUJu10yOYU8BXkiDupPO+eZhR+swvALoLhusONgfJbywsXQUvH0Qhdm+ocLltkD6MEs8flgwkRW6sqPVFB/MQI1lglLNP8Lfc889pQQBBPt9991HwZ7GByCahx3PZWV9IBIo2NNjULxnUblHhcl+8JzhfCoVSOT2lVdeKTNkBZNhoUdNqnGlp/RlU/FZsONd++yzz5axwcV6CcxEs/0HSaBxBeOiISTsM43fniuvvJIe9iCoDP+N7vAYcmJthD1WzEFjSzJdqzOc/Qol77NgRyNmsJEFjWFwJqaywdnxwQcflKoTQrB37txZrVixIpWoQhGWgj0FM1CwpwDLk6C+C3Z0+fnTn/5Uqhs8XnLoUnvdddeZJWbK063aE/OVyaavgh1egNdff71UizK6cWGCKnjeUtkgFLEudLCCgolWnnnmGS8nQ/LVww4B9uc//9ks/4QloJL9dOjQQR155JFlPIDoSn/00UdH4kE36quuuiqVr0ZowvrmYYctsZY6ujsPGTLEfC677LKUlwiCyMMcI8EJ21CBxFAmX7zr+BL5LNhRiZ80aZIZjhJ8R0LUQdwlu6EB56mnnir1nsXke+gdhUYB37Zs9bCjUQVLn1pbo6HzlFNOUStXrvTqmSvP98lnwY68BxvDMEQMDoxUGjXxjOJZDzpx8L5F3JjDybeNgj0Fi1GwpwDLk6CuYMfyQr5seHFhFurDDjss0hIJsY7uXhijhzGR1W3ztUs8Wvo//fTTUmuH4ocFM/1jIsFUfqTwQ4QWZFtBwR5jnzGJi49dAN33ri9j2GFTjJNbvnx5Sh+s4zx79myzHGPQhpi1Get12/i+++47M9u8j8+4b4IdDaOXXnppqSFHeM8+99xzSXtTIcgxZhYzwgcrouhNgy67Pm0+C3b0isBazPjdtF3Z8Zxhbog5c+YkLeLwbA8dOrTMexZLSvn4ns1GwY5n7vLLLy81wSCEH1Y9wvcg2zefBTvWVA+OPcezijXXU+mJhF5Qf/vb30rZH93ssXxjKr1pwvI9oWBPwRJuxZFd4lOAF9KgPgt2/ODAaxqcnArdhuxasj55bCrr6+GrYEf58QOCiXBsZR4/UPDETZw4MenKBYT9yy+/bCY2C4o9LC02b948L7sAuu9dXwQ7bAp7pPqB0IcYx1J8QRtiAjt8R9z4kI5vm2+CHWOS4WFHI5q1CSqTAwcOTNorC88uetFAGNo4sD/ggAPUhx9+6JUJfRbsAI1nzB0jC9ui1wQq+XjGEm1o3EdDaNCWmJEajWqI37ct2wQ76j9YPhM9loINM+ip9Nprr/lmnnLl12fBjkbM4PLSeM6OOuoo49hItrEFE/BiYtZgHRnvbczn4+M8ExTsKTwGbsUxWwV7dZ50zicPO8auY2bb4I8RvAbwuvtYYUjhUYwZ1GfBjooivHjB7luwLX50sQJAos1OXNe+fftSXetREe3WrZuZUCmZimiidNJ93X3v+iTYy8MKFc0Venxdp06dSokBjLGFpzcbNt8EO96nmNgTXnU7rhJ7VP7feuuthJU/PJurV69WGMYQrDzi+cYEkb7Z1XfBjmcI89W4XaXReDJ58uS4871YIYi13IO2RGP5eeedZ4Yd+fiedQW77+uwo4EM49SxpGmwUeVgvVoOJuCtDpvPgh0NX1gJJWg7ODAwfAjD/hLVcSHIn3/+ebPuevCdjfl8Fi1alPD+MH4/fHrvcpb4NH2DKNjTBLqCySxcuLDMWs2oEI4cOdJUOrB8UHk+U6dOVV988YWX4519FuyoYKASiR+pYCMMusyiIvjJJ5+Yij3Gu6OFGRVH3AOhv2rVKjV8+HDVTQvz4PhY/NhhRmos6eZjJRKPCAX7fyeqo2Cv4AuzArfj2UFlCSINwsxWIvGcHnrooaZiCG8Oxi7j2UR4fCDUUblEV2v0fMK99tlGJRLL+mGMLcL5tPlUcYzFFcMTYJPgTNTwvrVu3dr8hmJIGd61eM9ig0CACPj666/NLPOYJ8Z+D7Bv1aqVmqlXAPB1yzbBjmcRy9hi/pagnbA0mI9LepXne+WzYEdvMswXEuzVhHcmGk0xzAFrrKOhM1gfwnsUzyiGEWJ+Cbybg7aHMwQ91RDGx/qQT+9dCvbyPLHluOfBBx8s1RUFrcgY85ONm9sl3qdZ4iHQ4OEJvpAg1rCMW0U+mEEVrZg+joF3BTte7hC0PmyoGEYTBbAvKvqoEOI5RAUf3j54CTChCrrq9urVy8x6bFuScQ+EAZ5dzGfgcwXF10nnyvudw/dgBT3s5cVXZfdhXDIaj/B+tMNW7HMG8YbfEiwh9M0335jnDROYYYZirCeMimOw4olnE+9qzCgO4ejb5lPFMRZbNKxMmzbNeGCD9sTf8Lxjwk+MR0fvJthoyZIl6vHHHzczjgcbXmBLCAE4Onz5rYnGJNsEO2xxse6VFGzAhq1gJ4yDrg6bz4Idv4MYDggHRrBeg3cunlEM88NyxZibB84rTCL4/vvvG6GOVTfgSYe9Ed7ec/jhh5v5YXxrILXfVZ/euxTs1mpVvKdgr2LAlRQ9ZoeH99W+kOweL6mKfOBx6NKli+nCWUlZTVs0Pgt2QEKr7/z5803XWWtPu8ePFn6oUPGHjewHxzgf/HHCPTj/y1/+0nT/8rE12X5pKNjpYbffhUzu8QzBmwMBjuUX7XOJPZ694LMJkQBvLZ5RnHcrnBB8WIoT3eStBzeTZUs1bZ8qjvHKBk8bPHEQ6EEbufZEwydsiXdqMBxsj/MYmoZGNp/fs9km2PEdbdeuXamGMtgRPQh9fObifY9jXfNZsKNMqM+hkQyOKbd+Y+tDth5k9/YZdcNjvgnElez491hMM3nep/cuBXuavinVuUu8Tx52zKKJH6BgxbEy/sYLD8ueoDLp24YXfHAMuE8edssaogBj77C0F2yRqk3xQ4XJWtDdE903fZyx2LLAnoKdgj34fcjk3xBk8LY+8MADZvI4V7wl86zi2UTXenji6enJpDWVqbzjNwOTkLVs2TKl31O8Z+HFQxdbePcwPMnnzRXsmJTP1w2iDD0j4NCwwg0NZ7AxGsSry+a7YIcdIVJfeOEFMyEvGkGTeccGw8Du6BX17LPPejdXiPs9BYtg/RbfbzQ6hnGjYE+TVZ5++mnzcKDVGR+Ms7v11lvTlHp6k/G5S3zfvn1N13drp8raozs9JlTEDKu+bdkg2MEcXfbQvQuNMpg5Hi/meOIdP0rw2jVt2tR02bzzzjuNxyfRxCw+2Lc6CnY0lmH5r+Azfe2113rd5Tb4XfNt0rlg3iHaMXYS3aXPPPNMUxlEw2Cs5xPPJjzu6DaPiQTvueceswqAz14+nzw9QdtF+xt2QCMphhcNHjzYdMFFpRh2C1b88TcaaCAa0MPiuOOOU3fffbcRhj577SyTbBLs+N177733TN3VvkOxOgOGjqFxpbpsvgt22AnPJ+YjmDFjhlnWDUMDUR+CR902xkR7TvHOtTZHgxzmEvG5BwxY+CTYc5BhbZiMbbriKHrCikj6WtTIhAkTIsfZ8oeuLAo++qVniqR/uER/8eWQQw7JliJGyqErjqK7SEWO9SzxosdvR47D/Iee6VL0S6jCWXQfK10pEV25FP1iFP3Sq3D86YxAj1sT3cAkWvCaZPWLXfRYUsHet03/uAjKs2DBAvOe0RUQ0d0uBeetzfQPluCju4yJHrclp512mnTt2lX0bMeiK5a+FTlqfseMGSO6t0Dkmp4lXvTYtshxtv0B22pvneg5CszzDfti02P5RM94LLpXjfdF1hVn0RNiRsrh03vXZlpXJEVPjCRffvmloG4wa9Ys87uJ59NueJfqrpiieywJfmv0pKCivT2iG9dsEC/3umHU1Am00DX5170GzHtWN1x4WR5kGs+dXnlF9OzUxp5awBv74jw+sCXsBhvqhhrRYkhatmyZNe9ZPVmt6MlNI/bTs8QbDpETHv1hn028Q/E3NtRj8TvpY72mvOi7d+8uM2fOjNyO7zTevT5ueAZ1Q6noCeXk7bffFi3gZfny5RH72jLhOdUTDYqegFd0LxFTL9JOKPP82jC+7n1671Kwp+lbFhQENklUGvEgZNvms2CPZifYBy+24GYr/MFzif7GPfaTKGyYrmeTYAdX2BJ2th/dwmp+tNAgob06oj1Bor09poFFe/jMM4rnNJue1eom2O3z5D7f9nksz/Ns4wzLPhsEO1i6zyfeP2hE1V3dTSMhnk00nOF5hN3s3ncb+lRxTOU7H7QnhB5sqSfsNHaG2MNHe/Yi71n7TKaSRljDZpNgB2NrS+yxWVvZvTmZ5f9lk2CHqaxN8dtoG2X05MiCehGO9RAV84zCaYOGbVsXypb6kE/vXQr2LH+5ZKJ4Pgv2TPAKe5quYIfHBy90Hz3s0VhbEYcfLnxQ+cgWERCtvDhXXQV7LB7ZcD5bBLtrC1uhxHkrDLDPts2nimNF2Afft9n+ns02wV4Ru2fLvdkm2F274Pm0H1yz9SH7rLrhfT/26b1Lwe77ty2E+adgD6FRKpClbBfsFUDj7a0U7N6aLmbGs1Wwxyxwll3wqeKYZeirrDgU7FWGNmMRZ7tgzxjYDCXs03uXgj1DX5JsTtYV7HqWeNGTuWVzkbO6bBDsmG9BT1JiypltHvasNl6Mwrlzh2T7GPYYGLLqNAW73+b0qeLoN+n05d4V7Bj/i8ZSbv4SoGD313bRco73Lrr72/oteo6iB2kY5w6hYI9mQZ6rEAEK9grhC93NFOyhM0mFM0TBXmGEoYuAgj10JkkpQxTsKeHyIjAFuxdmSimTFOwp4Qp9YAr2FEzkVhyzdZb4FJB4H5SC3XsTliqA2yXe51niSxWsGh+471162P39MhSWKHl6/naZP/IxmTHqX/Lj2jXS+qh2ctbND0ubdh3lvDZ1/S1cNcn5VxsKZcq3m2T8X6+Sz+fM0nNo5MrxXbtLn9ueln5tGkqrhnnVhER2FZOCPbvsidJQsGeXTSnYU7CnW3GkYE8BXkiDUrCH1DDlzBYFeznBhfg2971LwR5iYyXIGgT7cwsLZN7XK2TTnJGyZvHncmj3QdK4/WnSp21z6dXK7+XOEhQ/Ky4v31wkLy7YLKuWzJPVU1+SGnk1Zf+el0jLI9vJb9o3lAPr52ZFOatbISjYs8/iFOzZZVMK9hTs6VYcKdhTgBfSoK5g93E94JCizUi22CU+I9irNFH3vUvBXqW4qzRyrddl064SeeLD1bL85wKpsX29FDc6UM47ppn0OLSB1MnLvhnVqxRoBiLfU6zkOy3aH5z5gxRv+1lPzVxD8vdqIrf1OFhaNsyX/Oxb/TUDlNOfJAV7+plXdYoU7FVNOL3xU7CnwNutOFKwpwAvpEEp2ENqmHJmi4K9nOBCfJv73qVgD7GxksgalkV+7KXXZV6ddlJSt4nkrVsi13c7WNq3OVQo15MAmOEgWNV65+5CueHxEbL90O56ceQSabBsujxy46VSKz+PNsywfcqbPAV7ecmF9z4K9vDapjw5o2BPgZpbcaRgTwFeSINSsIfUMOXMlivYOYa9nCBDdBuXdQuRMSqYFYj1ndpD+/iURbK4oI7kFO0xHtorO+0tnVo2lZq5lOwVRFzltxeViGzYWSS3j14ge/Lr6fRypHbhVrn/nGOlce1cyaWHvcptUBUJuIJ9wIABgjovN38JULD7a7toOYdgxypIO3fuNJfr168va9eu5Szx0WBRsEej4vc5Cna/7efmnoLdJeL/MQW7/za0JYDYm/7DLhm3cK1sXDRLdi39ROqdMFAOan2UXNS+mRzRlBOWWVZh3f+0o0ReXbzVzENQ8PEoydFj2Ot1OltOOKKlnHfkXtKkNhV7WG0XL18U7PHo+HmNgt1Pu8XKNQV7LDJRzlOwR4Hi+SkKds8N6GQfgh3rVBYUFJgr9LA7gDw8pGD30Ggxsrxbe9fv/GCLbPz4HfnsrWflh+XfSsdTustRQ/4grVu3kd922CvGnTwdFgJfrN8jry3cKD+8NUzmTnxLcvNy5eQ+58oBA34vv+7QWI5smh+WrDIfKRCgYE8BlidBKdg9MVSS2aRgTxIUglGwpwDLk6AU7J4YKslsUrAnCcqjYBTsHhkrQVYx/rlQi/Z+fc+U6VOnSklJidTIzZVRb4+WvmeeKXl0ziYgmPnL2nyyactWaXXQgbLjfw2j9Rs0kBUrV0mDveoJRzVk3kblyQEFe3mohfseCvZw2yfV3FGwp0CMgj0FWJ4EpWD3xFBJZpOCPUlQHgVz37ucdM4j48XIaq9evWTKlCmRq1ydI4LCiz98qjh6ATQEmXQFe//+/QWNpdz8JUDB7q/touUc7130IN2xY4e5jB6k69at4xj2aLDciiMnnYtGya9zFOx+2StRbinYExHy77r73qVg98+Gbo4p2F0ifh1TsPtlr2RyS8GeDCW/wlCw+2WvRLmlYE9EKHDdrThSsAfgePqnK9jHjRsnffv29bQ0zLYr2OvVq2daINESyc1PAuwS76fd4uWagj0enfBfo2APv41SzSEFe6rEwh+egj38NkolhxTsKdCiYE8BlidBKdg9MVSS2aRgTxKUR8Eo2D0yVpJZpWBPElRIg1Gwh9QwFcgWBXsF4IX0Vgr2kBqmnNmiYE8BHAV7CrA8CUrB7omhkswmBDvWqbRjfOhhTxJciIO57112iQ+xsZLMGgV7kqBCGoyCPaSGqUC2KNgrAC+kt1Kwh9Qw5cwWBXsK4NyKI7vEpwAvpEEp2ENqmHJmi4K9nOBCfJv73qVgD7GxkswaBXuSoEIajII9pIapQLYo2CsAL6S3UrCH1DDlzBYFewrg3IojBXsK8EIalII9pIYpZ7Yo2MsJLsS3ue9dCvYQGyvJrFGwJwkqpMEo2ENqmApki4K9AvBCeisFe0gNU85sUbCnAM6tOFKwpwAvpEEp2ENqmHJmi4K9nOBCfJv73qVgD7GxkswaBXuSoEIajII9pIapQLYo2CsAL6S3UrCH1DDlzBYFewrg3IojBXsK8EIalII9pIYpZ7ZcwY7Z4deuXSucJb6cQENwGyedC4ERKjkLFOyVDDTN0VGwpxl4GpJzBfuAAQMEdV5u/hKgYPfXdtFy7tN7N0fpLVoh0nWOgj1dpNOXDgV7+linIyUK9nRQTm8aFOzp5Z2O1CjY00G56tLwqeJYdRSyK2YK9uyyJ0pDwZ5dNvXpvUvBnl3fvVCUxhXsY8eOlX79+oUib8xE6gQg2Pfdd18pKCgwN9PDnjrDsN1BwR42i1Q8PxTsFWeYyRh8qjhmkpNPaVOw+2St5PJKwZ4cJ19C+fTepWD35VvlUT4p2D0yVhJZpWBPApJnQSjYPTNYEtmlYE8CUoiD+FRxDDHGUGWNgj1U5qiUzFCwVwrG0ETi03uXgj00X5vsyQgFe/bYEiWhYM8ue6I0FOzZZ1MKdr9t6lPF0W/S6cs9BXv6WKcrJQr2dJFOTzo+vXcp2NPznahWqVCwZ5e5Kdizy54oDQV79tmUgt1vm/pUcfSbdPpyT8GePtbpSomCPV2k05OOT+9dCvb0fCeqVSquYB83bpz07du3WjHIpsK6gr1evXqybt06zhLvsZEp2D02XoysU7DHAOPJaZ8qjp4gzXg2KdgzboJKzwAFe6UjzWiEPr13Kdgz+lXJzsQp2LPLrhTs2WVPlIaCPftsSsHut019qjj6TTp9uadgTx/rdKVEwZ4u0ulJx6f3LgV7er4T1SoVCvbsMjcEe4sWLWTHjh2mYPSw+29fdznN3r17y8SJE/0vWDUuAQW738b3qeLoN+n05d4V7P379zeNpenLAVOqbAIU7JVNNLPx4b2LVZBs/RarIKEHKeq5Ydso2MNmkSzIDwV7FhgxUAQK9gCMLPmTgj1LDBkoBgV7AIaHf1Kwe2i0BFmmYE8AyMPLFOweGi1OlinY48BxL7kVx1/96lcyYcIENxiPPSLgCnauw+6R8aJk1e0Sz3XYo0Dy7BS7xHtmsCSyS8GeBKQQB6FgD7Fxypk1V7APGDBAUOfl5i8BCnZ/bRct5z69d+lhj2ZBnqsQAQr2CuEL3c0U7KEzSYUzRMFeYYShi4CCPXQmSSlDPlUcUypYNQ5MwZ59xqdgzy6b+vTepWDPru9eKEpDwR4KM1RaJlzBzjHslYY2YxG5PZs4hj1jpqi0hCnYKw1lRiLyqeKYEUAeJkrB7qHREmSZgj0BIM8u+/TepWD37MvlQ3Yp2H2wUvJ5pGBPnpUvISnYfbFU4nyWKJFNu0rkwvMGyoypk6WocI/UqlNXXhzxhvTu1Usa1KqROJIUQ2zU6dXMzZE6eTmid1Ks87CzUEmhzkzj2pWf3pbdJZKj06mbV0P0P5Pebp0o0kR6NfS1ytwKdLx7dPz1a9aQXJ2e0uXbo8u2fY+SRpon8lCZ264iJes3bZWObVvLts2bRHR5GjVpJvMWfyt7N6wrtQCZm3cEKNi9M1nCDFOwJ0TkVQAK9hTMFa3iOH78eP3jXPoHSuEXM87mhrdBE91nw1V0b9O36bnHbvz2unvevd9et+ftsb3fnrfH9rrd2+v22N3b+9xw9rwN71635+0+GB6enmnTptlLgjHsffr0iRwH/7D3JYo/eE+0v2087rVY8aYa3o3XPbbx2fTc41jh7Xl7nz1OdL8NZ/c2vD22ezdeez5WeHs9uIdg32+//SKzaMLDvmbNmlKzaMaKrzLSR15sPG46sc7b/Ce6bsPF2tv73es2H/a6PXbDudfLe+zGa9Nz43PDudftMZ7Jc845JxIczyznDongCM0f1l7W3tEyBrF3x4dbZdOi2bJs/D9k2VeL5PjT+kqL3ldLu8NbylXt6sX8PY0XL9KKlj4aCP704RY5sEG+nHtEXS1gc2TzbiWvf1Uga7cVy92dGxhxHS2v9ly0eO21aPsn522XgiKRC9vWk33r1dB/Kxm/bKfMW7dH7u3SIGVBmyj9MTruT9cWysVH7SWHNcrVYl1k5spdMmXFTlM+iPZktkTp2Di+WL9HXlqwSTbNGi6fj3tZ8vLypUO/S6RRl/PlmmMbyZFN801QNz732MbHfTgIvPnmm3L++edHMoNZ4kePHh055h/+EejRo4fMmjUrknH8buL3k5ufBCDYUb/duXOnKQBniY9jR1ew165dWxo2bBipKNhbk61Y2PB2n+g+G66ie/eH0z1247fX3fM2v+51e96Gt9fteXtsr9u9vW6P3b29zw1nz9vw7nV73u6D4fEA7Nq1y16SBg0aSJ06dSLHwT/sfYniD94T7W8bj3stVryphnfjdY9tfDY99zhWeHve3mePE91vw9m9DW+P7d6N156PFd5eD+6Li4tl06ZNUlKia616y83NlcaNG5u9DRcrvmTTt/fb8O6xe96ma8/bvLnn7XUbn73u7u11N3yNGtEr5m54m76938Zvj93w7rG936bnHtv47D7W/TY9G84eu+GxhAkaYuyG9279+vUjws4Nb8PZ8/bYjd+et/tY1+15G86N155PFM5eT3S/e93eZ9Nxr9vzicLZ64nut9dteBu/3bvX7bH7fbD32+s4zsnNk9Mv/j8pbttbcjatkhorPpHi9mdJzp4C2Trjefl0xqTIs2vvt3sbj92752Olf/rgSyTvpCFSS7ua6yydLjt/0VN2FxZJ4UcjZNqoVyK/32589tjubbp27563xyf1PFMa9bxSatVvLHW/mii7DzxedtVpJkWfj5apw5+QkqJCg9KGTxSfG84N36bjidLy7Bul9j4HS90l70ph01ayc5+2Urhoirz33P1SuKvAmi5uuonSsenu2/IwOeaCW6SkeRvJXTJZv2RrSnHrHlJjzUL5YvgDsmHt6rjp2HhKZUofuOfd/Njw9rw9du+z5204ez3WsQ1vw9lju491nw3vXnfvs8d2b++zx6nuY6XnxuOGs8c2nJsP1IOivWdteLu38bj32+t274Zzj224WPtY4WOdd+Nxw7nHNnys87Guu+HdY/c+e2z3ibjZcO7epmPPu/HY6/Y8jqPVb2vVqmWjKLW399uTNh57bPc2XKzrscK597nH9j67j3U91nl7n9274dzjWOHs+Vh7Nx732N7nnnePbbhk97i/qKhINm/eHPmNpGCPQ88V7HGC8hIJkAAJkAAJkECAQK4W7Icc3kY69L9Marb/laicXKmxa6v8NPWf8sX0cfLT+rWB0JXxZ47sf9DBclzfoVK/y1CTXk5JoWx7f4R89u6rsmbVD5WRSKk49m6xrxzXc4A063m5lNTSDUuqWHbPf1fmj31Rvlv6jZToRsXK3NAd/dguPWS/vtdKSf3mOj0latkcWfTOs/LVon9L4Z7dlZmc1KvfQNp1OlkO7a/T2+dw3SNeSc7axfLtmKdl0ecfy46C7ZWaHiMjARIgARIoS4CCvSyTyBkK9ggK/kECJEACJEACKRGAF7xJ072la/9zpW73q0TVri+5Py+TpW8OkwUfzZadBaW9wSlFHiPwXg0aysln9JN9+t8sql5Tydn+o6wf87DMnTpeCrZtjXFX+U/X0cNwOp58qhw6+BYp1t7uHN0gUTD9WXl//EjZtOHniHek/CmUvrO27hHW+piO0v6Cm6XogI6SU6i7S376mswY9ZKsX7tGirVXpjK3mtpD1/Kw1nLSeddKUZvTzKD53MUTZc4bz8jKFct0A8GeykyOcZEACZAACUQhQMEeBYo9BcE+cOBAe5j0PlbXEdtFIumIyhkwUfr2us2PPXaTs9fd84mObXz2fvc41v3Jhot1vz1v47HHdm/zY4/tPlZ4e93eZ8PZY3vd3dtw7vlE97nhy3ts07fpuceJ4k01vBufvd897x67+Yt13T2f6Nim78Zvj937bXj3vA2f6Lq9L1Y4e93dJ4rfDe8e2/vd8zYf9nqyx248yd7v3pdsem78bjyJrrvheZxeAsnYJy+/pvQ69xJpcOqlUiM3X3J/WipFBx0nsnK+LB33jHz24ayku0a7pYuWPs716HuO7HPGFZLT+ADJWz1fig7sKGrDD7J+8j/lvXexznRyc87Y77Gbrnt8Qtcecli/q0UOOEbyVn0hxdoLXVK4W7bMfFGmvPmynmjvv13i3ftiHUcrVzDsEVqsdxx8rcjh3SQf6TVoIcW1G8uuOcNl0vCndSNIch7vROnYNPc7qJV0HXKt1GjXV/J+/EZ3ic+ToiatpHjeGJk54kn5sZxd4m383JMACZAACSQmAMG+du3aUnM0Jb4rPSEyPks8xlJifGyqW15eXtRbMB4h2harYmB/UKPdE+9crPQL/1dxyM//7yQx7rEbZ6z8uuHcY5u+G3+s+Gz53XxVdvljpW/z65bDHrvlsMf2uru35XDPx0rflt8NX9Hy23za/CSbfqLwbj7d40Q8bXg3f/a83cfKr70ea2/Td+OPFZ8N78Znwye6bu+LFc5ed/eJ4nfDu8f2fve8zUes8tvr9n577MbjXo917N5n43PTd8NV9LobH4/TSyCR/ZCbQpUjjyzYI433qiOXHl1f9sorkeXbcmT4ws1ySJ09cnarHLHvG5v7ZOI1cTu/ZzgHKf7kokIpya0ll3doKE3yS2TDnhry3IItkl+8W645Oh+TnMfdkk3fRvLGsiL5viBPLjqmkbSqr2drL6ohLy7cJlsKdsoN7WtKXk78BgIbj90nSn/WmhKZpUcSnH1kI+nQRM9+L3nyqp5Ub8XPBXJjh5pSLze59BKlY/Pz9WY9ad+yYunWqqH0PCjfMJ6wYo98vHKrXNI6T5f5vyHd90Oy8dt0uCcBEiABEohNINocTbFDp/dKxgV7eovL1EiABEiABEggewgU6bkgp36/S47ZJ1+a1801S45hSbJFPxWapclO3j/6hEjlJQCpOnnFLjmkoR47r2dQz9drqmHJs+82F8v3W4qkV6va5Y065n0frt4tdfNzpG2zfLOcHMq8rqDYlPH0lrUrfZm1L38uFCxdd3yLmmYGesyMv1VPFf/xmj3S/aBaUlsvZ1eZ22o9u/7XGwvlxP1qmaXyEDeWlvt4zW5p9z+7VmZ6jIsESIAESMAvAhTsftmLuSUBEiABEiABEiABEiABEiABEqgmBCjYq4mhWUwSIAESIAESIAESIAESIAESIAG/CFCw+2Uv5pYESIAESIAESIAESIAESIAESKCaEKBgryaGZjFJgARIgARIgARIgARIgARIgAT8IkDB7pe9mFsSIAESIAESIAESIAESIAESIIFqQoCCvZoYmsUkARIgARIgARIgARIgARIgARLwiwAFu1/2Ym5JgARIgARIgARIgARIgARIgASqCQEK9mpiaBaTBEiABEiABEiABEiABEiABEjALwIU7H7Zi7klARIgARIgARIgARIgARIgARKoJgQo2KuJoVlMEiABEiABEiABEiABEiABEiABvwhQsPtlL+aWBEiABEiABEiABEiABEiABEigmhCgYK8mhmYxSYAESIAESIAESIAESIAESIAE/CJAwe6XvZhbEiABEiABEiABEiABEiABEiCBakKAgr2aGJrFJAESIAESIAESIAESIAESIAES8IsABbtf9mJuSYAESIAESIAESIAESIAESIAEqgmBjAv2Xbt2yfbt2w1upZTUqlVLGjRoUE3wZ18xi4uLpaCgQPbs2WMKl5ubK/Xq1ZOaNWtmX2FZIhIgARIgARIgARIgARIgARKoQgIZF+xz586VO+64Q0pKSgSCvVOnTjJs2LAqLDKjrioCsN/GjRvlD3/4g3z77beSk5MjjRo1knvvvVfatm1bVckyXhIgARIgARIgARIgARIgARLISgIZF+xjx46VQYMGGbEOwr169ZJx48YZsZeVxLO4UGh0WbdunZxzzjny+eefGxs2b95cRo4cKSeffHIWl5xFIwESIAESIAESIAESIAESIIHKJ5BxwT5mzBgj8CD2sPXu3VvGjx8v6ErNzS8CsOHatWvl7LPPlk8//VRq1KghEOyjRo2Szp07+1UY5pYESIAESIAESIAESIAESIAEMkwg44IdHnZ4ZDH2GRs87BDseXl5GUbD5FMlQMGeKjGGJwESIAESIAESIAESIAESIIHYBDIu2NH9HYK9qKjI5PKMM84wgj0/Pz92rnkllAQo2ENpFmaKBEiABEiABEiABEiABEjAUwIZF+zwpkOwFxYWGoQQ7BDxnFXcv28UBbt/NmOOSYAESIAESIAESIAESIAEwksg44L93XffNYLdLgN2+umnG8GO5d24+UWAgt0vezG3JEACJEACJEACJEACJEAC4SYQCsE+cOBA2b17tyHVs2fPiGDHsmDc/CFAwe6PrZhTEiABEiABEiABEiABEiCB8BPIuGCfMGGCWMGOdbxPO+00I9hr167Npd3C//0plUMK9lI4eEACJEACJEACJEACJEACJEACFSKQccE+ceJEI9h37dpl1mKHYMfM8XXq1KFgr5Bp038zBXv6mTNFEiABEiABEiABEiABEiCB7CWQccE+adIkI9h37txpBHuzZs2kQ4cOXIfdw+8cekhgaMOCBQtk8+bNXIfdQxsyyyRAAiRAAiRAAiRAAiRAAuEhEArBPmjQINmxY4cR7OFBw5xUlECNGjWkefPmMmrUKOncuXNFo+P9JEACJEACJEACJEACJEACJFCtCGRcsE+ePFkg2AsKCijYs+yrR8GeZQZlcUiABEiABEiABEiABEiABNJKIOOCfcqUKUawb9++nYI9raav+sQo2KueMVMgARIgARIgARIgARIgARLIXgIZF+xTp041gn3btm1GsLdt21Zuv/12qVu3Lied8+x7h0nnMHb9vvvuk2XLlnEMu2f2Y3ZJgARIgARIgARIgARIgATCRSDjgn3atGlGsG/dutUI9m7dusmYMWOkYcOGFOzh+q4kzA1niU+IiAFIgARIgARIgARIgARIgARIIGkCGRfs06dPN4J9y5YtEcH+zjvvSKNGjSjYkzZjOAJSsIfDDswFCZAACZAACZAACZAACZBAdhAIhWAfPHiw6UqNZcG6du0qEOyNGzemYPfsO0bB7pnBmF0SIAESIAESIAESIAESIIFQE8i4YH/vvfcEgn3Tpk3Gw96lSxcj2Js0aULBHuqvTtnMUbCXZcIzJEACJEACJEACJEACJEACJFBeAhkX7DNmzDCCfePGjRHBPnr0aGnatCkFe3mtmqH7KNgzBJ7JkgAJkAAJkAAJkAAJkAAJZCWBjAv2mTNnGsG+YcMGI9hPOeUUsYIdy4Jx84cABbs/tmJOSYAESIAESIAESIAESIAEwk8gdIK9c+fORrA3a9bMLAsWfoTMoSVAwW5JcE8CJEACJEACJEACJEACJEACFSeQccE+a9asiIcdgg+C/e2335a9996bgr3i9k1rDBTsacXNxEiABEiABEiABEiABEiABLKcQMYF+9y5c+Wiiy4S2yW+U6dOMmLECCPYc3Jyshx/dhUPgv3HH3+UCy64QObNm2caXNDwMnz4cIFduZEACZAACZAACZAACZAACZAACSRPIOOCfc2aNYK12Hfv3m0mmWvRooV0795d6tSpw0nnkrdjKEJiWb4dO3YIZv6HcEeDC+wIe8Ku3EiABEiABEiABEiABEiABEiABJInkHHBXlxcLEVFRWbCOWQbE83l5+dTrCdvw1CFhGgvLCwUeNuxQbTn5eVJbm5uqPLJzJAACZAACZAACZAACZAACZBA2AlkXLCHHRDzRwIkQAIkQAIkQAIkQAIkQAIkQAKZIEDBngnqTJMESIAESIAESIAESIAESIAESIAEEhCgYE8AiJdJgARIgARIgARIgARIgARIgARIIBMEKNgzQZ1pkgAJkAAJkAAJkAAJkAAJkAAJkEACAhTsCQDxMgmQAAmQAAmQAAmQAAmQAAmQAAlkggAFeyaoM00SIAESIAESIAESIAESIAESIAESSECAgj0BIF4mARIgARIgARIgARIgARIgARIggUwQoGDPBHWmSQIkQAIkQAIkQAIkQAIkQAIkQAIJCFCwJwDEyyRAAiRAAiRAAiRAAiRAAiRAAiSQCQIU7JmgzjRJgARIgARIgARIgARIgARIgARIIAEBCvYEgHiZBEiABEiABEiABEiABEiABEiABDJBgII9E9SZJgmQAAmQAAmQAAmQAAmQAAmQAAkkIEDBngAQL5MACZAACZAACZAACZAACZAACZBAJghQsGeCOtMkARIgARIgARIgARIgARIgARIggQQEKNgTAOJlEiABEiABEiABEiABEiABEiABEsgEAQr2TFBnmiRAAiRAAiRAAiRAAiRAAiRAAiSQgAAFewJAvEwCJEACJEACJEACJEACJEACJEACmSAQV7ArpQSfZLecnBzBJ5kN8ZaUlEQ+NWrUkNzcXME+LFswj3l5eQnLFgyPMoAFyhSNSXFxsezcuVMKCgpMcevVqyd16tQx4d3ygxPCFRUVCcLl5+dHjdO9zx7bfCFN/B2NNa7t2rXLfOrXr59yGjYt7kmABEiABEiABEiABEiABEiABCqHQFzBvmXLFiksLExKtEOUNmrUSCBsE20QjXv27JFVq1bJmjVrjBht3ry5HHzwwdKkSZOUxGiitCpyHXlcvHixEbHt27c3gjpefGCF8vznP/8x3Jo1ayaHHnqo1KpVq0yZNm/eLPfff7+MGDHCRDlkyBD54x//KA0bNiyVBFht3bpV7rrrLlmyZIn89a9/FeQlGc42Igj95cuXy8qVKw13sD7wwANl7733jjSQbNu2TR588EGZOXOmPProo3LsscdGbTywcXJPAiRAAiRAAiRAAiRAAiRAAiRQtQTiCvaePXvK0qVLjRc8mWxMmjRJjjzyyDLiNHgvvMoQjrfeeqt88cUXRkBClMITDcF/ww03yKBBg6RBgwYRMRm8P51///vf/5aLLrpINm7cKO+//760atUqZvIQ6Q899JCMHTvWCHyUCZ5wNEL8+c9/ls6dOxvvOM7Dm/3cc8/J3XffbYQ9POgQ9Qh3xRVXmHJbrzzE9oQJE+R3v/udEf/jxo0z8djrMTOkL6DBYcWKFfKXv/xFPvjgA9m9e7exJVijYeTmm2+Wc889V2rXrm3yhPLC5h06dDANCfvtt1+86HmNBEiABEiABEiABEiABEiABEigCgnEFewnnniifP311zEFO4QnvMoQlRCBn3zyiRF7scQkwn3++efy29/+Vr766isjUuGFhrD98ccfTRdxdMe++uqrjZhEF/FYcVUVEwhqCGh4nJ9++mnjBYfwXbhwobRu3bpMsigTGiAgfmfMmGHEOhoeatasKeihgHsPOOAAGTZsmJx++unmPLz2l19+uaxfv15uueUW04Ph4YcflqZNm8rzzz8vRx11lPGgI2547M8++2wT9pFHHpGBAwcmxQR2+f777w3rjz76yDQC7LPPPkao//DDD7J9+3bTY+COO+6Q3/zmN1K3bl3jyUeDwezZs03DyXXXXWfEfLptUAYyT5AACZAACZAACZAACZAACZBANSQQV7C/8MILRjBCxLobzkGQvv3227J27VrjWX/nnXfieqHRtfv//u//jPcWHnSI1b59+xpxCkF8++23C8Qkxmm/++67cvzxxxsx76aNY6QfzFe0se/BMBCdiYQnxnBjrDhEMrqqDx8+3JQNDQqLFi2KKth37Nghf//73+WBBx4wjRfwUN90002mt8CsWbNMN3PE17ZtW4F3HOIdzOA1h8f++uuvN+V46qmn5Ntvv5U+ffrIOeecY8oNUf3444+bRgOI/X/84x+mG3s0Hu45dLn//e9/b8oAMX7ZZZfJlVdeaYT5smXLBGIc3eTRZX/atGkCbzoaFyZOnChXXXWV6TI/cuRIk8dobN307DGYoyEHjR74Gw05uD9eHNZOuA9/Iyzui2cvew/SwZYoDZs/7kmABEiABEiABEiABEiABEjAGwJa+MTctBhSWkRF/Whxp+677z6lvclKj4lWWvQpLXhjxoUL2uOr2rRpo3T3b3XppZcq7VVXSMOm869//Us1btxY6S7aSo+nVlqwxoxPe5CV9lArPQ5e6e7oJo9uYC1alRbLJhzyhnTibVqgKt2FXenx4UoLQKUFI1oqlBbsSvc0KHMr4kMZtOg19/zyl79UusFBac+4SUs3UKjHHnvMlFc3UCgtyk0ctrxgazfLOZjHb775Runx6mqvvfZS2vNu4rXhE+2nTp2qdO8FUw4twJVuVImwRv6QF92DwVz/9NNPTdzIg+7+r3SXeKXH0is9Xl6Bc7Ib8q4bMJRu3FBTpkxR48ePV7pHhWEULKsbH/IDO82ZM0dNnz5d6a75Jh43XPAY96BMuleH0kMrjI1xHedha3w/uZEACZAACZAACZAACZAACZCAzwTg0Ux5gyDSHnClvcVKT1ymdNdxI7DiiTIk8tlnnyntyTWCHGJfe+hLpb1gwQKlu20bgfuHP/xB6W7ppa7bAwjDDRs2qAsuuMCI5cMOO0zp8fNKe8dNEFyHmNPjz831o48+2ojARPl744031C9+8QtTrv3339+IVgj3WIIdHCBM0cCgewWoe+65p5TAhXiEoN93331NmXTXdqXH8CdsOEAhEPfrr79uRDUaOSBKg2Lesoi2Rzn1uHVzLxpAIPxdAYuGhSeffFLprvhKd+mPxI179Vh60xBzsG68AOdE3JAHlAtCvX///uqggw4yjTiwJTgi/y+++KKxZzAu8NHefjV06FClexsYTi1atFB6Qjx18sknm+8YbBosN+5ZsWKFuvDCC809+D4hDT1cwTSO4HtzzDHHGNsH74vGiedIgARIgARIgARIgARIgARIIMwEUhbsEEzr1q1TZ5xxhtLjzdWAAQOMdzQZcQRv+BFHHKH0+G4j7CDWIPQgJuEN17OmK3iidRdu9fLLL5trseDhHt1l3QhD3X1a6e7zSnerNx5WPbma0uO9lR4TbrzTesI20ziQKI8Qp19++aUR9/Dy/ulPfzJ5RX6jedjhQdczuxtBj4aL9957r0x20UvgzDPPNIJdTzwXszeAe+OmTZtMLwR4+3V3eMPcDRPrGA0dELToydC7d28jyNGAMW/ePDVz5kxTPhyDOfLnetH1BHuGK7zskydPtH8uJQAAE4VJREFUTthzAlzBDeVDwwUacrp162Y+aADB9wTn9NCBSFxokIBHvUePHqZxAD01ILTxsXaDcEfPAnDGhnT0sAGlh1GYxhR8TyDwDznkENObAA0EEO44j3iDjQOxWPE8CZAACZAACZAACZAACZAACYSVQMqCHWJQj9c2QlbPNK7efPPNUh7QeAWF8NLj1I2ggrDTY7WNhxrdmuERtt53Pema8UyjcSDehu7bEMwQ1BCniBui++OPPzaCE55vPWu98ci6ojRevPbaP//5T+M9jyXYkRbKAFENrzK6/LsbuojrseRGyHbs2NF4uxOVC3F89913Cj0H4N3XE8NFRKsbv3sMUYvu5eiej/Lrye2UHgevTjnlFBMfvNGHH364aTCBgEeDiStsV69erfSybibPaLSI1dPBpo3GE3SxByf0Jhg9erQZGoAGGtgCeYG94bGHzZAe0oA3HnnEkAo0sKAnABpGMDQBAh9cIcDRZR/3oCEG3fvRqINGgGuuucZ0iUfPDDTwIG3cA2ZIM1EDjc0/9yRAAiRAAiRAAiRAAiRAAiQQRgIpC3YIMAgvjO/WE5kZgZxswSCgIETRlR2iCt3N4R2HyMIeccIDP3fu3DJe32hpIL4Vunt0ly5djFiEyIPIhhCEgEc3a3TdL69wSyTYf/rpJ3XqqaeavMMzDKHsbhDsaIyAwETjwfz585Mai64nfzPDDSCC9WR+Ec+0G797jLKi4QA9DsAXIhaswRdj1iGQLXeMcYcH2w4lsHHBu3/eeecZhmiQwFwB8TY0xOhJ7IwdTzrpJKWXAjTMkRcIbQh4dHHv1KmTEeTwro8ZM8Ywwfj8Z5991pQPYa0wh2cf+UOeMeQCDQsYDw/vO8qgZ8s3vSbQ+IF70FMAoh1inoI9nrV4jQRIgARIgARIgARIgARIwBcCKQl2iCaM04a3tGXLlkovT1ZmbHS8gkO8QrxB8EM0ousyBBg8rBC0EO4QXL/+9a+NJzYZTzTyBHFnJ6vDHvlDfMhrIu9wvPwmEuwQ6BCoEMNdu3aN2m0d+fvb3/5mygXPNsbxJ+PtR3d/lAUND+g6bsegQwRDnKLhA0MAgh90F8c17NFLAQ0gyBv4YgI5hIU3GhPhWSEPLz7CB1mDGTzZaCxAgwQ85fE2lPHOO+80NgV7PRu96X7/888/GyGOuQoQB8bNQ6xD4OuZ9I290UADJkgTeccHfyNP8JIjD/g+oNFAz5Jv7Ipu8Gj4CDbEIP9oaED3eDBjl/h4FuM1EiABEiABEiABEiABEiABHwikJNghuPTa7MbrqddSN6I6lUJCLLZr186IMAgrdPXGbOYffPCB0kvIGXEIjyvENrrdu5PSRUsLog2C8bbbbjPjmjGrOxoDIPbQvToo6qLdH+9cIsGOCeUwVhuiGB5kjO13N+QNM96jTBDRdpy9G849fuKJJ8w9EJ96zfqIoIY3GWId6UK4Bj+IX6+5rpYsWWK6koMD0sXs+xivDhb4gCvmCwBr5P2ZZ54pNSs78qzXlTee6uOOO06t0L0Y4m0Qy5jdHQ0SENiIF0ME+vXrZ4Q8urhjQjqIceQfQh69IJA/NBxccsklxkMPL739QKRj/DvyhzHr6DWA4Q9oEABrrAzgboi7V69eHMPuguExCZAACZAACZAACZAACZCAlwSSFuwQQxCemBwMnt9kJiNzieg12I2YQjdnCNKgIIeQhMcey5jB037CCSeYMc1uHNGO4bH+8MMPjecegh0iD3mFSK3IlkiwYzz2oEGDTH71OutRRSR6FWDmcohYiF9MtAeWibZ7773XsIJgxyzu9h7s4X1G93LEaT8Q5lheDhwg8CHe0TUc4hYC2d3gocakbvDCwyMeZIWx4pgpHnbADPt6vXb39jLH8IpjaT8MT7C9HNB1HXnAdwYNNZgpHo0B6JmAY6SN6+hpYcsRbQ/hjzxcccUVprEIohyNJe4GNujCjzjoYXfp8JgESIAESIAESIAESIAESMA3AjnIcKJF47WYFj1eW3S3b9GeTtHdmEV30xYttESLrkS3m+tIRs8sL3omddECTvQEY6InrRPtZY3cr8dSy7Bhw0R3ZRfd5V5ee+010cI9cj3aH4hXd7EWvYSb6CXWRItNkyftwZcRI0aI7hEQ7bakzj333HOiZ5gXlF97xkVPgFbqPt3gIHpSNtFjrEV3O5cJEyaIFqKlwmjBLnriN9FDAUSLbNGT9ImeUb5UuUvd8L8D3Y1etGgW7b0WvaSb6KXRRDdEoIFFtDgWPZO76C7gpW7VDSHGRkhTj0EXPdO9aO+0oBx6xvdSYbWHWrSoFS3+Rc9iLy+99JLo4QkmjO62btJ+9NFHRU+UJ9pDLnoYQ6n73QPkC5x0133RDS/m+6EntRPtWTdpIE7kAeXXnnjRS7mZMGB69dVXl8lfMH49UZ7ohgPRSwGKbkQxHPUSfIZ5MJwW7Ca/KJOesV50742EnIP3828SIAESIAESIAESIAESIAESCBUBLbQSbhh3PHbsWDMJGJb6wvrdwTHPCSP4XwAsBQevLWaXh0fXeo3t/Zj87KGHHjIecnSHxtjmRBvGQ8ObjrHv+GCyNXhY4cVHV+to3uVEcdrriTzs8Ba/8sorphs4uGDSs+CG8mFcNWY6R36wLrwdix4MF+1vTAYHzzQ87LNnzy51H+KFFxze++AHdoJdMHs9ltuzk6/h2N3QbV6LcOPlxiz2wd4O6LqOIQ/o3n7aaaeZGd3d+4PHsAF6XLz11lum+zzsiA/YwzOuGwwUllxDWW699VbTY+DSSy81doanHUvCBcuBvzGh36RJkwxTfA/Qm0E35hjbous9hgUEN5Qb4+SxvB7yzVnig3T4NwmQAAmQAAmQAAmQAAmQgI8EkuoSDwGHLtIQwhCf8caGo2s7xCS6bWOZruAM4xCG6P6Mj/aQmsnFEB4bRCjGyENoQtSjKze6j8fbkA5mlEeeIAYh0rAE2JAhQ8xM4pjQDo0LCGfTiRefey2RYIdIxPJk6FoOQX7++eebrtooC9JDowSEN7qGo5ECXcKT3dC1HePTIT5ff/31UmPME8WB8qIbPvKE7ulYHx4C2m4QxMEGAYwxh9i3G8QxyoJ8Dx48OGr3cxsWe4hr2Av5xdJ6we71uL5Cj4Hv0KGDsdG1115rvhNYag7xQ8hD6KPxw274GyId3foxxl17+k3+0WiE8qBx5K677jLfH7DGkAjk2Y7Ltw0V5bG5zQP3JEACJEACJEACJEACJEACJJBpAkkJdniJ+/TpYwSX7j5tBFosMQQBhQnCMF4bIg1LmtlNdxk3og6CCmIMS65BaEHgYZy27hptvMoQ9PDEusLPxoM90sdYaIxnxuRlWAIMwhNiFBO7YU13pIOl3TARW7Ke7WAaiQQ7wqIxA2OrMRkaxCcmy4NnGeWC0MbkesgHBC0aJJLdUDaM48e9N9xwQykPeDJxzJgxw8wODzYYXz9+/HjDE0xnzZpl5gpAIwcmEQT7oD2RNsbIww6Y6A0e9HgbyopGEjQuYOk6pA2PPe7DdweNJmADRpjpHcxgI4yPR/lQTjS84B58YC80vmAuAizVhwYHfK8Ql+7qbhoiYF/EhbHsaBiCqMd3AI099LDHsxavkQAJkAAJkAAJkAAJkAAJ+EIgKcGO2c/h6YSAwize8cQvvM6Y9AzeU4gniFm7wcuL5cUg3BAXBCGWFdPjpCNCHl5hTFyGNCHSYm3wCOvx4yYOpKPHiUcaEuBxxdreWM4M+cCkZdG6hceK255PRrAjLT1W20yiZsUilryD1x2CGOfAbty4cXG52TTtHmL3xhtvNPdjybhos6LbsNH2YG2FMkSx7R1hu+fjHGZy12PKS3m3ERe82/CWY4gB1oMPet+jpQWbo/EFvFFe9Gzopmexx0zwmAgPHGAH2BU9LmBX5A+CG/cgL/Cao5EADQjojYBzmEjv4YcfNp50pIv7sMQdJibE9wfCHPfh+4Q0kGc0DCAtLEcXbISIlm+eIwESIAESIAESIAESIAESIIEwE0go2CGS9ORlRnhBfGH5tXhCCOHhYUdYCFd0zbYbrsEjqieDM+IM4sp2cYbIgzf1+uuvN13uIYRjbUh/he5mjZnA4cGGEISX2DYk4Dq6aaOxAB52eH3R7TpenNHSgsce46Uxnj6WdxxpoQs6uuKjFwLKhLHnEJIYTw0RirXn4TmOx81NH2WBCEajBsoIr3MqG0Q0RD/GgWNcP8QshDA44+/TTz/diF94u2GX4Hb33Xeb/KPRAb0F3OvBsPZveO7B+NhjjzUiHOkgPXzgDb/44ouNV93aCPkDE4x9h9ccwt2Gx98Y247l6OBVR1i7QehjhnusEw+74juDfOI7MGrUKHXKKacYAX/WWWcllW8bL/ckQAIkQAIkQAIkQAIkQAIkEDYCCWeJ1xkW7WEV3e3ZzLitvZ6ivbUxJ85DeC2MRQs9NAaYsFq8RsLjnBZtsnbtWjObOGad1yJMtPASLYzNB+HjzT6POPQ4Z3Mf0tJeXTPjPPZ20+LYzB6PuLFhZnrteTUzrdswifZazJoZ2RGXFqDm/lj3oExaXIoW7qIbE8yM6VpIih4aINrDLtpjHLdM0eLVE7bJhRdeaDjprvZy2WWXifYkRwsa9Rw4abFtZvjXvR7MzPxgoHs1mJnadWOJaC915F6UU/dEEC3mRTeAiJ5zQPT69oZvJFCMP6xd9cRvJr96bL9hpxswBDP2H3PMMcYGwVUBcA/spxtxRE+CZ2aTh921wDfcMJs+8od7bFgt8s09OId7dU8M0b0yzMz7KBtmh0feMQv9U089lTLzGMXjaRIgARIgARIgARIgARIgARJIO4GEgj3tOWKCEQJYvu2ZZ54xy9zpLuZm6TWI2KradE8BszTdNddcY5ZxGz58uBH3QZFdVWknihcND1ha78477zSNIXoWe7NMoBXzaDBZsGCB6F4OJiosi6dXCaBgTwSW10mABEiABEiABEiABEiABEJLgII9tKYRI0zRswEiVHfJN2vUw+NeVZvuQi96uTXRk9LJTTfdZD7oGRCGDd5/eNN1937T2wPrssODroddmN4WS5cuFT1zvOnhgDXr9YzyptEhXk+NMJSLeSABEiABEiABEiABEiABEiCBWAQo2GORCcl5PX5bZs6cKfAoo3u5Hg9vuufrSdcqNYfwrn/yySeiJ+gTPQ5d9BJ0RvBWaiIViAxd4sHikUceET0RnRkOgSEH6NaPrvFo2MAwCz1RnuiZ7UXPX2C6ylcgSd5KAiRAAiRAAiRAAiRAAiRAAhklQMGeUfyJE4dQhecbXbwXL14sd9xxhxkPXtmCHfMUPPbYYzJt2jTTBR+iPZXx8olLUvEQYIG5EV566SXRy9QZgY45CtAtXs8UL/vvv7+ce+65oteON3MaVDxFxkACJEACJEACJEACJEACJEACmSNAwZ459imljPHsmGgPk/5hcrXK7uqNMeJoGMBYcEywF5zAL6WMpiEwPOp6eTjBBHeYGBCCHVz0MnVm8rnKbsxIQ5GYBAmQAAmQAAmQAAmQAAmQAAmUIUDBXgZJOE/Au2y3yhbrNl6kgU8YJpmzeYq2t/nEuHbLBUyQ77DnPVp5eI4ESIAESIAESIAESIAESIAEohGgYI9GhedIgARIgARIgARIgARIgARIgARIIMMEKNgzbAAmTwIkQAIkQAIkQAIkQAIkQAIkQALRCFCwR6PCcyRAAiRAAiRAAiRAAiRAAiRAAiSQYQIU7Bk2AJMnARIgARIgARIgARIgARIgARIggWgEKNijUeE5EiABEiABEiABEiABEiABEiABEsgwAQr2DBuAyZMACZAACZAACZAACZAACZAACZBANAIU7NGo8BwJkAAJkAAJkAAJkAAJkAAJkAAJZJgABXuGDcDkSYAESIAESIAESIAESIAESIAESCAaAQr2aFR4jgRIgARIgARIgARIgARIgARIgAQyTICCPcMGYPIkQAIkQAIkQAIkQAIkQAIkQAIkEI0ABXs0KjxHAiRAAiRAAiRAAiRAAiRAAiRAAhkmQMGeYQMweRIgARIgARIgARIgARIgARIgARKIRoCCPRoVniMBEiABEiABEiABEiABEiABEiCBDBOgYM+wAZg8CZAACZAACZAACZAACZAACZAACUQjQMEejQrPkQAJkAAJkAAJkAAJkAAJkAAJkECGCVCwZ9gATJ4ESIAESIAESIAESIAESIAESIAEohGgYI9GhedIgARIgARIgARIgARIgARIgARIIMMEKNgzbAAmTwIkQAIkQAIkQAIkQAIkQAIkQALRCFCwR6PCcyRAAiRAAiRAAiRAAiRAAiRAAiSQYQIU7Bk2AJMnARIgARIgARIgARIgARIgARIggWgEKNijUeE5EiABEiABEiABEiABEiABEiABEsgwAQr2DBuAyZMACZAACZAACZAACZAACZAACZBANAIU7NGo8BwJkAAJkAAJkAAJkAAJkAAJkAAJZJgABXuGDcDkSYAESIAESIAESIAESIAESIAESCAaAQr2aFR4jgRIgARIgARIgARIgARIgARIgAQyTICCPcMGYPIkQAIkQAIkQAIkQAIkQAIkQAIkEI0ABXs0KjxHAiRAAiRAAiRAAiRAAiRAAiRAAhkmQMGeYQMweRIgARIgARIgARIgARIgARIgARKIRuD/AahIFunQ/auMAAAAAElFTkSuQmCC;" vertex="1" parent="1">
          <mxGeometry x="1017" y="35" width="116.55" height="40.37" as="geometry" />
        </mxCell>
        <mxCell id="0utQu5BYzxmNWri7xnEW-14" value="" style="group" connectable="0" vertex="1" parent="1">
          <mxGeometry x="956" y="390" width="717" height="134" as="geometry" />
        </mxCell>
        <mxCell id="N_JRXF-t-N0-5RS0PsEg-20" value="" style="group" connectable="0" vertex="1" parent="0utQu5BYzxmNWri7xnEW-14">
          <mxGeometry x="97" y="26" width="362" height="108" as="geometry" />
        </mxCell>
        <mxCell id="N_JRXF-t-N0-5RS0PsEg-3" value="" style="fontColor=#0066CC;verticalAlign=top;verticalLabelPosition=bottom;labelPosition=center;align=center;html=1;outlineConnect=0;fillColor=#CCCCCC;strokeColor=#6881B3;gradientColor=none;gradientDirection=north;strokeWidth=2;shape=mxgraph.networks.pc;direction=east;flipH=1;" vertex="1" parent="N_JRXF-t-N0-5RS0PsEg-20">
          <mxGeometry width="133" height="105" as="geometry" />
        </mxCell>
        <mxCell id="N_JRXF-t-N0-5RS0PsEg-4" value="" style="rounded=0;whiteSpace=wrap;html=1;" vertex="1" parent="N_JRXF-t-N0-5RS0PsEg-20">
          <mxGeometry x="133" y="28.25" width="15" height="32.5" as="geometry" />
        </mxCell>
        <mxCell id="N_JRXF-t-N0-5RS0PsEg-7" style="edgeStyle=orthogonalEdgeStyle;rounded=0;orthogonalLoop=1;jettySize=auto;html=1;endArrow=oval;endFill=1;startArrow=oval;startFill=1;entryX=0;entryY=0.75;entryDx=0;entryDy=0;" edge="1" parent="N_JRXF-t-N0-5RS0PsEg-20" target="N_JRXF-t-N0-5RS0PsEg-6">
          <mxGeometry relative="1" as="geometry">
            <mxPoint x="272" y="52" as="targetPoint" />
            <mxPoint x="148" y="52.0428571428572" as="sourcePoint" />
          </mxGeometry>
        </mxCell>
        <mxCell id="N_JRXF-t-N0-5RS0PsEg-5" style="edgeStyle=orthogonalEdgeStyle;rounded=0;orthogonalLoop=1;jettySize=auto;html=1;endArrow=oval;endFill=1;startArrow=oval;startFill=1;entryX=0;entryY=0.25;entryDx=0;entryDy=0;" edge="1" parent="N_JRXF-t-N0-5RS0PsEg-20" target="N_JRXF-t-N0-5RS0PsEg-6">
          <mxGeometry relative="1" as="geometry">
            <mxPoint x="272" y="35" as="targetPoint" />
            <mxPoint x="149" y="36" as="sourcePoint" />
            <Array as="points">
              <mxPoint x="186" y="36" />
            </Array>
          </mxGeometry>
        </mxCell>
        <mxCell id="0utQu5BYzxmNWri7xnEW-3" value="&lt;font style=&quot;font-size: 10px;&quot;&gt;Conector&lt;/font&gt;&lt;div&gt;&lt;font style=&quot;font-size: 10px;&quot;&gt;macho&amp;nbsp;&lt;/font&gt;&lt;div&gt;&lt;font style=&quot;font-size: 10px;&quot;&gt;&lt;b&gt;DB25&lt;/b&gt;&lt;/font&gt;&lt;/div&gt;&lt;/div&gt;" style="text;html=1;align=center;verticalAlign=middle;resizable=0;points=[];autosize=1;strokeColor=none;fillColor=none;" vertex="1" parent="N_JRXF-t-N0-5RS0PsEg-20">
          <mxGeometry x="126" y="54" width="59" height="54" as="geometry" />
        </mxCell>
        <mxCell id="N_JRXF-t-N0-5RS0PsEg-10" value="" style="fontColor=#0066CC;verticalAlign=top;verticalLabelPosition=bottom;labelPosition=center;align=center;html=1;outlineConnect=0;fillColor=#CCCCCC;strokeColor=#6881B3;gradientColor=none;gradientDirection=north;strokeWidth=2;shape=mxgraph.networks.modem;" vertex="1" parent="0utQu5BYzxmNWri7xnEW-14">
          <mxGeometry x="538" y="57.75" width="75" height="25.5" as="geometry" />
        </mxCell>
        <mxCell id="N_JRXF-t-N0-5RS0PsEg-6" value="" style="rounded=0;whiteSpace=wrap;html=1;" vertex="1" parent="0utQu5BYzxmNWri7xnEW-14">
          <mxGeometry x="521" y="54.25" width="15" height="32.5" as="geometry" />
        </mxCell>
        <mxCell id="0utQu5BYzxmNWri7xnEW-2" value="&lt;font style=&quot;font-size: 10px;&quot;&gt;Conector&lt;/font&gt;&lt;div&gt;&lt;font style=&quot;font-size: 10px;&quot;&gt;hembra&amp;nbsp;&lt;/font&gt;&lt;div&gt;&lt;font style=&quot;font-size: 10px;&quot;&gt;&lt;b&gt;DB25&lt;/b&gt;&lt;/font&gt;&lt;/div&gt;&lt;/div&gt;" style="text;html=1;align=center;verticalAlign=middle;resizable=0;points=[];autosize=1;strokeColor=none;fillColor=none;" vertex="1" parent="0utQu5BYzxmNWri7xnEW-14">
          <mxGeometry x="486" y="79" width="59" height="54" as="geometry" />
        </mxCell>
        <mxCell id="0utQu5BYzxmNWri7xnEW-4" value="" style="endArrow=none;html=1;rounded=0;" edge="1" parent="0utQu5BYzxmNWri7xnEW-14">
          <mxGeometry width="50" height="50" relative="1" as="geometry">
            <mxPoint x="249" y="26" as="sourcePoint" />
            <mxPoint x="521" y="26" as="targetPoint" />
          </mxGeometry>
        </mxCell>
        <mxCell id="0utQu5BYzxmNWri7xnEW-5" value="" style="endArrow=none;html=1;rounded=0;" edge="1" parent="0utQu5BYzxmNWri7xnEW-14">
          <mxGeometry width="50" height="50" relative="1" as="geometry">
            <mxPoint x="521" y="29" as="sourcePoint" />
            <mxPoint x="521" y="22" as="targetPoint" />
          </mxGeometry>
        </mxCell>
        <mxCell id="0utQu5BYzxmNWri7xnEW-6" value="" style="endArrow=none;html=1;rounded=0;" edge="1" parent="0utQu5BYzxmNWri7xnEW-14">
          <mxGeometry width="50" height="50" relative="1" as="geometry">
            <mxPoint x="249" y="29" as="sourcePoint" />
            <mxPoint x="249" y="22" as="targetPoint" />
          </mxGeometry>
        </mxCell>
        <mxCell id="0utQu5BYzxmNWri7xnEW-7" value="&lt;font size=&quot;1&quot;&gt;Longitud del cable: 1,5 mts&lt;/font&gt;" style="text;html=1;align=center;verticalAlign=middle;resizable=0;points=[];autosize=1;strokeColor=none;fillColor=none;" vertex="1" parent="0utQu5BYzxmNWri7xnEW-14">
          <mxGeometry x="321" width="138" height="26" as="geometry" />
        </mxCell>
        <mxCell id="0utQu5BYzxmNWri7xnEW-8" value="&lt;b&gt;DTE&lt;/b&gt;&lt;div&gt;(Equipo de terminal de datos)&lt;/div&gt;" style="text;html=1;align=center;verticalAlign=middle;whiteSpace=wrap;rounded=0;" vertex="1" parent="0utQu5BYzxmNWri7xnEW-14">
          <mxGeometry y="49" width="94" height="30" as="geometry" />
        </mxCell>
        <mxCell id="0utQu5BYzxmNWri7xnEW-9" value="&lt;b&gt;DCE&lt;/b&gt;&lt;div&gt;(Equipo de terminación de circuito)&lt;/div&gt;" style="text;html=1;align=center;verticalAlign=middle;whiteSpace=wrap;rounded=0;" vertex="1" parent="0utQu5BYzxmNWri7xnEW-14">
          <mxGeometry x="613" y="49" width="104" height="30" as="geometry" />
        </mxCell>
      </root>
    </mxGraphModel>
  </diagram>
</mxfile>
